<?xml version="1.0" encoding="utf-8"?>
<!-- Generator: Adobe Illustrator 23.1.1, SVG Export Plug-In . SVG Version: 6.00 Build 0)  -->
<svg version="1.1" id="Capa_1" xmlns="http://www.w3.org/2000/svg" xmlns:xlink="http://www.w3.org/1999/xlink" x="0px" y="0px"
	 viewBox="0 0 418 195" style="enable-background:new 0 0 418 195;" xml:space="preserve">
<style type="text/css">
	.st0{fill:#6AA1ED;}
	.st1{fill:url(#SVGID_1_);}
	.st2{fill:url(#SVGID_2_);}
	.st3{fill:url(#SVGID_3_);}
	.st4{fill:url(#SVGID_4_);}
	.st5{fill:url(#SVGID_5_);}
	.st6{fill:url(#SVGID_6_);}
	.st7{fill:url(#SVGID_7_);}
	.st8{fill:url(#SVGID_8_);}
	.st9{fill:url(#SVGID_9_);}
	.st10{fill:url(#SVGID_10_);}
	.st11{fill:url(#SVGID_11_);}
	.st12{fill:url(#SVGID_12_);}
	.st13{fill:url(#SVGID_13_);}
	.st14{fill:url(#SVGID_14_);}
	.st15{fill:url(#SVGID_15_);}
	.st16{opacity:0.43;fill:url(#SVGID_16_);}
	.st17{fill:url(#SVGID_17_);}
	.st18{fill:url(#SVGID_18_);}
</style>
<g>
	<g>
		<path class="st0" d="M156.98,108.89v9.25h-1.53l-2.09-1.72c-0.91,0.82-1.99,1.44-3.23,1.85c-1.24,0.42-2.63,0.63-4.16,0.63
			c-2.12,0-4.06-0.41-5.82-1.23c-1.76-0.82-3.4-2.07-4.91-3.76c-1.5-1.64-2.62-3.39-3.36-5.25s-1.11-3.85-1.11-5.97
			c0-2.09,0.37-4.05,1.12-5.9c0.75-1.85,1.88-3.6,3.4-5.25c1.51-1.65,3.17-2.89,4.96-3.71c1.79-0.82,3.75-1.23,5.86-1.23
			c1.3,0,2.53,0.19,3.69,0.56c1.16,0.37,2.27,0.93,3.34,1.67l1.67-1.6h1.55l0.18,8.53h-1.65c-1.02-2.74-2.22-4.71-3.62-5.91
			c-1.39-1.21-3.14-1.81-5.26-1.81c-2.38,0-4,0.78-4.84,2.34c-0.85,1.56-1.28,5.48-1.28,11.75c0,3.31,0.04,5.78,0.12,7.42
			c0.08,1.64,0.21,2.82,0.39,3.55c0.39,1.55,1.02,2.66,1.9,3.34c0.88,0.68,2.12,1.02,3.71,1.02c2.18,0,4.13-0.8,5.85-2.4
			c1.72-1.6,2.84-3.66,3.35-6.18H156.98z"/>
		<path class="st0" d="M162.01,102.75c0-2.07,0.4-4.06,1.2-5.96c0.8-1.9,1.97-3.65,3.5-5.24c1.64-1.65,3.37-2.88,5.21-3.69
			c1.84-0.8,3.84-1.2,6.02-1.2c2.19,0,4.21,0.4,6.04,1.2c1.84,0.8,3.58,2.03,5.21,3.69c1.54,1.59,2.72,3.34,3.53,5.25
			c0.81,1.91,1.22,3.89,1.22,5.95c0,2.1-0.41,4.11-1.22,6.03c-0.81,1.92-1.99,3.66-3.53,5.24c-1.59,1.64-3.31,2.86-5.17,3.65
			c-1.85,0.8-3.88,1.19-6.09,1.19c-2.19,0-4.21-0.4-6.05-1.19c-1.84-0.8-3.57-2.01-5.19-3.65c-1.53-1.58-2.69-3.33-3.5-5.25
			C162.41,106.84,162.01,104.84,162.01,102.75z M171.23,102.75c0,3.96,0.07,6.68,0.2,8.17c0.13,1.49,0.37,2.6,0.71,3.33
			c0.49,1.13,1.19,1.94,2.11,2.43c0.91,0.49,2.14,0.74,3.7,0.74c1.57,0,2.82-0.25,3.72-0.74c0.91-0.49,1.61-1.31,2.11-2.43
			c0.35-0.79,0.6-1.97,0.74-3.55c0.14-1.58,0.21-4.23,0.21-7.95c0-3.71-0.07-6.35-0.21-7.93c-0.14-1.58-0.39-2.76-0.74-3.55
			c-0.49-1.13-1.2-1.94-2.11-2.43c-0.91-0.49-2.15-0.74-3.72-0.74c-1.56,0-2.79,0.25-3.7,0.74c-0.91,0.49-1.61,1.31-2.11,2.43
			c-0.34,0.73-0.58,1.84-0.71,3.33C171.3,96.1,171.23,98.81,171.23,102.75z"/>
		<path class="st0" d="M198.61,118.51v-9.06h1.81c0.79,2.63,1.96,4.61,3.51,5.96c1.55,1.34,3.46,2.02,5.71,2.02
			c2.02,0,3.7-0.54,5.03-1.62c1.33-1.08,1.99-2.46,1.99-4.13c0-0.9-0.16-1.63-0.47-2.21c-0.32-0.58-0.85-1.12-1.61-1.61
			c-0.87-0.57-2.57-1.15-5.12-1.74c-0.94-0.22-1.66-0.39-2.16-0.51c-2.98-0.76-5.15-1.87-6.5-3.34c-1.35-1.47-2.03-3.44-2.03-5.91
			c0-2.89,0.9-5.23,2.7-7.01c1.8-1.78,4.15-2.68,7.06-2.68c1.19,0,2.3,0.17,3.33,0.5c1.03,0.33,2,0.83,2.91,1.49l1.69-1.37h1.48
			l0.19,8.16h-1.55c-0.6-2.39-1.61-4.22-3.01-5.47c-1.41-1.25-3.16-1.88-5.26-1.88c-1.75,0-3.18,0.43-4.3,1.28
			c-1.12,0.85-1.68,1.92-1.68,3.22c0,1.95,2.06,3.38,6.19,4.29c0.56,0.12,0.98,0.22,1.28,0.28c3.85,0.9,6.55,2.17,8.1,3.81
			c1.55,1.65,2.33,3.98,2.33,7.01c0,3.12-0.99,5.71-2.98,7.78c-1.99,2.06-4.49,3.09-7.5,3.09c-1.53,0-2.87-0.17-4.03-0.52
			c-1.16-0.35-2.24-0.9-3.25-1.66l-2.13,1.83H198.61z"/>
		<path class="st0" d="M222.34,118.14v-1.53h1.9c0.51,0,0.93-0.17,1.27-0.51c0.34-0.34,0.69-0.96,1.04-1.85l10.59-27.58h1.85
			l11.59,29.95h2.74v1.53h-14.95v-1.53h3.75l-2.71-7.21h-9.39l-2.04,5.26c-0.05,0.09-0.08,0.24-0.1,0.43
			c-0.02,0.19-0.04,0.42-0.04,0.68s0.12,0.47,0.36,0.61c0.24,0.15,0.58,0.22,1.01,0.22h2.76v1.53H222.34z M230.55,107.9h8.37
			l-4.08-10.82L230.55,107.9z"/>
		<path class="st0" d="M255,118.14v-1.53h3.76V88.7h-3.22v-1.41h25.73l0.09,8.11h-1.55c-1.05-2.63-2.12-4.4-3.2-5.32
			c-1.08-0.92-2.66-1.38-4.73-1.38h-5.33v12.68c0.12,0.02,0.27,0.03,0.43,0.04c0.16,0.01,0.38,0.01,0.66,0.01
			c1.68,0,2.96-0.44,3.82-1.33c0.87-0.89,1.43-2.33,1.69-4.32h1.55v13.17h-1.55c-0.17-2.13-0.7-3.66-1.58-4.59
			c-0.88-0.93-2.26-1.39-4.13-1.39h-0.9v13.65h5.17c2.55,0,4.54-0.67,5.98-2.02c1.44-1.34,2.56-3.59,3.38-6.75h1.46l-0.32,10.29H255
			z"/>
		<path class="st0" d="M300.97,118.14v-4.27l8.53-6.65c2.33-1.81,4.03-3.62,5.1-5.45c1.07-1.82,1.6-3.83,1.6-6
			c0-2.32-0.56-4.12-1.67-5.41c-1.11-1.29-2.67-1.94-4.68-1.94c-1.34,0-2.58,0.38-3.7,1.15c-1.12,0.76-1.68,1.47-1.68,2.12
			c0,0.2,0.07,0.35,0.22,0.44c0.15,0.09,0.37,0.14,0.68,0.14h0.3c1.24,0,2.21,0.3,2.92,0.89c0.71,0.6,1.07,1.42,1.07,2.47
			c0,1.02-0.31,1.84-0.93,2.46c-0.62,0.62-1.44,0.93-2.46,0.93c-1.27,0-2.29-0.43-3.06-1.3c-0.77-0.87-1.16-2-1.16-3.41
			c0-2.24,1.04-4.1,3.12-5.57c2.08-1.48,4.74-2.21,7.99-2.21c3.41,0,6.1,0.73,8.07,2.19c1.96,1.46,2.94,3.45,2.94,5.97
			c0,2.01-0.73,3.93-2.2,5.77c-1.47,1.84-3.85,3.79-7.14,5.86l-8.6,5.35v0.35h13.63c0.87,0,1.47-0.12,1.81-0.36
			c0.34-0.24,0.54-0.68,0.6-1.31l0.3-2.71h1.51l-0.46,10.5H300.97z"/>
		<path class="st0" d="M329.73,102.61c0-2.26,0.29-4.35,0.88-6.29c0.59-1.94,1.43-3.62,2.53-5.04c1.24-1.58,2.61-2.76,4.11-3.56
			c1.51-0.8,3.14-1.19,4.9-1.19c1.75,0,3.38,0.41,4.89,1.23c1.51,0.82,2.88,2.03,4.1,3.62c1.14,1.48,2.01,3.2,2.61,5.15
			c0.6,1.95,0.89,4.04,0.89,6.28c0,2.2-0.31,4.21-0.92,6.04c-0.61,1.83-1.54,3.54-2.79,5.13c-1.22,1.55-2.58,2.73-4.08,3.56
			c-1.5,0.83-3.07,1.24-4.71,1.24c-1.59,0-3.14-0.4-4.66-1.19c-1.51-0.8-2.85-1.92-4.01-3.37c-1.19-1.5-2.11-3.26-2.77-5.29
			C330.06,106.89,329.73,104.79,329.73,102.61z M342.16,87.94c-0.99,0-1.78,0.2-2.39,0.59c-0.6,0.39-1.02,0.99-1.25,1.8
			c-0.26,0.85-0.45,2.18-0.56,3.98c-0.11,1.8-0.16,5.05-0.16,9.75v1.14c0,5.55,0.3,8.96,0.9,10.23c0.6,1.27,1.75,1.91,3.45,1.91
			c1.73,0,2.9-0.66,3.51-1.97c0.61-1.31,0.92-4.91,0.92-10.8v-0.6c0-3.35-0.02-6.02-0.07-8.01c-0.05-1.99-0.12-3.29-0.21-3.91
			c-0.25-1.47-0.69-2.52-1.33-3.15C344.33,88.26,343.4,87.94,342.16,87.94z"/>
		<path class="st0" d="M358.32,118.14v-4.27l8.53-6.65c2.33-1.81,4.03-3.62,5.1-5.45c1.07-1.82,1.6-3.83,1.6-6
			c0-2.32-0.56-4.12-1.67-5.41c-1.11-1.29-2.67-1.94-4.68-1.94c-1.34,0-2.58,0.38-3.7,1.15c-1.12,0.76-1.68,1.47-1.68,2.12
			c0,0.2,0.07,0.35,0.22,0.44c0.15,0.09,0.37,0.14,0.68,0.14h0.3c1.24,0,2.21,0.3,2.92,0.89c0.71,0.6,1.07,1.42,1.07,2.47
			c0,1.02-0.31,1.84-0.93,2.46c-0.62,0.62-1.44,0.93-2.46,0.93c-1.27,0-2.29-0.43-3.06-1.3c-0.77-0.87-1.16-2-1.16-3.41
			c0-2.24,1.04-4.1,3.12-5.57c2.08-1.48,4.74-2.21,7.99-2.21c3.41,0,6.1,0.73,8.07,2.19c1.96,1.46,2.94,3.45,2.94,5.97
			c0,2.01-0.73,3.93-2.2,5.77c-1.47,1.84-3.85,3.79-7.14,5.86l-8.6,5.35v0.35h13.63c0.87,0,1.47-0.12,1.81-0.36
			c0.34-0.24,0.54-0.68,0.6-1.31l0.3-2.71h1.51l-0.46,10.5H358.32z"/>
		<path class="st0" d="M387.08,102.61c0-2.26,0.29-4.35,0.88-6.29c0.59-1.94,1.43-3.62,2.53-5.04c1.24-1.58,2.61-2.76,4.11-3.56
			c1.51-0.8,3.14-1.19,4.9-1.19c1.75,0,3.38,0.41,4.89,1.23c1.51,0.82,2.88,2.03,4.1,3.62c1.14,1.48,2.01,3.2,2.61,5.15
			c0.59,1.95,0.89,4.04,0.89,6.28c0,2.2-0.31,4.21-0.92,6.04c-0.61,1.83-1.54,3.54-2.79,5.13c-1.22,1.55-2.58,2.73-4.08,3.56
			c-1.5,0.83-3.07,1.24-4.71,1.24c-1.59,0-3.14-0.4-4.66-1.19c-1.51-0.8-2.85-1.92-4.01-3.37c-1.19-1.5-2.11-3.26-2.77-5.29
			C387.41,106.89,387.08,104.79,387.08,102.61z M399.51,87.94c-0.99,0-1.78,0.2-2.39,0.59c-0.6,0.39-1.02,0.99-1.25,1.8
			c-0.26,0.85-0.45,2.18-0.56,3.98c-0.11,1.8-0.16,5.05-0.16,9.75v1.14c0,5.55,0.3,8.96,0.9,10.23c0.6,1.27,1.75,1.91,3.45,1.91
			c1.73,0,2.9-0.66,3.51-1.97c0.61-1.31,0.92-4.91,0.92-10.8v-0.6c0-3.35-0.02-6.02-0.07-8.01c-0.05-1.99-0.12-3.29-0.21-3.91
			c-0.25-1.47-0.69-2.52-1.33-3.15C401.68,88.26,400.74,87.94,399.51,87.94z"/>
	</g>
</g>
<linearGradient id="SVGID_1_" gradientUnits="userSpaceOnUse" x1="91.1014" y1="121.4196" x2="91.1014" y2="121.4196">
	<stop  offset="0" style="stop-color:#BA225B"/>
	<stop  offset="0.995" style="stop-color:#321E41"/>
</linearGradient>
<polygon class="st1" points="91.1,121.42 91.1,121.42 91.1,121.42 "/>
<g>
	
		<linearGradient id="SVGID_2_" gradientUnits="userSpaceOnUse" x1="-53.0666" y1="76.1584" x2="-53.0666" y2="13.9613" gradientTransform="matrix(0.5904 -0.0592 0.0827 0.8255 110.8415 124.5911)">
		<stop  offset="0" style="stop-color:#BA225B"/>
		<stop  offset="0.5" style="stop-color:#862461"/>
		<stop  offset="1" style="stop-color:#862461"/>
	</linearGradient>
	<path class="st2" d="M88.81,138.44c0,0-14.95,22.6,3.13,51.03c0.18,0.28-0.04,0.68-0.28,0.48c-3.12-2.64-8.01-7.72-11.87-12.48
		C68.06,162.98,80.92,145.95,88.81,138.44z"/>
	
		<linearGradient id="SVGID_3_" gradientUnits="userSpaceOnUse" x1="-52.7519" y1="76.1584" x2="-52.7519" y2="13.9613" gradientTransform="matrix(0.5904 -0.0592 0.0827 0.8255 110.8415 124.5911)">
		<stop  offset="0" style="stop-color:#4674B7"/>
		<stop  offset="0.5" style="stop-color:#61ABEB"/>
		<stop  offset="1" style="stop-color:#86D3DD"/>
	</linearGradient>
	<path class="st3" d="M88.81,138.44c0,0-14.95,22.6,3.13,51.03c0.18,0.28-0.04,0.68-0.28,0.48c-3.12-2.64-10.38-9.42-13.11-14.8
		C69.55,157.33,80.92,145.95,88.81,138.44z"/>
	
		<linearGradient id="SVGID_4_" gradientUnits="userSpaceOnUse" x1="-78.1053" y1="6.9719" x2="31.5762" y2="6.9719" gradientTransform="matrix(0.5904 -0.0592 0.0827 0.8255 110.8415 124.5911)">
		<stop  offset="0" style="stop-color:#4674B7"/>
		<stop  offset="0.5" style="stop-color:#61ABEB"/>
		<stop  offset="1" style="stop-color:#86D3DD"/>
	</linearGradient>
	<path class="st4" d="M127.37,104.54c0.97-12.71-11.22-18.62-11.22-18.62c6.71,8.19-17.19,6.86-37.47,26.73
		c-14.39,14.1-12.16,34.44-12.16,34.44l0.03,0.04c1.42,18.39,13.26,30.34,13.26,30.34C64.68,129.69,125.52,127.95,127.37,104.54z"/>
	
		<linearGradient id="SVGID_5_" gradientUnits="userSpaceOnUse" x1="-78.1053" y1="6.9719" x2="25.9751" y2="6.9719" gradientTransform="matrix(0.5904 -0.0592 0.0827 0.8255 110.8415 124.5911)">
		<stop  offset="0" style="stop-color:#DBE6BC"/>
		<stop  offset="1" style="stop-color:#86D3DD"/>
	</linearGradient>
	<path class="st5" d="M117.92,104.34c7.81-4.53,5.06-11.57,4.78-12.23c-3.1-4.4-6.55-6.18-6.55-6.18
		c6.71,8.19-17.19,6.86-37.47,26.73c-14.39,14.1-12.16,34.44-12.16,34.44l0.03,0.04c1.42,18.39,13.26,30.34,13.26,30.34
		C45.84,133.72,109.46,109.25,117.92,104.34z"/>
	<linearGradient id="SVGID_6_" gradientUnits="userSpaceOnUse" x1="110.4635" y1="113.6095" x2="46.0937" y2="98.0196">
		<stop  offset="0" style="stop-color:#CC2E78"/>
		<stop  offset="0.5" style="stop-color:#BA225B"/>
		<stop  offset="1" style="stop-color:#862461"/>
	</linearGradient>
	<path class="st6" d="M82.91,81.16c-1.87-1.02-3.7-2.16-5.46-3.46c-5.08-3.73-9.56-8.68-12.55-15.25c-0.07,0.02-0.14,0.05-0.2,0.08
		c-0.02,0.01-0.03,0.01-0.05,0.02c-1.75,0.62-3.48,1.45-5.16,2.54c-24.02,15.58,3.89,77.24,3.89,77.24
		c0.51-16.2,8.52-27.86,18.1-36.06c0.14-0.12,0.29-0.24,0.43-0.36c14.92-12.53,33.39-16.8,33.39-16.8S97.99,89.37,82.91,81.16z"/>
	<linearGradient id="SVGID_7_" gradientUnits="userSpaceOnUse" x1="49.7498" y1="69.845" x2="115.3605" y2="69.845">
		<stop  offset="0" style="stop-color:#BA225B"/>
		<stop  offset="0.995" style="stop-color:#321E41"/>
	</linearGradient>
	<path class="st7" d="M77.46,77.71c4.29-0.98,10.73-1.49,19.21,0.44l-28.26-16.6c-1.18,0.21-2.34,0.51-3.5,0.91
		C67.9,69.03,72.38,73.97,77.46,77.71z"/>
	<linearGradient id="SVGID_8_" gradientUnits="userSpaceOnUse" x1="128.2033" y1="81.7991" x2="70.773" y2="67.8899">
		<stop  offset="0" style="stop-color:#BA225B"/>
		<stop  offset="0.1602" style="stop-color:#B6225A"/>
		<stop  offset="0.3329" style="stop-color:#A92158"/>
		<stop  offset="0.5114" style="stop-color:#932154"/>
		<stop  offset="0.6939" style="stop-color:#75204E"/>
		<stop  offset="0.8777" style="stop-color:#4F1F46"/>
		<stop  offset="0.995" style="stop-color:#321E41"/>
	</linearGradient>
	<path class="st8" d="M68.41,61.54c-1.18,0.21-2.34,0.51-3.5,0.91c2.99,6.57,7.47,11.52,12.55,15.25
		c4.29-0.98,10.73-1.49,19.21,0.44c4.77,1.09,10.18,2.95,16.21,5.94C106.04,75.03,86.28,58.29,68.41,61.54z"/>
	<linearGradient id="SVGID_9_" gradientUnits="userSpaceOnUse" x1="49.7498" y1="79.4344" x2="115.3233" y2="79.4344">
		<stop  offset="0" style="stop-color:#BA225B"/>
		<stop  offset="0.995" style="stop-color:#321E41"/>
	</linearGradient>
	<path class="st9" d="M71.18,80.02l11.73,1.14c-1.87-1.02-3.7-2.16-5.46-3.46C73.32,78.65,71.18,80.02,71.18,80.02z"/>
	<linearGradient id="SVGID_10_" gradientUnits="userSpaceOnUse" x1="49.7498" y1="102.4411" x2="282.8133" y2="102.4411">
		<stop  offset="0" style="stop-color:#CC2E78"/>
		<stop  offset="0.5" style="stop-color:#BA225B"/>
		<stop  offset="1" style="stop-color:#862461"/>
	</linearGradient>
	<path class="st10" d="M64.66,62.55c-1.75,0.62-3.48,1.45-5.16,2.54c-24.02,15.58,3.89,77.24,3.89,77.24
		c0.51-16.2,8.52-27.86,18.1-36.06l-0.58-0.29C49.96,88.29,63.9,63.84,64.66,62.55z"/>
	<linearGradient id="SVGID_11_" gradientUnits="userSpaceOnUse" x1="91.3247" y1="68.9752" x2="63.6368" y2="62.2694">
		<stop  offset="0.7006" style="stop-color:#BA225B"/>
		<stop  offset="0.995" style="stop-color:#321E41"/>
	</linearGradient>
	<path class="st11" d="M64.69,62.49c0,0-0.01,0.02-0.03,0.06c0.02-0.01,0.03-0.01,0.05-0.02L64.69,62.49z"/>
	<linearGradient id="SVGID_12_" gradientUnits="userSpaceOnUse" x1="49.7499" y1="84.4013" x2="282.8122" y2="84.4013">
		<stop  offset="0" style="stop-color:#BA225B"/>
		<stop  offset="0.995" style="stop-color:#321E41"/>
	</linearGradient>
	<path class="st12" d="M64.71,62.53c-0.02,0.01-0.03,0.01-0.05,0.02c-0.76,1.29-14.7,25.74,16.26,43.43l0.58,0.29
		c0.14-0.12,0.29-0.24,0.43-0.36L64.71,62.53z"/>
	<linearGradient id="SVGID_13_" gradientUnits="userSpaceOnUse" x1="114.9555" y1="94.4746" x2="59.1129" y2="80.9499">
		<stop  offset="0" style="stop-color:#CC2E78;stop-opacity:0"/>
		<stop  offset="0.109" style="stop-color:#C12C74;stop-opacity:0.109"/>
		<stop  offset="0.4787" style="stop-color:#A1286A;stop-opacity:0.4787"/>
		<stop  offset="0.789" style="stop-color:#8D2563;stop-opacity:0.789"/>
		<stop  offset="1" style="stop-color:#862461"/>
	</linearGradient>
	<path class="st13" d="M82.91,81.16c-1.87-1.02-3.7-2.16-5.46-3.46c-5.08-3.73-9.56-8.68-12.55-15.25c-0.07,0.02-0.14,0.05-0.2,0.08
		c-0.02,0.01-0.03,0.01-0.05,0.02c-0.76,1.29-14.7,25.74,16.26,43.43l0.58,0.29c0.14-0.12,0.29-0.24,0.43-0.36
		c14.92-12.53,33.39-16.8,33.39-16.8S97.99,89.37,82.91,81.16z"/>
	<linearGradient id="SVGID_14_" gradientUnits="userSpaceOnUse" x1="76.3188" y1="121.7337" x2="77.1346" y2="121.7337">
		<stop  offset="0" style="stop-color:#BA225B"/>
		<stop  offset="0.995" style="stop-color:#321E41"/>
	</linearGradient>
	<polygon class="st14" points="76.73,121.73 76.73,121.73 76.73,121.73 	"/>
	<linearGradient id="SVGID_15_" gradientUnits="userSpaceOnUse" x1="4" y1="34.8776" x2="71.7708" y2="34.8776">
		<stop  offset="0" style="stop-color:#292760"/>
		<stop  offset="0.5" style="stop-color:#5B318C"/>
		<stop  offset="0.6777" style="stop-color:#593089"/>
		<stop  offset="0.8074" style="stop-color:#522E80"/>
		<stop  offset="0.9215" style="stop-color:#462B70"/>
		<stop  offset="1" style="stop-color:#3A2760"/>
	</linearGradient>
	<path class="st15" d="M55.4,21.11c4.37,3.3,10.43,9.14,13.78,21.1c2.04-6.59,5.19-18.82-1.3-27.91c0,0-16.73-5.77-33.13-6.73
		c-1.41-0.08-2.83-0.13-4.23-0.14C18.35,7.38,7.19,10.56,4.28,21.44c-1.61,7.49,3.89,16.23,14.28,22.72
		c-5.19-7.79-6.04-16.87-2.6-22.72c0,0-4.18,13.29,18.85,27.68c1.69,1.06,3.54,2.12,5.54,3.19c6.36,3.38,14.32,6.78,24.3,10.03
		C64.64,62.33,23.69,42.65,55.4,21.11z"/>
	<linearGradient id="SVGID_16_" gradientUnits="userSpaceOnUse" x1="46.7269" y1="8.7669" x2="44.9107" y2="51.3175">
		<stop  offset="0" style="stop-color:#7E2B8A;stop-opacity:0"/>
		<stop  offset="0.1047" style="stop-color:#82308B;stop-opacity:0.1047"/>
		<stop  offset="0.4182" style="stop-color:#89388C;stop-opacity:0.4182"/>
		<stop  offset="1" style="stop-color:#8B3A8C"/>
	</linearGradient>
	<path class="st16" d="M55.4,21.11c3.32-2.26,7.44-4.53,12.48-6.81c0,0-16.73-5.77-33.13-6.73c-1.41-0.08-2.83-0.13-4.23-0.14
		c-12.2,18.54-2.75,33.93,4.28,41.69c1.69,1.06,3.54,2.12,5.54,3.19c6.36,3.38,14.32,6.78,24.3,10.03
		C64.64,62.33,23.69,42.65,55.4,21.11z"/>
	<linearGradient id="SVGID_17_" gradientUnits="userSpaceOnUse" x1="72.8136" y1="39.7729" x2="63.9919" y2="22.1296">
		<stop  offset="0" style="stop-color:#7E2B8A;stop-opacity:0"/>
		<stop  offset="0.2148" style="stop-color:#7A2B88;stop-opacity:0.2148"/>
		<stop  offset="0.4186" style="stop-color:#6F2A80;stop-opacity:0.4186"/>
		<stop  offset="0.6181" style="stop-color:#5C2A74;stop-opacity:0.6181"/>
		<stop  offset="0.8136" style="stop-color:#412862;stop-opacity:0.8136"/>
		<stop  offset="1" style="stop-color:#20274D"/>
	</linearGradient>
	<path class="st17" d="M67.89,14.3c-5.05,2.28-9.16,4.55-12.48,6.81c4.37,3.3,10.43,9.14,13.78,21.1
		C71.22,35.62,74.38,23.38,67.89,14.3"/>
	<linearGradient id="SVGID_18_" gradientUnits="userSpaceOnUse" x1="30.4103" y1="27.724" x2="-32.5888" y2="12.4661">
		<stop  offset="0" style="stop-color:#20274D"/>
		<stop  offset="0.1864" style="stop-color:#412862;stop-opacity:0.8136"/>
		<stop  offset="0.3819" style="stop-color:#5C2A74;stop-opacity:0.6181"/>
		<stop  offset="0.5814" style="stop-color:#6F2A80;stop-opacity:0.4186"/>
		<stop  offset="0.7852" style="stop-color:#7A2B88;stop-opacity:0.2148"/>
		<stop  offset="1" style="stop-color:#7E2B8A;stop-opacity:0"/>
	</linearGradient>
	<path class="st18" d="M30.53,7.43C18.35,7.38,7.19,10.56,4.28,21.44c-1.61,7.49,3.89,16.23,14.28,22.72
		c-5.19-7.79-6.04-16.87-2.6-22.72c0,0-4.18,13.29,18.85,27.68C27.78,41.36,18.32,25.96,30.53,7.43z"/>
</g>
</svg>
