<?xml version="1.0" encoding="UTF-8" standalone="no"?>
<!-- Generator: Adobe Illustrator 23.1.1, SVG Export Plug-In . SVG Version: 6.00 Build 0)  -->

<svg
   xmlns:dc="http://purl.org/dc/elements/1.1/"
   xmlns:cc="http://creativecommons.org/ns#"
   xmlns:rdf="http://www.w3.org/1999/02/22-rdf-syntax-ns#"
   xmlns:svg="http://www.w3.org/2000/svg"
   xmlns="http://www.w3.org/2000/svg"
   xmlns:sodipodi="http://sodipodi.sourceforge.net/DTD/sodipodi-0.dtd"
   xmlns:inkscape="http://www.inkscape.org/namespaces/inkscape"
   version="1.1"
   id="Capa_1"
   x="0px"
   y="0px"
   viewBox="0 0 418 249"
   style="enable-background:new 0 0 418 249;"
   xml:space="preserve"
   sodipodi:docname="logo_negro_3.svg"
   inkscape:version="0.92.3 (2405546, 2018-03-11)"><metadata
   id="metadata1272"><rdf:RDF><cc:Work
       rdf:about=""><dc:format>image/svg+xml</dc:format><dc:type
         rdf:resource="http://purl.org/dc/dcmitype/StillImage" /><dc:title></dc:title></cc:Work></rdf:RDF></metadata><defs
   id="defs1270" /><sodipodi:namedview
   pagecolor="#ffffff"
   bordercolor="#666666"
   borderopacity="1"
   objecttolerance="10"
   gridtolerance="10"
   guidetolerance="10"
   inkscape:pageopacity="0"
   inkscape:pageshadow="2"
   inkscape:window-width="1366"
   inkscape:window-height="712"
   id="namedview1268"
   showgrid="false"
   inkscape:zoom="1.9258373"
   inkscape:cx="307.39876"
   inkscape:cy="124.5"
   inkscape:window-x="0"
   inkscape:window-y="30"
   inkscape:window-maximized="1"
   inkscape:current-layer="Capa_1" />
<style
   type="text/css"
   id="style815">
	.st0{fill:#6AA1ED;}
	.st1{fill:url(#SVGID_1_);}
	.st2{fill:url(#SVGID_2_);}
	.st3{fill:url(#SVGID_3_);}
	.st4{fill:url(#SVGID_4_);}
	.st5{fill:url(#SVGID_5_);}
	.st6{fill:url(#SVGID_6_);}
	.st7{fill:url(#SVGID_7_);}
	.st8{fill:url(#SVGID_8_);}
	.st9{fill:url(#SVGID_9_);}
	.st10{fill:url(#SVGID_10_);}
	.st11{fill:url(#SVGID_11_);}
	.st12{fill:url(#SVGID_12_);}
	.st13{fill:url(#SVGID_13_);}
	.st14{fill:url(#SVGID_14_);}
	.st15{fill:url(#SVGID_15_);}
	.st16{opacity:0.43;fill:url(#SVGID_16_);enable-background:new    ;}
	.st17{fill:url(#SVGID_17_);}
	.st18{fill:url(#SVGID_18_);}
	.st19{stroke:#4B4B4A;stroke-width:0.5;stroke-miterlimit:10;}
</style>
<rect
   style="opacity:1;fill:#ffffff;fill-opacity:0.70980394;stroke:#ffffff;stroke-width:0.301;stroke-miterlimit:4.25;stroke-dasharray:none;stroke-opacity:1"
   id="rect1274"
   width="301.68695"
   height="68.022362"
   x="110.60124"
   y="176.82361" /><g
   id="g895">
	<g
   id="g857">
		<path
   d="M187.1,213.9c0-0.3,0.1-0.6,0.2-0.8c0.1-0.2,0.2-0.4,0.4-0.6c0.1-0.2,0.3-0.4,0.5-0.5c0.2-0.2,0.4-0.3,0.7-0.5    c0.2-0.2,0.5-0.3,0.6-0.4c0.2-0.1,0.3-0.2,0.4-0.3s0.1-0.2,0.2-0.3s0.1-0.2,0.1-0.3c0-0.3-0.1-0.5-0.3-0.6    c-0.2-0.2-0.5-0.2-0.9-0.2c-0.3,0-0.6,0.1-0.8,0.1c-0.2,0.1-0.4,0.2-0.6,0.4l-0.3-0.4c0.1-0.1,0.2-0.2,0.3-0.2s0.2-0.1,0.4-0.2    s0.3-0.1,0.4-0.1c0.2,0,0.3-0.1,0.5-0.1c0.2,0,0.5,0,0.7,0.1c0.2,0.1,0.4,0.1,0.5,0.2s0.3,0.2,0.4,0.4c0.1,0.2,0.1,0.4,0.1,0.6    c0,0.2,0,0.4-0.1,0.5s-0.1,0.3-0.2,0.4s-0.2,0.2-0.4,0.4s-0.4,0.3-0.6,0.4c-0.3,0.2-0.5,0.3-0.7,0.5c-0.2,0.1-0.3,0.3-0.4,0.4    s-0.2,0.2-0.2,0.4c-0.1,0.1-0.1,0.2-0.1,0.4h2.9v0.6L187.1,213.9L187.1,213.9z"
   id="path817" />
		<path
   d="M195.6,211.3c0,0.4-0.1,0.8-0.1,1.1c-0.1,0.3-0.2,0.6-0.4,0.8c-0.2,0.2-0.4,0.4-0.6,0.5c-0.2,0.1-0.5,0.2-0.8,0.2    c-0.3,0-0.5-0.1-0.8-0.2s-0.4-0.3-0.6-0.5c-0.2-0.2-0.3-0.5-0.4-0.8c-0.1-0.3-0.1-0.7-0.1-1.1s0.1-0.8,0.1-1.2s0.2-0.6,0.4-0.8    c0.2-0.2,0.4-0.4,0.6-0.5c0.2-0.1,0.5-0.2,0.8-0.2c0.3,0,0.5,0.1,0.8,0.2s0.4,0.3,0.6,0.5c0.2,0.2,0.3,0.5,0.4,0.8    C195.5,210.5,195.6,210.9,195.6,211.3z M195,211.3c0-0.3,0-0.6-0.1-0.9s-0.1-0.5-0.3-0.7c-0.1-0.2-0.2-0.3-0.4-0.4    c-0.2-0.1-0.4-0.1-0.6-0.1c-0.2,0-0.4,0.1-0.6,0.1c-0.2,0.1-0.3,0.2-0.4,0.4c-0.1,0.2-0.2,0.4-0.3,0.7c-0.1,0.3-0.1,0.6-0.1,0.9    s0,0.6,0.1,0.9s0.1,0.5,0.3,0.7c0.1,0.2,0.2,0.3,0.4,0.4c0.2,0.1,0.4,0.1,0.6,0.1c0.2,0,0.4-0.1,0.6-0.1c0.2-0.1,0.3-0.2,0.4-0.4    c0.1-0.2,0.2-0.4,0.3-0.7C194.9,211.9,195,211.6,195,211.3z"
   id="path819" />
		<path
   d="M196.4,213.9c0-0.3,0.1-0.6,0.2-0.8c0.1-0.2,0.2-0.4,0.4-0.6c0.1-0.2,0.3-0.4,0.5-0.5c0.2-0.2,0.4-0.3,0.7-0.5    c0.2-0.2,0.5-0.3,0.6-0.4c0.2-0.1,0.3-0.2,0.4-0.3s0.1-0.2,0.2-0.3s0.1-0.2,0.1-0.3c0-0.3-0.1-0.5-0.3-0.6    c-0.2-0.2-0.5-0.2-0.9-0.2c-0.3,0-0.6,0.1-0.8,0.1c-0.2,0.1-0.4,0.2-0.6,0.4l-0.3-0.4c0.1-0.1,0.2-0.2,0.3-0.2s0.2-0.1,0.4-0.2    s0.3-0.1,0.4-0.1c0.2,0,0.3-0.1,0.5-0.1c0.2,0,0.5,0,0.7,0.1c0.2,0.1,0.4,0.1,0.5,0.2s0.3,0.2,0.4,0.4c0.1,0.2,0.1,0.4,0.1,0.6    c0,0.2,0,0.4-0.1,0.5s-0.1,0.3-0.2,0.4s-0.2,0.2-0.4,0.4s-0.4,0.3-0.6,0.4c-0.3,0.2-0.5,0.3-0.7,0.5c-0.2,0.1-0.3,0.3-0.4,0.4    s-0.2,0.2-0.2,0.4c-0.1,0.1-0.1,0.2-0.1,0.4h2.9v0.6L196.4,213.9L196.4,213.9z"
   id="path821" />
		<path
   d="M204.8,211.3c0,0.4-0.1,0.8-0.1,1.1c-0.1,0.3-0.2,0.6-0.4,0.8c-0.2,0.2-0.4,0.4-0.6,0.5c-0.2,0.1-0.5,0.2-0.8,0.2    c-0.3,0-0.5-0.1-0.8-0.2s-0.4-0.3-0.6-0.5c-0.2-0.2-0.3-0.5-0.4-0.8c-0.1-0.3-0.1-0.7-0.1-1.1s0.1-0.8,0.1-1.2s0.2-0.6,0.4-0.8    c0.2-0.2,0.4-0.4,0.6-0.5c0.2-0.1,0.5-0.2,0.8-0.2c0.3,0,0.5,0.1,0.8,0.2s0.4,0.3,0.6,0.5c0.2,0.2,0.3,0.5,0.4,0.8    C204.8,210.5,204.8,210.9,204.8,211.3z M204.2,211.3c0-0.3,0-0.6-0.1-0.9s-0.1-0.5-0.3-0.7c-0.1-0.2-0.2-0.3-0.4-0.4    c-0.2-0.1-0.4-0.1-0.6-0.1c-0.2,0-0.4,0.1-0.6,0.1c-0.2,0.1-0.3,0.2-0.4,0.4c-0.1,0.2-0.2,0.4-0.3,0.7c-0.1,0.3-0.1,0.6-0.1,0.9    s0,0.6,0.1,0.9s0.1,0.5,0.3,0.7c0.1,0.2,0.2,0.3,0.4,0.4c0.2,0.1,0.4,0.1,0.6,0.1c0.2,0,0.4-0.1,0.6-0.1c0.2-0.1,0.3-0.2,0.4-0.4    c0.1-0.2,0.2-0.4,0.3-0.7C204.2,211.9,204.2,211.6,204.2,211.3z"
   id="path823" />
		<path
   d="M206.6,211.2c0,0.1-0.1,0.2-0.1,0.3c-0.1,0.1-0.2,0.1-0.3,0.1c-0.1,0-0.2-0.1-0.3-0.1c-0.1-0.1-0.1-0.2-0.1-0.3    c0-0.1,0.1-0.2,0.1-0.3c0.1-0.1,0.2-0.1,0.3-0.1c0.1,0,0.2,0.1,0.3,0.1C206.6,210.9,206.6,211,206.6,211.2z"
   id="path825" />
		<path
   d="M212,212.2c0,0.5-0.2,0.9-0.5,1.2c-0.3,0.3-0.8,0.4-1.5,0.4h-2.5v-5.2h2.5c0.6,0,1.1,0.1,1.4,0.4c0.3,0.2,0.4,0.6,0.4,1    c0,0.3-0.1,0.5-0.2,0.6s-0.3,0.3-0.4,0.4c0.2,0.1,0.4,0.2,0.6,0.4C212,211.7,212,211.9,212,212.2z M210.5,210.2    c0-0.1,0-0.2-0.1-0.3c-0.1-0.1-0.2-0.1-0.4-0.1h-1.1v0.8h1.1c0.2,0,0.3,0,0.4-0.1C210.5,210.4,210.5,210.4,210.5,210.2z     M210.6,212.2c0-0.2,0-0.3-0.1-0.4c-0.1-0.1-0.2-0.1-0.4-0.1h-1.1v1h1.1c0.2,0,0.3-0.1,0.4-0.1    C210.6,212.5,210.6,212.4,210.6,212.2z"
   id="path827" />
		<path
   d="M214.9,213.9v-0.3c-0.1,0.1-0.2,0.2-0.4,0.2c-0.1,0.1-0.3,0.1-0.6,0.1c-0.4,0-0.8-0.1-1-0.4s-0.3-0.7-0.3-1.2V210h1.4v2.2    c0,0.2,0,0.4,0.1,0.5s0.2,0.1,0.3,0.1s0.2,0,0.3-0.1c0.1-0.1,0.1-0.2,0.1-0.5V210h1.4v3.9L214.9,213.9L214.9,213.9z"
   id="path829" />
		<path
   d="M220.5,212.1c0,0.1,0,0.1,0,0.1c0,0,0,0.1,0,0.1h-2.3c0,0.2,0.1,0.4,0.2,0.5c0.1,0.1,0.3,0.1,0.4,0.1c0.2,0,0.3,0,0.5-0.1    c0.1,0,0.3-0.1,0.5-0.2l0.5,0.9c-0.2,0.1-0.5,0.2-0.8,0.3c-0.3,0.1-0.5,0.1-0.9,0.1c-0.3,0-0.6-0.1-0.8-0.1    c-0.2-0.1-0.4-0.2-0.6-0.4c-0.1-0.2-0.3-0.4-0.4-0.6c-0.1-0.2-0.1-0.5-0.1-0.8c0-0.3,0-0.6,0.1-0.9c0.1-0.2,0.2-0.5,0.4-0.6    c0.2-0.2,0.4-0.3,0.6-0.4s0.5-0.1,0.7-0.1c0.5,0,1,0.2,1.3,0.5C220.4,210.8,220.5,211.3,220.5,212.1z M219.3,211.5    c0-0.2-0.1-0.4-0.2-0.4c-0.1-0.1-0.2-0.1-0.4-0.1c-0.3,0-0.5,0.2-0.5,0.6L219.3,211.5L219.3,211.5z"
   id="path831" />
		<path
   d="M223.5,213.9v-2.2c0-0.2,0-0.4-0.1-0.5s-0.2-0.1-0.3-0.1c-0.1,0-0.3,0-0.3,0.1c-0.1,0.1-0.1,0.2-0.1,0.5v2.2h-1.3V210h1.3    l0,0.3c0.1-0.1,0.3-0.2,0.4-0.2c0.1-0.1,0.3-0.1,0.6-0.1c0.4,0,0.8,0.1,1,0.4c0.2,0.3,0.3,0.7,0.3,1.2v2.4H223.5z"
   id="path833" />
		<path
   d="M229.2,211.9c0,0.3-0.1,0.6-0.1,0.9c-0.1,0.2-0.2,0.5-0.4,0.6s-0.4,0.3-0.6,0.4c-0.2,0.1-0.5,0.1-0.8,0.1s-0.5,0-0.8-0.1    c-0.2-0.1-0.4-0.2-0.6-0.4c-0.2-0.2-0.3-0.4-0.4-0.6c-0.1-0.2-0.1-0.6-0.1-0.9s0.1-0.6,0.1-0.9c0.1-0.2,0.2-0.5,0.4-0.6    s0.4-0.3,0.6-0.4c0.2-0.1,0.5-0.1,0.8-0.1s0.5,0,0.8,0.1c0.2,0.1,0.4,0.2,0.6,0.4c0.2,0.2,0.3,0.4,0.4,0.6    C229.1,211.3,229.2,211.6,229.2,211.9z M227.9,211.9c0-0.3,0-0.6-0.1-0.7c-0.1-0.1-0.2-0.2-0.4-0.2s-0.3,0.1-0.4,0.2    s-0.1,0.4-0.1,0.7c0,0.6,0.2,0.9,0.5,0.9C227.7,212.9,227.9,212.6,227.9,211.9z"
   id="path835" />
		<path
   d="M233,212.7c0,0.4-0.1,0.8-0.4,1s-0.7,0.3-1.2,0.3c-0.3,0-0.6,0-0.8-0.1c-0.3-0.1-0.5-0.1-0.8-0.2l0.3-1    c0.2,0.1,0.5,0.2,0.7,0.2s0.4,0.1,0.6,0.1c0.1,0,0.2,0,0.3,0c0.1,0,0.1-0.1,0.1-0.1s0-0.1-0.1-0.1c0,0-0.1-0.1-0.2-0.1    c-0.3-0.1-0.6-0.2-0.8-0.2s-0.4-0.2-0.5-0.3s-0.2-0.2-0.3-0.4s-0.1-0.3-0.1-0.5c0-0.4,0.1-0.7,0.4-0.9c0.3-0.2,0.7-0.3,1.2-0.3    c0.1,0,0.3,0,0.4,0c0.1,0,0.2,0,0.4,0.1s0.2,0.1,0.4,0.1s0.2,0.1,0.4,0.1l-0.3,1c-0.3-0.1-0.5-0.2-0.7-0.2s-0.4-0.1-0.6-0.1    c-0.1,0-0.2,0-0.3,0S231,211,231,211c0,0,0,0.1,0,0.1s0,0,0.1,0.1s0.1,0,0.1,0.1c0.1,0,0.1,0,0.2,0.1c0.3,0.1,0.5,0.1,0.7,0.2    c0.2,0.1,0.4,0.2,0.5,0.3c0.1,0.1,0.2,0.2,0.3,0.4C232.9,212.3,233,212.5,233,212.7z"
   id="path837" />
		<path
   d="M239.7,213.9l-0.3-0.9h-1.6l-0.3,0.9H236l1.9-5.2h1.5l1.9,5.2H239.7z M238.9,211.5c0-0.2-0.1-0.3-0.1-0.4    s-0.1-0.2-0.1-0.3c0-0.1-0.1-0.2-0.1-0.3s0-0.2-0.1-0.3c0,0.1,0,0.2-0.1,0.3s0,0.2-0.1,0.3c0,0.1-0.1,0.2-0.1,0.3    c0,0.1-0.1,0.3-0.1,0.4l-0.1,0.3h0.9L238.9,211.5z"
   id="path839" />
		<path
   d="M243.4,209c0,0.2-0.1,0.4-0.2,0.5c-0.1,0.1-0.3,0.2-0.6,0.2c-0.2,0-0.4-0.1-0.6-0.2s-0.2-0.3-0.2-0.5    c0-0.2,0.1-0.3,0.2-0.5c0.1-0.1,0.3-0.2,0.6-0.2c0.2,0,0.4,0.1,0.6,0.2C243.3,208.7,243.4,208.8,243.4,209z M241.9,213.9V210h1.3    v3.9H241.9z"
   id="path841" />
		<path
   d="M246.6,211.4c-0.1-0.1-0.2-0.2-0.3-0.2c-0.1-0.1-0.2-0.1-0.4-0.1c-0.2,0-0.3,0.1-0.4,0.1c-0.1,0.1-0.1,0.3-0.1,0.5v2.1    h-1.3V210h1.3v0.3c0.1-0.1,0.2-0.2,0.4-0.3c0.1-0.1,0.3-0.1,0.5-0.1c0.1,0,0.3,0,0.4,0c0.1,0,0.2,0.1,0.3,0.1L246.6,211.4z"
   id="path843" />
		<path
   d="M250.8,212.1c0,0.1,0,0.1,0,0.1c0,0,0,0.1,0,0.1h-2.3c0,0.2,0.1,0.4,0.2,0.5c0.1,0.1,0.3,0.1,0.4,0.1c0.2,0,0.3,0,0.5-0.1    c0.1,0,0.3-0.1,0.5-0.2l0.5,0.9c-0.2,0.1-0.5,0.2-0.8,0.3c-0.3,0.1-0.5,0.1-0.9,0.1c-0.3,0-0.6-0.1-0.8-0.1    c-0.2-0.1-0.4-0.2-0.6-0.4c-0.1-0.2-0.3-0.4-0.4-0.6c-0.1-0.2-0.1-0.5-0.1-0.8c0-0.3,0-0.6,0.1-0.9c0.1-0.2,0.2-0.5,0.4-0.6    c0.2-0.2,0.4-0.3,0.6-0.4s0.5-0.1,0.7-0.1c0.5,0,1,0.2,1.3,0.5C250.6,210.8,250.8,211.3,250.8,212.1z M249.6,211.5    c0-0.2-0.1-0.4-0.2-0.4c-0.1-0.1-0.2-0.1-0.4-0.1c-0.3,0-0.5,0.2-0.5,0.6L249.6,211.5L249.6,211.5z"
   id="path845" />
		<path
   d="M254.5,212.7c0,0.4-0.1,0.8-0.4,1s-0.7,0.3-1.2,0.3c-0.3,0-0.6,0-0.8-0.1c-0.3-0.1-0.5-0.1-0.8-0.2l0.3-1    c0.2,0.1,0.5,0.2,0.7,0.2s0.4,0.1,0.6,0.1c0.1,0,0.2,0,0.3,0c0.1,0,0.1-0.1,0.1-0.1s0-0.1-0.1-0.1c0,0-0.1-0.1-0.2-0.1    c-0.3-0.1-0.6-0.2-0.8-0.2s-0.4-0.2-0.5-0.3s-0.2-0.2-0.3-0.4s-0.1-0.3-0.1-0.5c0-0.4,0.1-0.7,0.4-0.9c0.3-0.2,0.7-0.3,1.2-0.3    c0.1,0,0.3,0,0.4,0c0.1,0,0.2,0,0.4,0.1s0.2,0.1,0.4,0.1s0.2,0.1,0.4,0.1l-0.3,1c-0.3-0.1-0.5-0.2-0.7-0.2s-0.4-0.1-0.6-0.1    c-0.1,0-0.2,0-0.3,0s-0.1,0.1-0.1,0.1c0,0,0,0.1,0,0.1s0,0,0.1,0.1s0.1,0,0.1,0.1c0.1,0,0.1,0,0.2,0.1c0.3,0.1,0.5,0.1,0.7,0.2    c0.2,0.1,0.4,0.2,0.5,0.3c0.1,0.1,0.2,0.2,0.3,0.4C254.5,212.3,254.5,212.5,254.5,212.7z"
   id="path847" />
		<path
   d="M256.2,211.2c0,0.1,0,0.2-0.1,0.3c-0.1,0.1-0.2,0.1-0.3,0.1c-0.1,0-0.2-0.1-0.3-0.1s-0.1-0.2-0.1-0.3    c0-0.1,0.1-0.2,0.1-0.3c0.1-0.1,0.2-0.1,0.3-0.1c0.1,0,0.2,0.1,0.3,0.1C256.2,210.9,256.2,211,256.2,211.2z"
   id="path849" />
		<path
   d="M260.2,213.9l-0.5-1.3h-2.2l-0.5,1.3h-0.6l1.8-5.2h0.6l1.8,5.2H260.2z M259,210.3c0-0.1-0.1-0.2-0.1-0.3s-0.1-0.2-0.1-0.3    s-0.1-0.2-0.1-0.3s0-0.1-0.1-0.2c0,0.1,0,0.1-0.1,0.2c0,0.1,0,0.2-0.1,0.3s-0.1,0.2-0.1,0.3c0,0.1-0.1,0.2-0.1,0.3l-0.6,1.7h1.8    L259,210.3z"
   id="path851" />
		<path
   d="M265.6,210.1c0,0.4-0.1,0.7-0.3,1c-0.2,0.2-0.5,0.4-0.9,0.5l1.1,2.3h-0.7l-1.1-2.2h-1.2v2.2h-0.6v-5.2h2.1    c0.2,0,0.4,0,0.6,0.1s0.4,0.1,0.5,0.3s0.3,0.3,0.3,0.5C265.5,209.7,265.6,209.9,265.6,210.1z M265,210.2c0-0.3-0.1-0.6-0.3-0.7    c-0.2-0.2-0.5-0.2-0.8-0.2h-1.5v1.9h1.4c0.4,0,0.7-0.1,0.9-0.2C264.9,210.7,265,210.5,265,210.2z"
   id="path853" />
		<path
   d="M270.3,212.8c-0.1,0.3-0.2,0.5-0.4,0.7c-0.2,0.2-0.4,0.3-0.6,0.4s-0.5,0.1-0.8,0.1c-0.3,0-0.6-0.1-0.9-0.2    s-0.5-0.3-0.7-0.6c-0.2-0.2-0.3-0.5-0.4-0.9s-0.1-0.7-0.1-1.1c0-0.4,0-0.8,0.2-1.1c0.1-0.3,0.2-0.6,0.4-0.9s0.4-0.4,0.7-0.6    c0.3-0.1,0.5-0.2,0.9-0.2c0.7,0,1.3,0.3,1.7,0.8l-0.5,0.4c-0.2-0.2-0.3-0.4-0.5-0.5s-0.4-0.2-0.7-0.2c-0.2,0-0.4,0.1-0.6,0.2    s-0.4,0.3-0.5,0.4c-0.1,0.2-0.2,0.4-0.3,0.7c-0.1,0.3-0.1,0.6-0.1,0.9s0,0.6,0.1,0.9s0.2,0.5,0.3,0.7c0.1,0.2,0.3,0.3,0.5,0.4    s0.4,0.2,0.6,0.2c0.4,0,0.8-0.1,1-0.4c0.2-0.3,0.4-0.6,0.4-1.2v0H269v-0.5h1.5v0.5C270.5,212.2,270.4,212.5,270.3,212.8z"
   id="path855" />
	</g>
	<g
   id="g893">
		<g
   id="g891">
			<g
   id="g889">
				<path
   d="M275.7,211.6c0,0.2-0.1,0.4-0.2,0.5c-0.1,0.1-0.3,0.2-0.5,0.2s-0.4-0.1-0.5-0.2c-0.1-0.1-0.2-0.3-0.2-0.5      s0.1-0.4,0.2-0.5c0.1-0.1,0.3-0.2,0.5-0.2s0.4,0.1,0.5,0.2C275.6,211.2,275.7,211.4,275.7,211.6z"
   id="path859" />
				<path
   d="M281.3,213.9l-0.2-0.8h-1.3l-0.2,0.8h-1.3l1.6-4.4h1.2l1.6,4.4H281.3z M280.7,211.9c0-0.1-0.1-0.3-0.1-0.4      c0-0.1-0.1-0.2-0.1-0.3s0-0.2-0.1-0.2c0-0.1,0-0.1,0-0.2c0,0.1,0,0.1,0,0.2c0,0.1,0,0.1-0.1,0.2s0,0.2-0.1,0.3s-0.1,0.2-0.1,0.4      l-0.1,0.3h0.7L280.7,211.9z"
   id="path861" />
				<path
   d="M286.4,213.5c-0.3,0.3-0.8,0.5-1.5,0.5c-0.3,0-0.6-0.1-0.8-0.1c-0.2-0.1-0.5-0.2-0.6-0.4c-0.2-0.2-0.3-0.4-0.4-0.7      c-0.1-0.3-0.1-0.6-0.1-1c0-0.3,0-0.6,0.1-0.9c0.1-0.3,0.2-0.5,0.4-0.7c0.2-0.2,0.4-0.4,0.6-0.5c0.2-0.1,0.5-0.2,0.9-0.2      c0.3,0,0.5,0,0.7,0.1c0.2,0.1,0.4,0.1,0.5,0.2c0.1,0.1,0.3,0.2,0.4,0.4c0.1,0.2,0.2,0.3,0.3,0.5l-1.1,0.4      c-0.1-0.2-0.2-0.3-0.3-0.4c-0.1-0.1-0.3-0.2-0.5-0.2c-0.1,0-0.3,0-0.4,0.1c-0.1,0.1-0.2,0.1-0.2,0.2s-0.1,0.2-0.1,0.4      c0,0.1,0,0.3,0,0.5c0,0.4,0.1,0.8,0.2,0.9c0.1,0.2,0.4,0.3,0.6,0.3c0.1,0,0.2,0,0.3,0s0.2-0.1,0.2-0.1c0.1-0.1,0.1-0.1,0.1-0.2      s0-0.1,0.1-0.2H285v-0.9h1.9v0.5C286.9,212.6,286.7,213.1,286.4,213.5z"
   id="path863" />
				<path
   d="M291.5,211.7c0,0.4,0,0.7-0.1,1s-0.2,0.5-0.4,0.7c-0.2,0.2-0.4,0.3-0.6,0.4s-0.5,0.1-0.8,0.1c-0.3,0-0.6-0.1-0.8-0.1      c-0.2-0.1-0.5-0.2-0.6-0.4c-0.2-0.2-0.3-0.4-0.4-0.7c-0.1-0.3-0.1-0.6-0.1-1s0-0.7,0.1-1s0.2-0.5,0.4-0.7      c0.2-0.2,0.4-0.3,0.6-0.4s0.5-0.1,0.8-0.1c0.3,0,0.6,0.1,0.8,0.1c0.2,0.1,0.5,0.2,0.6,0.4c0.2,0.2,0.3,0.4,0.4,0.7      C291.4,211,291.5,211.3,291.5,211.7z M290.2,211.7c0-0.4-0.1-0.7-0.2-0.9c-0.1-0.2-0.3-0.3-0.6-0.3s-0.4,0.1-0.6,0.3      s-0.2,0.5-0.2,0.9s0.1,0.7,0.2,0.9c0.1,0.2,0.3,0.3,0.6,0.3c0.2,0,0.4-0.1,0.6-0.3C290.1,212.4,290.2,212.1,290.2,211.7z"
   id="path865" />
				<path
   d="M292.1,213.9c0-0.3,0.1-0.5,0.1-0.7c0.1-0.2,0.2-0.4,0.3-0.5c0.1-0.2,0.3-0.3,0.5-0.4s0.4-0.3,0.6-0.4      c0.2-0.1,0.4-0.3,0.5-0.4s0.2-0.2,0.3-0.3c0.1-0.1,0.1-0.2,0.1-0.2c0-0.1,0-0.2,0-0.3c0-0.2-0.1-0.4-0.2-0.6s-0.4-0.2-0.7-0.2      c-0.3,0-0.5,0-0.7,0.1c-0.2,0.1-0.3,0.2-0.5,0.3l-0.3-0.4c0.1-0.1,0.2-0.1,0.3-0.2s0.2-0.1,0.3-0.2c0.1-0.1,0.2-0.1,0.4-0.1      c0.1,0,0.3,0,0.4,0c0.2,0,0.4,0,0.6,0.1c0.2,0.1,0.3,0.1,0.5,0.2c0.1,0.1,0.2,0.2,0.3,0.4c0.1,0.1,0.1,0.3,0.1,0.5      c0,0.2,0,0.3-0.1,0.4s-0.1,0.2-0.2,0.3c-0.1,0.1-0.2,0.2-0.4,0.3s-0.3,0.2-0.5,0.4c-0.2,0.1-0.4,0.3-0.6,0.4      c-0.1,0.1-0.3,0.2-0.4,0.3c-0.1,0.1-0.2,0.2-0.2,0.3c0,0.1-0.1,0.2-0.1,0.3h2.5v0.5L292.1,213.9L292.1,213.9z"
   id="path867" />
				<path
   d="M299.2,212.5c0,0.2,0,0.4-0.1,0.6s-0.2,0.3-0.3,0.4c-0.1,0.1-0.3,0.2-0.5,0.3s-0.4,0.1-0.6,0.1c-0.2,0-0.4,0-0.6-0.1      c-0.2-0.1-0.4-0.2-0.5-0.3s-0.2-0.3-0.3-0.5c-0.1-0.2-0.1-0.5-0.1-0.8c0-0.2,0-0.4,0-0.6c0-0.2,0.1-0.4,0.2-0.6      c0.1-0.2,0.2-0.4,0.3-0.6c0.1-0.2,0.3-0.4,0.5-0.5s0.4-0.3,0.7-0.4c0.2-0.1,0.5-0.1,0.9-0.2v0.4c-0.6,0.1-1,0.2-1.4,0.5      c-0.3,0.3-0.6,0.8-0.7,1.3c0.1-0.1,0.3-0.3,0.5-0.4c0.2-0.1,0.5-0.1,0.8-0.1c0.2,0,0.4,0,0.6,0.1c0.2,0.1,0.3,0.1,0.5,0.2      s0.2,0.2,0.3,0.4C299.2,212.1,299.2,212.3,299.2,212.5z M298.8,212.6c0-0.3-0.1-0.5-0.3-0.7c-0.2-0.2-0.5-0.2-0.8-0.2      s-0.6,0.1-0.8,0.2c-0.2,0.2-0.3,0.4-0.3,0.7c0,0.1,0,0.3,0.1,0.4c0,0.1,0.1,0.2,0.2,0.3s0.2,0.1,0.4,0.2      c0.1,0.1,0.3,0.1,0.5,0.1c0.4,0,0.6-0.1,0.8-0.3C298.7,213.1,298.8,212.9,298.8,212.6z"
   id="path869" />
				<path
   d="M300.7,211.6c0,0.1,0,0.2-0.1,0.3s-0.2,0.1-0.3,0.1s-0.2,0-0.3-0.1s-0.1-0.2-0.1-0.3s0-0.2,0.1-0.3      c0.1-0.1,0.2-0.1,0.3-0.1s0.2,0,0.3,0.1C300.6,211.4,300.7,211.5,300.7,211.6z"
   id="path871" />
				<path
   d="M301.4,213.9c0-0.3,0.1-0.5,0.1-0.7c0.1-0.2,0.2-0.4,0.3-0.5c0.1-0.2,0.3-0.3,0.5-0.4s0.4-0.3,0.6-0.4      c0.2-0.1,0.4-0.3,0.5-0.4s0.2-0.2,0.3-0.3c0.1-0.1,0.1-0.2,0.1-0.2c0-0.1,0-0.2,0-0.3c0-0.2-0.1-0.4-0.2-0.6s-0.4-0.2-0.7-0.2      c-0.3,0-0.5,0-0.7,0.1c-0.2,0.1-0.3,0.2-0.5,0.3l-0.3-0.4c0.1-0.1,0.2-0.1,0.3-0.2s0.2-0.1,0.3-0.2c0.1-0.1,0.2-0.1,0.4-0.1      c0.1,0,0.3,0,0.4,0c0.2,0,0.4,0,0.6,0.1s0.3,0.1,0.5,0.2c0.1,0.1,0.2,0.2,0.3,0.4c0.1,0.1,0.1,0.3,0.1,0.5c0,0.2,0,0.3-0.1,0.4      s-0.1,0.2-0.2,0.3c-0.1,0.1-0.2,0.2-0.4,0.3s-0.3,0.2-0.5,0.4c-0.2,0.1-0.4,0.3-0.6,0.4c-0.1,0.1-0.3,0.2-0.4,0.3      c-0.1,0.1-0.2,0.2-0.2,0.3c0,0.1-0.1,0.2-0.1,0.3h2.5v0.5L301.4,213.9L301.4,213.9z"
   id="path873" />
				<path
   d="M307.9,210.7c-0.2,0.3-0.4,0.6-0.5,0.9c-0.1,0.3-0.3,0.7-0.4,1.1s-0.1,0.8-0.1,1.2h-0.5c0-0.4,0.1-0.8,0.1-1.1      c0.1-0.4,0.2-0.7,0.3-1s0.3-0.6,0.5-0.9s0.4-0.6,0.6-0.8h-2.6v-0.5h3.2v0.5C308.2,210.2,308,210.5,307.9,210.7z"
   id="path875" />
				<path
   d="M310,211.6c0,0.1,0,0.2-0.1,0.3s-0.2,0.1-0.3,0.1s-0.2,0-0.3-0.1s-0.1-0.2-0.1-0.3s0-0.2,0.1-0.3      c0.1-0.1,0.2-0.1,0.3-0.1s0.2,0,0.3,0.1C309.9,211.4,310,211.5,310,211.6z"
   id="path877" />
				<path
   d="M310.7,213.9c0-0.3,0.1-0.5,0.1-0.7c0.1-0.2,0.2-0.4,0.3-0.5c0.1-0.2,0.3-0.3,0.5-0.4s0.4-0.3,0.6-0.4      c0.2-0.1,0.4-0.3,0.5-0.4s0.2-0.2,0.3-0.3c0.1-0.1,0.1-0.2,0.1-0.2c0-0.1,0-0.2,0-0.3c0-0.2-0.1-0.4-0.2-0.6s-0.4-0.2-0.7-0.2      c-0.3,0-0.5,0-0.7,0.1c-0.2,0.1-0.3,0.2-0.5,0.3l-0.3-0.4c0.1-0.1,0.2-0.1,0.3-0.2s0.2-0.1,0.3-0.2c0.1-0.1,0.2-0.1,0.4-0.1      c0.1,0,0.3,0,0.4,0c0.2,0,0.4,0,0.6,0.1s0.3,0.1,0.5,0.2c0.1,0.1,0.2,0.2,0.3,0.4c0.1,0.1,0.1,0.3,0.1,0.5c0,0.2,0,0.3-0.1,0.4      s-0.1,0.2-0.2,0.3c-0.1,0.1-0.2,0.2-0.4,0.3s-0.3,0.2-0.5,0.4c-0.2,0.1-0.4,0.3-0.6,0.4c-0.1,0.1-0.3,0.2-0.4,0.3      c-0.1,0.1-0.2,0.2-0.2,0.3c0,0.1-0.1,0.2-0.1,0.3h2.5v0.5L310.7,213.9L310.7,213.9z"
   id="path879" />
				<path
   d="M317.7,212.7c0,0.2,0,0.4-0.1,0.6c-0.1,0.2-0.2,0.3-0.3,0.4s-0.3,0.2-0.5,0.2c-0.2,0.1-0.4,0.1-0.7,0.1      c-0.5,0-0.9-0.1-1.1-0.3c-0.3-0.2-0.4-0.5-0.4-1c0-0.3,0.1-0.5,0.2-0.7c0.1-0.2,0.4-0.3,0.6-0.4c-0.2-0.1-0.4-0.2-0.5-0.3      c-0.1-0.1-0.2-0.3-0.2-0.6c0-0.2,0-0.3,0.1-0.5c0.1-0.1,0.1-0.3,0.3-0.4c0.1-0.1,0.3-0.2,0.4-0.2c0.2-0.1,0.4-0.1,0.6-0.1      c0.2,0,0.4,0,0.6,0.1s0.3,0.1,0.4,0.2s0.2,0.2,0.3,0.4s0.1,0.3,0.1,0.5c0,0.2-0.1,0.4-0.2,0.6c-0.1,0.1-0.3,0.3-0.5,0.4      c0.3,0.1,0.5,0.2,0.6,0.4C317.7,212.1,317.7,212.4,317.7,212.7z M317.3,212.7c0-0.2-0.1-0.5-0.3-0.6s-0.5-0.2-0.8-0.2      c-0.4,0-0.6,0.1-0.8,0.2s-0.3,0.4-0.3,0.6c0,0.3,0.1,0.5,0.3,0.6c0.2,0.2,0.5,0.2,0.8,0.2s0.6-0.1,0.8-0.2      C317.2,213.1,317.3,212.9,317.3,212.7z M317.1,210.6c0-0.1,0-0.2,0-0.3c0-0.1-0.1-0.2-0.2-0.2c-0.1-0.1-0.2-0.1-0.3-0.2      c-0.1,0-0.3-0.1-0.4-0.1c-0.2,0-0.3,0-0.4,0.1c-0.1,0-0.2,0.1-0.3,0.2c-0.1,0.1-0.1,0.1-0.2,0.2c0,0.1,0,0.2,0,0.3      c0,0.1,0,0.2,0.1,0.3s0.1,0.2,0.2,0.2s0.2,0.1,0.3,0.2c0.1,0,0.2,0.1,0.4,0.1c0.1,0,0.3,0,0.4-0.1c0.1,0,0.2-0.1,0.3-0.2      c0.1-0.1,0.1-0.1,0.2-0.2C317.1,210.8,317.1,210.7,317.1,210.6z"
   id="path881" />
				<path
   d="M319.3,211.6c0,0.1,0,0.2-0.1,0.3s-0.2,0.1-0.3,0.1s-0.2,0-0.3-0.1s-0.1-0.2-0.1-0.3s0-0.2,0.1-0.3      c0.1-0.1,0.2-0.1,0.3-0.1s0.2,0,0.3,0.1C319.2,211.4,319.3,211.5,319.3,211.6z"
   id="path883" />
				<path
   d="M320,213.9c0-0.3,0.1-0.5,0.1-0.7c0.1-0.2,0.2-0.4,0.3-0.5c0.1-0.2,0.3-0.3,0.5-0.4s0.4-0.3,0.6-0.4      c0.2-0.1,0.4-0.3,0.5-0.4c0.1-0.1,0.2-0.2,0.3-0.3c0.1-0.1,0.1-0.2,0.1-0.2c0-0.1,0-0.2,0-0.3c0-0.2-0.1-0.4-0.2-0.6      s-0.4-0.2-0.7-0.2c-0.3,0-0.5,0-0.7,0.1c-0.2,0.1-0.3,0.2-0.5,0.3l-0.3-0.4c0.1-0.1,0.2-0.1,0.3-0.2s0.2-0.1,0.3-0.2      c0.1-0.1,0.2-0.1,0.4-0.1c0.1,0,0.3,0,0.4,0c0.2,0,0.4,0,0.6,0.1s0.3,0.1,0.5,0.2c0.1,0.1,0.2,0.2,0.3,0.4      c0.1,0.1,0.1,0.3,0.1,0.5c0,0.2,0,0.3-0.1,0.4s-0.1,0.2-0.2,0.3c-0.1,0.1-0.2,0.2-0.4,0.3s-0.3,0.2-0.5,0.4      c-0.2,0.1-0.4,0.3-0.6,0.4c-0.1,0.1-0.3,0.2-0.4,0.3c-0.1,0.1-0.2,0.2-0.2,0.3c0,0.1-0.1,0.2-0.1,0.3h2.5v0.5L320,213.9      L320,213.9z"
   id="path885" />
				<path
   d="M327,211.2c0,0.2,0,0.4,0,0.6c0,0.2-0.1,0.4-0.2,0.6c-0.1,0.2-0.2,0.4-0.3,0.6c-0.1,0.2-0.3,0.4-0.5,0.5      s-0.4,0.3-0.7,0.4c-0.2,0.1-0.5,0.1-0.9,0.2v-0.4c0.6-0.1,1-0.2,1.4-0.5c0.3-0.3,0.6-0.8,0.7-1.3c-0.1,0.1-0.3,0.3-0.5,0.4      c-0.2,0.1-0.5,0.1-0.8,0.1c-0.2,0-0.4,0-0.6-0.1s-0.3-0.1-0.5-0.2s-0.2-0.2-0.3-0.4c-0.1-0.2-0.1-0.4-0.1-0.6      c0-0.2,0-0.4,0.1-0.6c0.1-0.2,0.2-0.3,0.3-0.4c0.1-0.1,0.3-0.2,0.5-0.3c0.2-0.1,0.4-0.1,0.6-0.1c0.2,0,0.4,0,0.6,0.1      c0.2,0.1,0.4,0.2,0.5,0.3s0.2,0.3,0.3,0.5C327,210.6,327,210.9,327,211.2z M326.5,210.8c0-0.1,0-0.3-0.1-0.4      c0-0.1-0.1-0.2-0.2-0.3c-0.1-0.1-0.2-0.1-0.4-0.2s-0.3-0.1-0.5-0.1c-0.4,0-0.6,0.1-0.8,0.3c-0.2,0.2-0.3,0.4-0.3,0.7      c0,0.3,0.1,0.5,0.3,0.7c0.2,0.2,0.5,0.2,0.8,0.2s0.6-0.1,0.8-0.2C326.4,211.3,326.5,211.1,326.5,210.8z"
   id="path887" />
			</g>
		</g>
	</g>
</g>
<g
   id="g917">
	<g
   id="g915">
		<path
   class="st0"
   d="M137.2,161.6v9.7h-1.6l-2.2-1.8c-1,0.9-2.1,1.5-3.4,1.9s-2.8,0.7-4.4,0.7c-2.2,0-4.3-0.4-6.1-1.3    c-1.8-0.9-3.6-2.2-5.2-3.9c-1.6-1.7-2.8-3.6-3.5-5.5s-1.2-4.1-1.2-6.3c0-2.2,0.4-4.3,1.2-6.2c0.8-1.9,2-3.8,3.6-5.5s3.3-3,5.2-3.9    s3.9-1.3,6.2-1.3c1.4,0,2.7,0.2,3.9,0.6c1.2,0.4,2.4,1,3.5,1.8l1.8-1.7h1.6l0.2,9H135c-1.1-2.9-2.3-4.9-3.8-6.2s-3.3-1.9-5.5-1.9    c-2.5,0-4.2,0.8-5.1,2.5c-0.9,1.6-1.3,5.8-1.3,12.4c0,3.5,0,6.1,0.1,7.8s0.2,3,0.4,3.7c0.4,1.6,1.1,2.8,2,3.5    c0.9,0.7,2.2,1.1,3.9,1.1c2.3,0,4.3-0.8,6.2-2.5c1.8-1.7,3-3.9,3.5-6.5L137.2,161.6L137.2,161.6z"
   id="path897" />
		<path
   class="st0"
   d="M142.5,155.1c0-2.2,0.4-4.3,1.3-6.3c0.8-2,2.1-3.8,3.7-5.5c1.7-1.7,3.6-3,5.5-3.9c1.9-0.8,4-1.3,6.3-1.3    c2.3,0,4.4,0.4,6.4,1.3c1.9,0.9,3.8,2.1,5.5,3.9c1.6,1.7,2.9,3.5,3.7,5.5c0.9,2,1.3,4.1,1.3,6.2c0,2.2-0.4,4.3-1.3,6.3    c-0.9,2-2.1,3.9-3.7,5.5c-1.7,1.7-3.5,3-5.4,3.8s-4.1,1.3-6.4,1.3c-2.3,0-4.4-0.4-6.4-1.3c-1.9-0.8-3.8-2.1-5.5-3.8    c-1.6-1.7-2.8-3.5-3.7-5.5C142.9,159.4,142.5,157.3,142.5,155.1z M152.2,155.1c0,4.2,0.1,7,0.2,8.6s0.4,2.7,0.7,3.5    c0.5,1.2,1.3,2,2.2,2.6c1,0.5,2.3,0.8,3.9,0.8c1.7,0,3-0.3,3.9-0.8c1-0.5,1.7-1.4,2.2-2.6c0.4-0.8,0.6-2.1,0.8-3.7    c0.1-1.7,0.2-4.4,0.2-8.4c0-3.9-0.1-6.7-0.2-8.3s-0.4-2.9-0.8-3.7c-0.5-1.2-1.3-2-2.2-2.6s-2.3-0.8-3.9-0.8    c-1.6,0-2.9,0.3-3.9,0.8c-1,0.5-1.7,1.4-2.2,2.6c-0.4,0.8-0.6,1.9-0.7,3.5C152.3,148.1,152.2,151,152.2,155.1z"
   id="path899" />
		<path
   class="st0"
   d="M181,171.7v-9.5h1.9c0.8,2.8,2.1,4.9,3.7,6.3s3.6,2.1,6,2.1c2.1,0,3.9-0.6,5.3-1.7s2.1-2.6,2.1-4.3    c0-0.9-0.2-1.7-0.5-2.3s-0.9-1.2-1.7-1.7c-0.9-0.6-2.7-1.2-5.4-1.8c-1-0.2-1.8-0.4-2.3-0.5c-3.1-0.8-5.4-2-6.8-3.5    s-2.1-3.6-2.1-6.2c0-3,0.9-5.5,2.8-7.4s4.4-2.8,7.4-2.8c1.2,0,2.4,0.2,3.5,0.5s2.1,0.9,3.1,1.6l1.8-1.4h1.6l0.2,8.6h-1.6    c-0.6-2.5-1.7-4.4-3.2-5.8c-1.5-1.3-3.3-2-5.5-2c-1.8,0-3.4,0.4-4.5,1.3c-1.2,0.9-1.8,2-1.8,3.4c0,2.1,2.2,3.6,6.5,4.5    c0.6,0.1,1,0.2,1.3,0.3c4.1,0.9,6.9,2.3,8.5,4s2.4,4.2,2.4,7.4c0,3.3-1,6-3.1,8.2c-2.1,2.2-4.7,3.3-7.9,3.3c-1.6,0-3-0.2-4.2-0.6    c-1.2-0.4-2.4-0.9-3.4-1.7l-2.2,1.9L181,171.7L181,171.7z"
   id="path901" />
		<path
   class="st0"
   d="M206,171.3v-1.6h2c0.5,0,1-0.2,1.3-0.5s0.7-1,1.1-1.9l11.1-29h1.9l12.2,31.5h2.9v1.6h-15.7v-1.6h3.9l-2.9-7.6    h-9.9l-2.1,5.5c-0.1,0.1-0.1,0.2-0.1,0.4c0,0.2,0,0.4,0,0.7s0.1,0.5,0.4,0.6c0.2,0.1,0.6,0.2,1.1,0.2h2.9v1.6L206,171.3L206,171.3    z M214.6,160.5h8.8l-4.3-11.4L214.6,160.5z"
   id="path903" />
		<path
   class="st0"
   d="M240.3,171.3v-1.6h3.9v-29.4h-3.4v-1.5H268l0.1,8.5h-1.6c-1.1-2.8-2.2-4.6-3.4-5.6c-1.1-1-2.8-1.4-5-1.4h-5.6    v13.3c0.1,0,0.3,0,0.4,0s0.4,0,0.7,0c1.8,0,3.1-0.5,4-1.4s1.5-2.4,1.8-4.6h1.6v13.9h-1.6c-0.2-2.2-0.7-3.9-1.7-4.8    s-2.4-1.5-4.3-1.5h-0.9v14.4h5.4c2.7,0,4.8-0.7,6.3-2.1c1.5-1.4,2.7-3.8,3.6-7.1h1.5l-0.3,10.8L240.3,171.3L240.3,171.3z"
   id="path905" />
		<path
   class="st0"
   d="M288.7,171.3v-4.5l9-7c2.5-1.9,4.2-3.8,5.4-5.7s1.7-4,1.7-6.3c0-2.4-0.6-4.3-1.8-5.7c-1.2-1.4-2.8-2-4.9-2    c-1.4,0-2.7,0.4-3.9,1.2c-1.2,0.8-1.8,1.6-1.8,2.2c0,0.2,0.1,0.4,0.2,0.5c0.1,0.1,0.4,0.1,0.7,0.1h0.3c1.3,0,2.3,0.3,3.1,0.9    c0.8,0.6,1.1,1.5,1.1,2.6c0,1.1-0.3,1.9-1,2.6c-0.6,0.6-1.5,1-2.6,1c-1.3,0-2.4-0.5-3.2-1.4c-0.8-0.9-1.2-2.1-1.2-3.6    c0-2.4,1.1-4.3,3.3-5.9c2.2-1.6,5-2.3,8.4-2.3c3.6,0,6.4,0.8,8.5,2.3c2.1,1.5,3.1,3.6,3.1,6.3c0,2.1-0.8,4.1-2.3,6.1    c-1.5,1.9-4,4-7.5,6.2l-9,5.6v0.4h14.3c0.9,0,1.5-0.1,1.9-0.4c0.4-0.2,0.6-0.7,0.6-1.4l0.3-2.9h1.6l-0.5,11.1H288.7z"
   id="path907" />
		<path
   class="st0"
   d="M319,155c0-2.4,0.3-4.6,0.9-6.6s1.5-3.8,2.7-5.3c1.3-1.7,2.7-2.9,4.3-3.7c1.6-0.8,3.3-1.3,5.2-1.3    c1.8,0,3.5,0.4,5.1,1.3c1.6,0.9,3,2.1,4.3,3.8c1.2,1.6,2.1,3.4,2.7,5.4c0.6,2.1,0.9,4.2,0.9,6.6c0,2.3-0.3,4.4-1,6.4    c-0.6,1.9-1.6,3.7-2.9,5.4c-1.3,1.6-2.7,2.9-4.3,3.7c-1.6,0.9-3.2,1.3-5,1.3c-1.7,0-3.3-0.4-4.9-1.3s-3-2-4.2-3.6    c-1.2-1.6-2.2-3.4-2.9-5.6C319.3,159.5,319,157.3,319,155z M332,139.5c-1,0-1.9,0.2-2.5,0.6c-0.6,0.4-1.1,1-1.3,1.9    c-0.3,0.9-0.5,2.3-0.6,4.2s-0.2,5.3-0.2,10.2v1.2c0,5.8,0.3,9.4,1,10.8c0.6,1.3,1.8,2,3.6,2c1.8,0,3-0.7,3.7-2.1s1-5.2,1-11.4    v-0.6c0-3.5,0-6.3-0.1-8.4c0-2.1-0.1-3.5-0.2-4.1c-0.3-1.5-0.7-2.6-1.4-3.3C334.3,139.9,333.3,139.5,332,139.5z"
   id="path909" />
		<path
   class="st0"
   d="M349,171.3v-4.5l9-7c2.5-1.9,4.2-3.8,5.4-5.7s1.7-4,1.7-6.3c0-2.4-0.6-4.3-1.8-5.7c-1.2-1.4-2.8-2-4.9-2    c-1.4,0-2.7,0.4-3.9,1.2c-1.2,0.8-1.8,1.6-1.8,2.2c0,0.2,0.1,0.4,0.2,0.5c0.1,0.1,0.4,0.1,0.7,0.1h0.3c1.3,0,2.3,0.3,3.1,0.9    c0.8,0.6,1.1,1.5,1.1,2.6c0,1.1-0.3,1.9-1,2.6c-0.6,0.6-1.5,1-2.6,1c-1.3,0-2.4-0.5-3.2-1.4c-0.8-0.9-1.2-2.1-1.2-3.6    c0-2.4,1.1-4.3,3.3-5.9c2.2-1.6,5-2.3,8.4-2.3c3.6,0,6.4,0.8,8.5,2.3c2.1,1.5,3.1,3.6,3.1,6.3c0,2.1-0.8,4.1-2.3,6.1    c-1.5,1.9-4,4-7.5,6.2l-9,5.6v0.4h14.3c0.9,0,1.5-0.1,1.9-0.4c0.4-0.2,0.6-0.7,0.6-1.4l0.3-2.9h1.6l-0.5,11.1H349z"
   id="path911" />
		<path
   class="st0"
   d="M379.3,155c0-2.4,0.3-4.6,0.9-6.6s1.5-3.8,2.7-5.3c1.3-1.7,2.7-2.9,4.3-3.7c1.6-0.8,3.3-1.3,5.2-1.3    c1.8,0,3.5,0.4,5.1,1.3c1.6,0.9,3,2.1,4.3,3.8c1.2,1.6,2.1,3.4,2.7,5.4c0.6,2.1,0.9,4.2,0.9,6.6c0,2.3-0.3,4.4-1,6.4    c-0.6,1.9-1.6,3.7-2.9,5.4c-1.3,1.6-2.7,2.9-4.3,3.7c-1.6,0.9-3.2,1.3-5,1.3c-1.7,0-3.3-0.4-4.9-1.3s-3-2-4.2-3.6    c-1.2-1.6-2.2-3.4-2.9-5.6C379.6,159.5,379.3,157.3,379.3,155z M392.4,139.5c-1,0-1.9,0.2-2.5,0.6c-0.6,0.4-1.1,1-1.3,1.9    c-0.3,0.9-0.5,2.3-0.6,4.2s-0.2,5.3-0.2,10.2v1.2c0,5.8,0.3,9.4,1,10.8c0.6,1.3,1.8,2,3.6,2c1.8,0,3-0.7,3.7-2.1s1-5.2,1-11.4    v-0.6c0-3.5,0-6.3-0.1-8.4c0-2.1-0.1-3.5-0.2-4.1c-0.3-1.5-0.7-2.6-1.4-3.3C394.6,139.9,393.6,139.5,392.4,139.5z"
   id="path913" />
	</g>
</g>
<g
   id="g1007">
	<path
   d="M127.5,193.2c0,0.1-0.1,0.1-0.4,0.1c-0.3,0-0.6,0-1,0s-0.7,0-1,0c-0.4,0-0.9,0-1.4,0c-0.3,0-0.5,0-0.6,0   c-0.3,0-0.4,0-0.4-0.1c0-0.1,0.1-0.1,0.3-0.1h0.6c0.2,0,0.4,0,0.4,0c0.1,0,0.2-0.1,0.2-0.3c0-0.1-0.1-0.4-0.3-0.9l-1.5-3l-1.8,3   c-0.3,0.5-0.5,0.8-0.5,0.9c0,0.2,0.2,0.3,0.5,0.3c0,0,0.2,0,0.6,0c0.2,0,0.2,0,0.2,0.1s-0.1,0.1-0.2,0.1h-1.6h-1.2   c-0.2,0-0.2,0-0.2-0.1s0.1-0.1,0.4-0.2c0.2,0,0.3,0,0.5-0.1c0.1,0,0.2-0.1,0.3-0.2c0.2-0.2,0.8-1.1,1.7-2.7   c0.3-0.6,0.7-1.1,0.9-1.6l-1.6-3c-0.3-0.6-0.6-1-0.7-1.2c-0.1-0.2-0.3-0.3-0.4-0.4c-0.2,0-0.4,0-0.9,0c-0.1,0-0.2,0-0.2-0.1   c0-0.1,0.1-0.1,0.2-0.1c0.2,0,0.6,0,1.3,0c0.3,0,0.5,0,0.7,0c1.1,0,1.7,0,1.8,0h0.2c0.2,0,0.3,0,0.3,0.1c0,0.1-0.2,0.1-0.5,0.1   c-0.6,0-0.9,0.1-0.9,0.2c0,0.2,0.5,1.3,1.6,3.3c0.4-0.6,0.8-1.2,1.2-2s0.7-1.2,0.7-1.3c0-0.1-0.3-0.2-0.8-0.2c-0.2,0-0.4,0-0.4-0.1   c0-0.1,0.1-0.1,0.3-0.1c0.1,0,0.3,0,0.5,0c0.2,0,0.4,0,0.5,0c0.1,0,0.3,0,0.7,0c0.4,0,0.6,0,0.7,0h0.1c0.2,0,0.2,0,0.2,0.1   s-0.1,0.1-0.2,0.1c0,0-0.2,0-0.4,0c-0.3,0-0.5,0.1-0.7,0.2c-0.1,0.1-0.3,0.4-0.6,0.9c-0.4,0.6-0.9,1.5-1.6,2.6l-0.2,0.2   c0.1,0.1,0.7,1.3,1.9,3.7c0.4,0.8,0.7,1.3,0.9,1.4c0.2,0.1,0.5,0.2,1,0.2C127.3,193,127.5,193.1,127.5,193.2z"
   id="path919" />
	<path
   d="M131.2,193.2c0,0.1-0.1,0.1-0.2,0.1h-0.1c-0.1,0-0.7,0-1.9,0c-0.2,0-0.5,0-0.7,0c-0.1,0-0.3,0-0.6,0c-0.1,0-0.2,0-0.2-0.1   c0-0.1,0.1-0.1,0.4-0.1c0.4,0,0.6-0.1,0.7-0.1c0.1-0.1,0.1-0.4,0.1-0.8v-7.3c0-0.5,0-0.7-0.1-0.8c-0.1-0.1-0.3-0.1-0.8-0.2   c-0.2,0-0.3,0-0.3-0.1c0-0.1,0.1-0.1,0.2-0.1h1.9c0.1,0,0.4,0,0.8,0l0.5,0c0.1,0,0.2,0,0.2,0.1c0,0.1-0.2,0.1-0.6,0.1   c-0.2,0-0.4,0.1-0.4,0.1c-0.1,0.1-0.1,0.3-0.1,0.6v7.4c0,0.5,0,0.8,0.1,0.9c0.1,0.1,0.4,0.2,0.9,0.2   C131.1,193.1,131.2,193.1,131.2,193.2z"
   id="path921" />
	<path
   d="M140.5,193.2c0,0.1-0.1,0.1-0.4,0.1c-0.3,0-0.6,0-1,0s-0.6,0-1,0c-0.4,0-0.9,0-1.4,0c-0.3,0-0.5,0-0.6,0   c-0.3,0-0.4,0-0.4-0.1c0-0.1,0.1-0.1,0.3-0.1h0.6c0.2,0,0.4,0,0.4,0c0.1,0,0.2-0.1,0.2-0.3c0-0.1-0.1-0.4-0.4-0.9l-1.5-3l-1.8,3   c-0.3,0.5-0.5,0.8-0.5,0.9c0,0.2,0.1,0.3,0.5,0.3c0,0,0.2,0,0.6,0c0.2,0,0.2,0,0.2,0.1s-0.1,0.1-0.2,0.1h-1.6h-1.2   c-0.1,0-0.2,0-0.2-0.1s0.1-0.1,0.4-0.2c0.2,0,0.3,0,0.5-0.1c0.1,0,0.2-0.1,0.4-0.2c0.2-0.2,0.8-1.1,1.7-2.7   c0.4-0.6,0.7-1.1,0.9-1.6l-1.6-3c-0.3-0.6-0.6-1-0.7-1.2c-0.1-0.2-0.3-0.3-0.4-0.4c-0.1,0-0.4,0-0.9,0c-0.1,0-0.2,0-0.2-0.1   c0-0.1,0.1-0.1,0.2-0.1c0.2,0,0.6,0,1.3,0c0.3,0,0.5,0,0.6,0c1.1,0,1.7,0,1.8,0h0.2c0.2,0,0.3,0,0.3,0.1c0,0.1-0.2,0.1-0.5,0.1   c-0.6,0-0.9,0.1-0.9,0.2c0,0.2,0.5,1.3,1.6,3.3c0.4-0.6,0.8-1.2,1.2-2c0.4-0.8,0.7-1.2,0.7-1.3c0-0.1-0.3-0.2-0.8-0.2   c-0.2,0-0.4,0-0.4-0.1c0-0.1,0.1-0.1,0.3-0.1c0.1,0,0.3,0,0.5,0c0.2,0,0.4,0,0.5,0c0.1,0,0.3,0,0.6,0c0.4,0,0.6,0,0.7,0h0.1   c0.2,0,0.2,0,0.2,0.1s-0.1,0.1-0.2,0.1c0,0-0.2,0-0.4,0c-0.3,0-0.5,0.1-0.6,0.2c-0.1,0.1-0.3,0.4-0.6,0.9c-0.4,0.6-0.9,1.5-1.6,2.6   l-0.1,0.2c0.1,0.1,0.7,1.3,1.9,3.7c0.4,0.8,0.7,1.3,0.9,1.4c0.2,0.1,0.5,0.2,1,0.2C140.4,193,140.5,193.1,140.5,193.2z"
   id="path923" />
	<path
   d="M151.3,190.2c0,0,0,0.1,0,0.4c0,0.5-0.1,1.1-0.1,1.6c0,0.1,0,0.2,0,0.3s0,0.4,0,0.6v0.1c0,0.1,0,0.2-0.1,0.2   s-0.1-0.1-0.2-0.2c-0.1-0.3-0.3-0.5-0.4-0.6c-0.7,0.6-1.5,0.9-2.4,0.9c-1.4,0-2.5-0.5-3.4-1.4c-0.9-0.9-1.3-2.1-1.3-3.6   c0-1.5,0.4-2.6,1.2-3.6c0.8-0.9,1.9-1.4,3.2-1.4c0.5,0,0.9,0,1.1,0.1s0.6,0.2,1.1,0.5c0.2,0.1,0.4,0.2,0.5,0.2   c0.1,0,0.2-0.1,0.2-0.2c0.1-0.3,0.2-0.4,0.3-0.4c0.1,0,0.1,0,0.1,0.1c0,0,0,0.1,0,0.2c-0.1,0.4-0.1,1.3-0.1,2.5c0,0.2,0,0.3,0,0.3   s-0.1,0-0.1,0c-0.1,0-0.1-0.1-0.2-0.3c-0.1-0.7-0.3-1.3-0.5-1.7c-0.4-0.7-1.2-1.1-2.1-1.1c-0.8,0-1.3,0.2-1.8,0.8   c-0.8,0.9-1.2,2.2-1.2,3.9c0,1.6,0.3,2.8,1,3.6c0.6,0.7,1.3,1.1,2.2,1.1c0.5,0,0.9-0.1,1.3-0.4c0.4-0.2,0.7-0.6,0.9-1   c0.2-0.5,0.4-1,0.5-1.5c0-0.2,0.1-0.3,0.2-0.3C151.3,190,151.3,190.1,151.3,190.2z"
   id="path925" />
	<path
   d="M158.2,190.3c0,0.9-0.3,1.6-0.8,2.3s-1.2,0.9-2,0.9c-0.8,0-1.6-0.3-2.1-0.9c-0.6-0.6-0.9-1.4-0.9-2.3   c0-0.9,0.3-1.7,0.8-2.3s1.2-0.9,2.1-0.9c0.8,0,1.5,0.3,2.1,0.9C157.9,188.6,158.2,189.4,158.2,190.3z M156.9,190.3   c0-1-0.2-1.8-0.5-2.4c-0.2-0.4-0.6-0.6-1.2-0.6c-0.5,0-0.9,0.3-1.2,0.8c-0.3,0.5-0.4,1.3-0.4,2.2c0,0.9,0.2,1.7,0.5,2.2   s0.7,0.8,1.3,0.8c0.4,0,0.7-0.2,0.9-0.5C156.7,192.2,156.9,191.3,156.9,190.3z"
   id="path927" />
	<path
   d="M165.4,193.2c0,0.1-0.1,0.1-0.2,0.1H165c-0.2,0-0.4,0-0.7,0c-0.9,0-1.4,0-1.6,0h-0.1c-0.1,0-0.2,0-0.2-0.1   c0-0.1,0-0.1,0.1-0.1s0.2,0,0.5,0c0.2,0,0.3,0,0.3-0.1c0,0,0-0.2,0-0.4v-2.7c0-1,0-1.6-0.1-1.8c-0.2-0.4-0.5-0.6-0.9-0.6   c-0.5,0-0.9,0.2-1.2,0.6c-0.1,0.1-0.1,0.3-0.1,0.5v4.3c0,0.1,0.1,0.2,0.3,0.2l0.4,0c0.1,0,0.1,0,0.1,0.1c0,0.1-0.1,0.1-0.2,0.1   h-0.2c-0.2,0-0.5,0-1,0c-0.1,0-0.3,0-0.7,0s-0.5,0-0.6,0h-0.1c-0.1,0-0.2,0-0.2-0.1c0-0.1,0.1-0.1,0.2-0.1c0.1,0,0.2,0,0.4,0   c0.1,0,0.2,0,0.2-0.1l0-0.2v-3c0-1.1,0-1.6,0-1.8s-0.1-0.2-0.4-0.2c-0.1,0-0.2,0-0.3,0h-0.1c-0.2,0-0.3,0-0.3-0.1   c0-0.1,0.1-0.1,0.3-0.1c0.3,0,0.6-0.1,0.9-0.1c0.3-0.1,0.6-0.2,0.7-0.3c0.1-0.1,0.1-0.1,0.2-0.1c0.1,0,0.1,0.1,0.1,0.3v0.7   c0.5-0.6,1.1-0.9,1.9-0.9c0.7,0,1.1,0.2,1.4,0.7c0.2,0.3,0.2,0.8,0.2,1.6v3.2c0,0.3,0,0.5,0,0.5c0.1,0.1,0.2,0.1,0.4,0.1   c0,0,0.1,0,0.1,0h0.1C165.3,193.1,165.4,193.1,165.4,193.2z"
   id="path929" />
	<path
   d="M172.2,187.9c0,0.4-0.2,0.6-0.6,0.6c-0.1,0-0.2,0-0.4-0.1c-0.1-0.1-0.2-0.2-0.2-0.3c0,0,0-0.1,0-0.2s0-0.1,0-0.2   c0-0.1-0.1-0.2-0.2-0.2c-0.1,0-0.2,0.1-0.3,0.2c-0.1,0.1-0.1,0.2-0.1,0.4c0,0,0,0.2,0.1,0.5c0.1,0.3,0.1,0.5,0.1,0.6   c0,0.6-0.2,1.2-0.6,1.6c-0.4,0.4-1,0.6-1.6,0.6c-0.2,0-0.5-0.1-0.9-0.2c-0.1,0-0.2-0.1-0.2-0.1c-0.2,0-0.4,0.1-0.5,0.2   s-0.2,0.3-0.2,0.5c0,0.5,0.3,0.7,0.9,0.7c0.2,0,0.6,0,1.1-0.1c0.4-0.1,0.7-0.1,1-0.1c0.6,0,1,0.1,1.3,0.4c0.3,0.3,0.5,0.7,0.5,1.2   c0,0.8-0.3,1.5-1,2c-0.7,0.5-1.5,0.8-2.6,0.8c-0.8,0-1.4-0.2-1.8-0.5s-0.7-0.7-0.7-1.3c0-0.5,0.2-0.9,0.6-1.2   c0.2-0.1,0.5-0.2,1-0.4c-0.7-0.3-1-0.7-1-1.2c0-0.7,0.4-1.1,1.3-1.4c-0.6-0.4-0.8-1-0.8-1.7c0-0.7,0.2-1.2,0.6-1.6   c0.4-0.4,1-0.6,1.7-0.6c0.4,0,0.7,0.1,0.9,0.1c0.2,0.1,0.5,0.3,0.8,0.6c0.3-0.4,0.7-0.6,1.1-0.6C172,187.2,172.2,187.4,172.2,187.9   z M170.7,194.6c0-0.8-0.4-1.2-1.4-1.2c-0.3,0-0.6,0-1.1,0.1c-0.5,0.1-0.9,0.1-1.1,0.1c-0.5,0.2-0.7,0.7-0.7,1.3   c0,0.5,0.2,0.9,0.5,1.1s0.8,0.4,1.3,0.4c0.7,0,1.3-0.2,1.8-0.6C170.5,195.6,170.7,195.1,170.7,194.6z M169.7,189.3   c0-1.3-0.4-2-1.1-2c-0.7,0-1.1,0.6-1.1,1.9c0,1.4,0.4,2.1,1.1,2.1C169.3,191.2,169.7,190.6,169.7,189.3z"
   id="path931" />
	<path
   d="M176.6,188c0,0.2-0.1,0.4-0.2,0.5c-0.1,0.1-0.3,0.2-0.5,0.2c-0.2,0-0.3-0.1-0.4-0.1c-0.1-0.1-0.2-0.2-0.2-0.4   c0-0.1,0-0.2,0.1-0.3s0.1-0.2,0.1-0.2c0-0.1-0.1-0.2-0.3-0.2c-0.3,0-0.5,0.2-0.7,0.5c-0.2,0.4-0.3,1.1-0.3,2.1v2.7   c0,0.1,0,0.2,0.1,0.2c0.1,0,0.3,0.1,0.7,0.1c0.1,0,0.1,0.1,0.1,0.1c0,0.1-0.1,0.1-0.2,0.1c-0.2,0-0.4,0-0.6,0s-0.5,0-1.1,0   c-0.3,0-0.5,0-0.6,0c-0.1,0-0.3,0-0.5,0c-0.1,0-0.2,0-0.2-0.1s0.1-0.1,0.2-0.1h0.2c0.3,0,0.5,0,0.6-0.1c0,0,0-0.2,0-0.5v-3.8   c0-0.5-0.1-0.8-0.2-0.9s-0.4-0.1-0.7-0.1c-0.1,0-0.2,0-0.2-0.1s0.1-0.1,0.1-0.1h0.1c0.1,0,0.3,0,0.4,0c0.1,0,0.2,0,0.2,0   c0.3,0,0.7-0.1,1.1-0.3l0.2-0.1l0.1,0c0,0.2,0.1,0.4,0.1,0.7v0.3c0.3-0.6,0.7-0.9,1.2-0.9c0.3,0,0.5,0.1,0.7,0.3   C176.5,187.5,176.6,187.8,176.6,188z"
   id="path933" />
	<path
   d="M182.2,191.8c0,0.1-0.1,0.3-0.2,0.5c-0.1,0.2-0.3,0.4-0.4,0.6c-0.4,0.4-0.9,0.6-1.6,0.6c-0.8,0-1.5-0.3-2.1-0.9   c-0.6-0.6-0.8-1.4-0.8-2.2c0-0.9,0.3-1.7,0.8-2.3c0.5-0.6,1.2-0.9,2-0.9c0.7,0,1.2,0.2,1.7,0.6c0.4,0.4,0.7,0.9,0.7,1.5   c-0.3,0.1-0.7,0.1-1.2,0.1h-1c-0.1,0-0.6,0-1.7,0c-0.1,0.3-0.1,0.6-0.1,0.9c0,0.9,0.2,1.6,0.5,2.2c0.4,0.5,0.9,0.8,1.5,0.8   c0.4,0,0.7-0.1,0.9-0.2s0.5-0.5,0.7-1c0-0.1,0.1-0.1,0.1-0.1S182.2,191.7,182.2,191.8z M181,188.9c0-1.1-0.4-1.7-1.2-1.7   c-0.8,0-1.2,0.6-1.4,1.7H181z"
   id="path935" />
	<path
   d="M187.2,191.5c0,0.5-0.2,1-0.6,1.4c-0.4,0.4-0.9,0.6-1.4,0.6c-0.3,0-0.7-0.1-1.1-0.3c-0.1-0.1-0.2-0.1-0.3-0.1   c-0.1,0-0.2,0.1-0.3,0.3c0,0.1-0.1,0.2-0.1,0.2s-0.1,0-0.1-0.1c0-0.1,0-0.1,0-0.2c0-0.2,0-0.5,0-0.8c0,0,0-0.1,0-0.3   c0-0.2,0-0.3,0-0.4v-0.1c0-0.1,0-0.1,0.1-0.1s0.1,0.1,0.1,0.1c0.1,0.4,0.2,0.8,0.4,1c0.4,0.5,0.9,0.7,1.5,0.7   c0.3,0,0.6-0.1,0.8-0.3c0.2-0.2,0.3-0.5,0.3-0.8c0-0.4-0.1-0.6-0.4-0.9c-0.1-0.1-0.2-0.2-0.4-0.3c-0.1-0.1-0.4-0.2-0.9-0.4   c-1-0.4-1.5-1-1.5-1.8c0-0.5,0.2-1,0.5-1.3c0.4-0.4,0.8-0.5,1.3-0.5c0.2,0,0.5,0.1,0.8,0.2c0.1,0,0.2,0,0.2,0   c0.2,0,0.3-0.1,0.4-0.3c0-0.1,0.1-0.1,0.1-0.1c0.1,0,0.1,0,0.1,0.1c0,0,0,0,0,0.1v0.6c0,0.2,0,0.6,0.1,1.1v0c0,0.1,0,0.1-0.1,0.1   c-0.1,0-0.1-0.1-0.2-0.4c-0.1-0.3-0.3-0.6-0.5-0.8c-0.2-0.2-0.6-0.3-0.9-0.3c-0.3,0-0.6,0.1-0.8,0.3c-0.2,0.2-0.3,0.4-0.3,0.7   c0,0.5,0.3,0.8,0.9,1.1c1,0.4,1.6,0.7,1.8,0.9C187.1,190.7,187.2,191.1,187.2,191.5z"
   id="path937" />
	<path
   d="M193.9,190.3c0,0.9-0.3,1.6-0.8,2.3s-1.2,0.9-2,0.9c-0.8,0-1.6-0.3-2.1-0.9c-0.6-0.6-0.9-1.4-0.9-2.3   c0-0.9,0.3-1.7,0.8-2.3s1.2-0.9,2.1-0.9c0.8,0,1.5,0.3,2.1,0.9C193.6,188.6,193.9,189.4,193.9,190.3z M192.6,190.3   c0-1-0.2-1.8-0.5-2.4c-0.2-0.4-0.6-0.6-1.2-0.6c-0.5,0-0.9,0.3-1.2,0.8c-0.3,0.5-0.4,1.3-0.4,2.2c0,0.9,0.2,1.7,0.5,2.2   s0.7,0.8,1.3,0.8c0.4,0,0.7-0.2,0.9-0.5C192.4,192.2,192.6,191.3,192.6,190.3z"
   id="path939" />
	<path
   d="M203.5,193c0,0.1-0.1,0.1-0.2,0.1h-0.1c-0.1,0-0.1,0-0.2,0h-0.1c-0.5,0-0.8,0.1-1.2,0.3c-0.1,0.1-0.2,0.1-0.2,0.1   c-0.1,0-0.1-0.1-0.1-0.2l0-0.4c-0.4,0.4-0.9,0.6-1.4,0.6c-0.8,0-1.4-0.3-1.9-0.9c-0.5-0.6-0.8-1.4-0.8-2.3c0-1,0.2-1.7,0.8-2.3   c0.5-0.6,1.2-0.9,2-0.9c0.6,0,1.1,0.2,1.4,0.7v-2.2c0-0.7,0-1.1-0.1-1.3c-0.1-0.1-0.1-0.2-0.2-0.2c-0.3,0-0.4,0-0.5,0   c-0.1,0-0.2,0-0.2-0.1s0.1-0.1,0.1-0.1l0.5,0c0.3,0,0.7-0.1,1.3-0.4c0,0,0.1,0,0.1,0c0.1,0,0.1,0.1,0.1,0.3c0,0.1,0,0.1,0,0.3   c0,0.1,0,0.3,0,0.4v4.8c0,2.2,0,3.4,0.1,3.5c0,0.1,0.2,0.1,0.6,0.1C203.5,192.9,203.5,192.9,203.5,193z M201.5,189.5   c0-0.9-0.1-1.5-0.3-1.7c-0.2-0.3-0.6-0.5-1-0.5c-0.5,0-0.9,0.3-1.2,0.8s-0.4,1.2-0.4,2.1c0,0.8,0.1,1.6,0.4,2.1   c0.1,0.2,0.3,0.5,0.5,0.6c0.2,0.2,0.4,0.2,0.7,0.2c0.3,0,0.6-0.1,0.8-0.3s0.4-0.4,0.4-0.6C201.4,192.1,201.5,191.1,201.5,189.5z"
   id="path941" />
	<path
   d="M209.1,191.8c0,0.1-0.1,0.3-0.2,0.5c-0.1,0.2-0.3,0.4-0.4,0.6c-0.4,0.4-0.9,0.6-1.6,0.6c-0.8,0-1.5-0.3-2.1-0.9   c-0.6-0.6-0.8-1.4-0.8-2.2c0-0.9,0.3-1.7,0.8-2.3c0.5-0.6,1.2-0.9,2-0.9c0.7,0,1.2,0.2,1.7,0.6c0.4,0.4,0.7,0.9,0.7,1.5   c-0.3,0.1-0.7,0.1-1.2,0.1h-1c-0.1,0-0.6,0-1.7,0c-0.1,0.3-0.1,0.6-0.1,0.9c0,0.9,0.2,1.6,0.5,2.2c0.4,0.5,0.9,0.8,1.5,0.8   c0.4,0,0.7-0.1,0.9-0.2s0.5-0.5,0.7-1c0-0.1,0.1-0.1,0.1-0.1C209.1,191.7,209.1,191.7,209.1,191.8z M207.9,188.9   c0-1.1-0.4-1.7-1.2-1.7c-0.8,0-1.2,0.6-1.4,1.7H207.9z"
   id="path943" />
	<path
   d="M215.2,193.2c0,0.1-0.1,0.1-0.2,0.1h-0.2c0,0-0.3,0-0.7,0h-0.4c-0.1,0-0.4,0-1.1,0c-0.1,0-0.1,0-0.2,0   c-0.1,0-0.2,0-0.2-0.1c0-0.1,0.1-0.1,0.1-0.1h0.4c0.3,0,0.4-0.1,0.4-0.2c0-0.1,0-0.4,0-1.1v-7.1c0-0.3,0-0.5,0-0.5   c0-0.1-0.1-0.1-0.2-0.1h-0.1h-0.4c-0.1,0-0.2,0-0.2-0.1c0-0.1,0.1-0.1,0.4-0.1c0.4,0,0.9-0.1,1.2-0.3l0.3-0.1l0.1,0   c0.1,0.3,0.1,0.7,0.1,1.2v1v6.8c0,0.3,0,0.4,0,0.5s0,0.1,0.1,0.1c0,0,0.2,0,0.5,0C215.1,193.1,215.2,193.1,215.2,193.2z"
   id="path945" />
	<path
   d="M221.3,192.7c0,0.2-0.2,0.3-0.5,0.5s-0.6,0.3-0.9,0.3c-0.6,0-1-0.3-1-1c-0.4,0.7-0.9,1-1.6,1c-0.4,0-0.7-0.1-1-0.4   c-0.3-0.2-0.4-0.5-0.4-0.9c0-0.8,0.5-1.4,1.4-1.8c0.3-0.1,0.9-0.3,1.6-0.4v-0.4c0-0.8,0-1.4-0.1-1.6c-0.1-0.5-0.5-0.7-1-0.7   c-0.3,0-0.6,0.1-0.8,0.3c-0.2,0.2-0.3,0.4-0.3,0.7c0,0.1,0.1,0.1,0.2,0.1s0.2,0.1,0.3,0.2c0.1,0.1,0.1,0.2,0.1,0.4   c0,0.4-0.2,0.6-0.6,0.6c-0.2,0-0.4-0.1-0.5-0.2c-0.1-0.1-0.2-0.3-0.2-0.6c0-0.4,0.2-0.8,0.5-1.1c0.4-0.3,0.9-0.5,1.6-0.5   c1,0,1.6,0.3,1.9,0.8c0.1,0.2,0.1,0.6,0.1,1.3v2.6c0,0.4,0,0.7,0,0.8c0.1,0.3,0.2,0.5,0.4,0.5c0.3,0,0.5-0.1,0.6-0.3   C221.1,192.6,221.2,192.6,221.3,192.7C221.3,192.6,221.3,192.6,221.3,192.7z M218.9,191.2v-1c-0.7,0.2-1.2,0.4-1.5,0.6   c-0.3,0.3-0.4,0.6-0.4,1c0,0.3,0.1,0.5,0.2,0.7s0.4,0.3,0.6,0.3c0.4,0,0.7-0.2,0.9-0.7C218.8,192.1,218.9,191.7,218.9,191.2z"
   id="path947" />
	<path
   d="M230,190.6c0,0.8-0.3,1.5-0.9,2s-1.3,0.8-2.2,0.8c-0.5,0-1.1-0.1-1.8-0.5c-0.2-0.1-0.3-0.1-0.4-0.1c-0.1,0-0.2,0.1-0.2,0.4   c0,0.1-0.1,0.2-0.2,0.2c-0.1,0-0.1-0.1-0.1-0.2c0-0.1,0-0.1,0-0.2c0.1-0.6,0.1-1.1,0.1-1.6c0-0.1,0-0.4,0-0.8c0-0.1,0-0.1,0-0.2   c0-0.1,0.1-0.2,0.2-0.2c0.1,0,0.2,0.1,0.2,0.3c0.2,1.7,1,2.5,2.4,2.5c0.6,0,1-0.2,1.3-0.5c0.3-0.3,0.5-0.8,0.5-1.4   c0-0.5-0.1-1-0.4-1.3s-0.8-0.7-1.6-1.1c-0.9-0.4-1.5-0.9-1.8-1.3c-0.3-0.4-0.5-0.9-0.5-1.5c0-0.8,0.2-1.4,0.7-1.9   c0.5-0.5,1.1-0.8,1.9-0.8c0.3,0,0.8,0.1,1.3,0.3c0.2,0.1,0.3,0.1,0.4,0.1c0.1,0,0.2,0,0.2-0.1s0.1-0.1,0.1-0.3   c0-0.1,0.1-0.1,0.1-0.1c0.1,0,0.1,0.1,0.1,0.2c0,0.1,0,0.1,0,0.2c0,0.2,0,0.5,0,0.8c0,0.4,0,0.8,0.1,1.1l0,0.2c0,0.1,0,0.1-0.1,0.1   c-0.1,0-0.2-0.1-0.2-0.3c-0.1-0.6-0.3-1-0.7-1.4s-0.8-0.6-1.3-0.6c-0.5,0-0.8,0.1-1.1,0.4c-0.3,0.3-0.4,0.7-0.4,1.2   c0,0.6,0.2,1.1,0.6,1.4c0.2,0.2,0.7,0.5,1.4,0.9c0.9,0.4,1.5,0.9,1.9,1.3C229.8,189.5,230,190,230,190.6z"
   id="path949" />
	<path
   d="M236.6,190.3c0,0.9-0.3,1.6-0.8,2.3s-1.2,0.9-2,0.9c-0.8,0-1.6-0.3-2.1-0.9c-0.6-0.6-0.9-1.4-0.9-2.3   c0-0.9,0.3-1.7,0.8-2.3s1.2-0.9,2.1-0.9s1.5,0.3,2.1,0.9C236.4,188.6,236.6,189.4,236.6,190.3z M235.4,190.3c0-1-0.2-1.8-0.5-2.4   c-0.2-0.4-0.6-0.6-1.2-0.6c-0.5,0-0.9,0.3-1.2,0.8c-0.3,0.5-0.4,1.3-0.4,2.2c0,0.9,0.2,1.7,0.5,2.2s0.7,0.8,1.3,0.8   c0.4,0,0.7-0.2,0.9-0.5C235.2,192.2,235.4,191.3,235.4,190.3z"
   id="path951" />
	<path
   d="M242.5,188.5c0,0.4-0.2,0.6-0.6,0.6c-0.4,0-0.6-0.2-0.6-0.6c0-0.1,0.1-0.2,0.1-0.5c0-0.1,0-0.1,0-0.2   c0-0.2-0.1-0.3-0.3-0.5c-0.2-0.1-0.4-0.2-0.7-0.2c-0.6,0-1,0.2-1.3,0.7c-0.3,0.5-0.5,1.2-0.5,2c0,1,0.2,1.7,0.5,2.3   s0.8,0.8,1.3,0.8c0.4,0,0.7-0.1,1-0.4c0.1-0.1,0.3-0.3,0.5-0.6c0.1-0.1,0.1-0.1,0.1-0.1c0.1,0,0.1,0,0.1,0.1c0,0.1-0.2,0.4-0.5,0.7   c-0.4,0.4-0.9,0.6-1.6,0.6c-0.8,0-1.5-0.3-2-0.9c-0.5-0.6-0.8-1.3-0.8-2.2c0-1,0.3-1.8,0.9-2.4s1.3-0.9,2.1-0.9   c0.6,0,1,0.1,1.4,0.4C242.3,187.8,242.5,188.1,242.5,188.5z"
   id="path953" />
	<path
   d="M246.1,193.2c0,0.1-0.1,0.1-0.2,0.1c0,0-0.1,0-0.3,0c-0.3,0-0.5,0-0.7,0h-1.4c-0.1,0-0.1,0.1-0.2,0.1c-0.1,0-0.1,0-0.1-0.1   c0-0.1,0.1-0.1,0.3-0.1c0.4,0,0.5,0,0.6-0.1c0,0,0.1-0.2,0.1-0.6v-4.2c0-0.2,0-0.4,0-0.4c0,0-0.1-0.1-0.2-0.1h-0.4c0,0-0.1,0-0.1,0   c-0.1,0-0.1,0-0.1-0.1c0-0.1,0.1-0.1,0.2-0.1c0.6,0,1.1-0.2,1.6-0.4l0.1-0.1c0.1,0.1,0.1,0.4,0.1,0.8c0,0,0,0,0,0.1s0,0.3,0,0.5   v3.8c0,0.4,0,0.6,0,0.6c0,0.1,0.1,0.1,0.1,0.1c0.1,0,0.3,0.1,0.6,0.1C246,193.1,246.1,193.1,246.1,193.2z M245.1,184.5   c0,0.4-0.2,0.6-0.6,0.6c-0.2,0-0.3-0.1-0.4-0.2c-0.1-0.1-0.2-0.3-0.2-0.4c0-0.4,0.2-0.6,0.6-0.6   C244.9,183.9,245.1,184.1,245.1,184.5z"
   id="path955" />
	<path
   d="M251.8,191.8c0,0.1-0.1,0.3-0.2,0.5c-0.1,0.2-0.3,0.4-0.4,0.6c-0.4,0.4-0.9,0.6-1.6,0.6c-0.8,0-1.5-0.3-2.1-0.9   c-0.6-0.6-0.8-1.4-0.8-2.2c0-0.9,0.3-1.7,0.8-2.3c0.5-0.6,1.2-0.9,2-0.9c0.7,0,1.2,0.2,1.7,0.6c0.4,0.4,0.7,0.9,0.7,1.5   c-0.3,0.1-0.7,0.1-1.2,0.1h-1c-0.1,0-0.6,0-1.7,0c-0.1,0.3-0.1,0.6-0.1,0.9c0,0.9,0.2,1.6,0.5,2.2c0.4,0.5,0.9,0.8,1.5,0.8   c0.4,0,0.7-0.1,0.9-0.2s0.5-0.5,0.7-1c0-0.1,0.1-0.1,0.1-0.1C251.8,191.7,251.8,191.7,251.8,191.8z M250.6,188.9   c0-1.1-0.4-1.7-1.2-1.7c-0.8,0-1.2,0.6-1.4,1.7H250.6z"
   id="path957" />
	<path
   d="M258.9,193c0,0.1-0.1,0.1-0.2,0.1h-0.1c-0.1,0-0.1,0-0.2,0h-0.1c-0.5,0-0.8,0.1-1.2,0.3c-0.1,0.1-0.2,0.1-0.2,0.1   c-0.1,0-0.1-0.1-0.1-0.2l0-0.4c-0.4,0.4-0.9,0.6-1.4,0.6c-0.8,0-1.4-0.3-1.9-0.9c-0.5-0.6-0.8-1.4-0.8-2.3c0-1,0.2-1.7,0.8-2.3   c0.5-0.6,1.2-0.9,2-0.9c0.6,0,1.1,0.2,1.4,0.7v-2.2c0-0.7,0-1.1-0.1-1.3c0-0.1-0.1-0.2-0.2-0.2c-0.3,0-0.4,0-0.5,0   c-0.1,0-0.2,0-0.2-0.1s0.1-0.1,0.1-0.1l0.5,0c0.3,0,0.7-0.1,1.3-0.4c0,0,0.1,0,0.1,0c0.1,0,0.1,0.1,0.1,0.3c0,0.1,0,0.1,0,0.3   c0,0.1,0,0.3,0,0.4v4.8c0,2.2,0,3.4,0.1,3.5c0,0.1,0.2,0.1,0.6,0.1C258.8,192.9,258.9,192.9,258.9,193z M256.8,189.5   c0-0.9-0.1-1.5-0.3-1.7c-0.2-0.3-0.6-0.5-1-0.5c-0.5,0-0.9,0.3-1.2,0.8s-0.4,1.2-0.4,2.1c0,0.8,0.1,1.6,0.4,2.1   c0.1,0.2,0.3,0.5,0.5,0.6c0.2,0.2,0.4,0.2,0.7,0.2c0.3,0,0.6-0.1,0.8-0.3s0.4-0.4,0.5-0.6C256.8,192.1,256.8,191.1,256.8,189.5z"
   id="path959" />
	<path
   d="M264.8,192.7c0,0.2-0.2,0.3-0.5,0.5s-0.6,0.3-1,0.3c-0.6,0-1-0.3-1-1c-0.4,0.7-0.9,1-1.6,1c-0.4,0-0.7-0.1-1-0.4   c-0.3-0.2-0.4-0.5-0.4-0.9c0-0.8,0.5-1.4,1.4-1.8c0.3-0.1,0.9-0.3,1.6-0.4v-0.4c0-0.8,0-1.4-0.1-1.6c-0.1-0.5-0.5-0.7-1-0.7   c-0.3,0-0.6,0.1-0.8,0.3c-0.2,0.2-0.3,0.4-0.3,0.7c0,0.1,0.1,0.1,0.2,0.1c0.1,0,0.2,0.1,0.3,0.2c0.1,0.1,0.1,0.2,0.1,0.4   c0,0.4-0.2,0.6-0.6,0.6c-0.2,0-0.4-0.1-0.5-0.2c-0.1-0.1-0.2-0.3-0.2-0.6c0-0.4,0.2-0.8,0.5-1.1c0.4-0.3,0.9-0.5,1.6-0.5   c1,0,1.6,0.3,1.9,0.8c0.1,0.2,0.1,0.6,0.1,1.3v2.6c0,0.4,0,0.7,0,0.8c0,0.3,0.2,0.5,0.4,0.5c0.3,0,0.5-0.1,0.6-0.3   C264.6,192.6,264.7,192.6,264.8,192.7C264.8,192.6,264.8,192.6,264.8,192.7z M262.4,191.2v-1c-0.7,0.2-1.2,0.4-1.5,0.6   c-0.3,0.3-0.5,0.6-0.5,1c0,0.3,0.1,0.5,0.2,0.7s0.4,0.3,0.6,0.3c0.4,0,0.7-0.2,1-0.7C262.3,192.1,262.4,191.7,262.4,191.2z"
   id="path961" />
	<path
   d="M271,193c0,0.1-0.1,0.1-0.2,0.1h-0.1c-0.1,0-0.1,0-0.2,0h-0.1c-0.5,0-0.8,0.1-1.2,0.3c-0.1,0.1-0.2,0.1-0.2,0.1   c-0.1,0-0.1-0.1-0.1-0.2l0-0.4c-0.4,0.4-0.9,0.6-1.4,0.6c-0.8,0-1.4-0.3-1.9-0.9c-0.5-0.6-0.8-1.4-0.8-2.3c0-1,0.2-1.7,0.8-2.3   c0.5-0.6,1.2-0.9,2-0.9c0.6,0,1.1,0.2,1.4,0.7v-2.2c0-0.7,0-1.1-0.1-1.3c0-0.1-0.1-0.2-0.2-0.2c-0.3,0-0.4,0-0.5,0   c-0.1,0-0.2,0-0.2-0.1s0-0.1,0.1-0.1l0.5,0c0.3,0,0.7-0.1,1.3-0.4c0,0,0.1,0,0.1,0c0.1,0,0.1,0.1,0.1,0.3c0,0.1,0,0.1,0,0.3   c0,0.1,0,0.3,0,0.4v4.8c0,2.2,0,3.4,0.1,3.5c0,0.1,0.2,0.1,0.6,0.1C270.9,192.9,271,192.9,271,193z M268.9,189.5   c0-0.9-0.1-1.5-0.3-1.7c-0.2-0.3-0.6-0.5-1-0.5c-0.5,0-0.9,0.3-1.2,0.8c-0.3,0.5-0.4,1.2-0.4,2.1c0,0.8,0.1,1.6,0.4,2.1   c0.1,0.2,0.3,0.5,0.5,0.6c0.2,0.2,0.4,0.2,0.7,0.2c0.3,0,0.5-0.1,0.8-0.3s0.4-0.4,0.5-0.6C268.9,192.1,268.9,191.1,268.9,189.5z"
   id="path963" />
	<path
   d="M282.5,193.2c0,0.1-0.1,0.1-0.2,0.1c-0.1,0-0.2,0-0.2,0l-1.8-0.1l-1.8,0.1c-0.1,0-0.1,0-0.2,0c-0.2,0-0.3-0.1-0.3-0.1   c0-0.1,0.1-0.2,0.4-0.2c0.8,0,1.2-0.1,1.2-0.2c0,0,0,0,0-0.1l-0.1-0.4l-0.1-0.2c-0.1-0.3-0.3-0.9-0.6-1.9h-3   c-0.6,1.5-0.8,2.3-0.8,2.6c0,0.1,0.1,0.2,0.2,0.2c0,0,0.3,0,0.7,0.1c0.3,0,0.4,0.1,0.4,0.1c0,0.1-0.1,0.1-0.4,0.1   c-0.4,0-0.9,0-1.5-0.1c-0.1,0-0.3,0-0.4,0s-0.3,0-0.4,0.1c-0.1,0-0.1,0-0.2,0c-0.1,0-0.2,0-0.2-0.1s0.1-0.1,0.4-0.1   s0.5-0.1,0.6-0.1s0.2-0.2,0.3-0.4c1.2-3.4,2.2-6.2,2.9-8.2c0-0.1,0.1-0.2,0.1-0.4l0.1-0.2c0-0.1,0.1-0.1,0.1-0.1c0,0,0,0,0.1,0.1   c0.1,0.4,0.4,1.1,0.8,2.3c0.3,0.9,1.2,3.2,2.5,6.8c0.1,0.2,0.2,0.3,0.3,0.4s0.4,0.1,0.7,0.1C282.4,193.1,282.5,193.1,282.5,193.2z    M278.8,189.9c-0.1-0.4-0.4-1.1-0.8-2.1l-0.7-1.9c-0.4,1-0.9,2.4-1.4,4H278.8z"
   id="path965" />
	<path
   d="M286.6,188c0,0.2-0.1,0.4-0.2,0.5c-0.1,0.1-0.3,0.2-0.5,0.2c-0.2,0-0.3-0.1-0.4-0.1c-0.1-0.1-0.2-0.2-0.2-0.4   c0-0.1,0-0.2,0.1-0.3s0.1-0.2,0.1-0.2c0-0.1-0.1-0.2-0.3-0.2c-0.3,0-0.5,0.2-0.7,0.5c-0.2,0.4-0.3,1.1-0.3,2.1v2.7   c0,0.1,0,0.2,0.1,0.2c0.1,0,0.3,0.1,0.7,0.1c0.1,0,0.1,0.1,0.1,0.1c0,0.1-0.1,0.1-0.2,0.1c-0.2,0-0.4,0-0.6,0s-0.5,0-1.1,0   c-0.3,0-0.5,0-0.6,0s-0.3,0-0.5,0c-0.1,0-0.2,0-0.2-0.1s0.1-0.1,0.2-0.1h0.2c0.3,0,0.5,0,0.6-0.1c0,0,0-0.2,0-0.5v-3.8   c0-0.5-0.1-0.8-0.2-0.9c-0.1-0.1-0.4-0.1-0.7-0.1c-0.1,0-0.2,0-0.2-0.1s0-0.1,0.1-0.1h0.1c0.1,0,0.3,0,0.4,0c0.1,0,0.2,0,0.2,0   c0.3,0,0.7-0.1,1.1-0.3l0.2-0.1l0.1,0c0,0.2,0.1,0.4,0.1,0.7v0.3c0.3-0.6,0.7-0.9,1.2-0.9c0.3,0,0.5,0.1,0.7,0.3   C286.5,187.5,286.6,187.8,286.6,188z"
   id="path967" />
	<path
   d="M293.5,187.9c0,0.4-0.2,0.6-0.6,0.6c-0.1,0-0.2,0-0.4-0.1c-0.1-0.1-0.2-0.2-0.2-0.3c0,0,0-0.1,0-0.2s0-0.1,0-0.2   c0-0.1-0.1-0.2-0.2-0.2c-0.1,0-0.2,0.1-0.3,0.2c-0.1,0.1-0.1,0.2-0.1,0.4c0,0,0,0.2,0.1,0.5c0,0.3,0.1,0.5,0.1,0.6   c0,0.6-0.2,1.2-0.6,1.6c-0.4,0.4-1,0.6-1.6,0.6c-0.2,0-0.5-0.1-0.9-0.2c-0.1,0-0.2-0.1-0.2-0.1c-0.2,0-0.4,0.1-0.5,0.2   s-0.2,0.3-0.2,0.5c0,0.5,0.3,0.7,0.9,0.7c0.2,0,0.6,0,1.1-0.1c0.4-0.1,0.7-0.1,1-0.1c0.6,0,1,0.1,1.3,0.4c0.3,0.3,0.5,0.7,0.5,1.2   c0,0.8-0.3,1.5-1,2s-1.5,0.8-2.6,0.8c-0.8,0-1.4-0.2-1.8-0.5s-0.7-0.7-0.7-1.3c0-0.5,0.2-0.9,0.6-1.2c0.2-0.1,0.5-0.2,1-0.4   c-0.7-0.3-1-0.7-1-1.2c0-0.7,0.4-1.1,1.3-1.4c-0.6-0.4-0.8-1-0.8-1.7c0-0.7,0.2-1.2,0.6-1.6c0.4-0.4,1-0.6,1.7-0.6   c0.4,0,0.7,0.1,0.9,0.1c0.2,0.1,0.5,0.3,0.8,0.6c0.3-0.4,0.7-0.6,1.1-0.6C293.2,187.2,293.5,187.4,293.5,187.9z M292,194.6   c0-0.8-0.5-1.2-1.4-1.2c-0.3,0-0.6,0-1.1,0.1c-0.5,0.1-0.9,0.1-1.1,0.1c-0.5,0.2-0.7,0.7-0.7,1.3c0,0.5,0.2,0.9,0.5,1.1   s0.8,0.4,1.3,0.4c0.7,0,1.3-0.2,1.8-0.6C291.7,195.6,292,195.1,292,194.6z M290.9,189.3c0-1.3-0.4-2-1.1-2c-0.7,0-1.1,0.6-1.1,1.9   c0,1.4,0.4,2.1,1.1,2.1C290.5,191.2,290.9,190.6,290.9,189.3z"
   id="path969" />
	<path
   d="M298.8,191.8c0,0.1-0.1,0.3-0.2,0.5c-0.1,0.2-0.3,0.4-0.4,0.6c-0.4,0.4-0.9,0.6-1.6,0.6c-0.8,0-1.5-0.3-2.1-0.9   c-0.6-0.6-0.8-1.4-0.8-2.2c0-0.9,0.3-1.7,0.8-2.3c0.5-0.6,1.2-0.9,2-0.9c0.7,0,1.2,0.2,1.7,0.6c0.5,0.4,0.7,0.9,0.7,1.5   c-0.3,0.1-0.7,0.1-1.2,0.1h-1c-0.1,0-0.6,0-1.7,0c0,0.3-0.1,0.6-0.1,0.9c0,0.9,0.2,1.6,0.5,2.2c0.4,0.5,0.9,0.8,1.5,0.8   c0.4,0,0.7-0.1,0.9-0.2s0.5-0.5,0.7-1c0-0.1,0.1-0.1,0.1-0.1S298.8,191.7,298.8,191.8z M297.5,188.9c0-1.1-0.4-1.7-1.2-1.7   c-0.8,0-1.2,0.6-1.4,1.7H297.5z"
   id="path971" />
	<path
   d="M305.9,193.2c0,0.1-0.1,0.1-0.2,0.1h-0.2c-0.2,0-0.4,0-0.7,0c-0.9,0-1.5,0-1.6,0h-0.1c-0.1,0-0.2,0-0.2-0.1   c0-0.1,0-0.1,0.1-0.1s0.2,0,0.5,0c0.2,0,0.3,0,0.3-0.1c0,0,0-0.2,0-0.4v-2.7c0-1,0-1.6-0.1-1.8c-0.2-0.4-0.5-0.6-1-0.6   c-0.5,0-0.9,0.2-1.2,0.6c-0.1,0.1-0.1,0.3-0.1,0.5v4.3c0,0.1,0.1,0.2,0.3,0.2l0.4,0c0.1,0,0.1,0,0.1,0.1c0,0.1-0.1,0.1-0.2,0.1H302   c-0.2,0-0.5,0-1,0c-0.1,0-0.3,0-0.7,0s-0.5,0-0.6,0h-0.1c-0.1,0-0.2,0-0.2-0.1c0-0.1,0.1-0.1,0.2-0.1c0.1,0,0.2,0,0.4,0   c0.1,0,0.2,0,0.2-0.1l0-0.2v-3c0-1.1,0-1.6,0-1.8s-0.1-0.2-0.4-0.2c-0.1,0-0.2,0-0.3,0h-0.1c-0.2,0-0.3,0-0.3-0.1   c0-0.1,0.1-0.1,0.3-0.1c0.3,0,0.6-0.1,0.9-0.1s0.5-0.2,0.7-0.3c0.1-0.1,0.1-0.1,0.2-0.1c0.1,0,0.1,0.1,0.1,0.3v0.7   c0.5-0.6,1.1-0.9,1.9-0.9c0.7,0,1.1,0.2,1.5,0.7c0.2,0.3,0.2,0.8,0.2,1.6v3.2c0,0.3,0,0.5,0,0.5c0.1,0.1,0.2,0.1,0.4,0.1   c0,0,0.1,0,0.1,0h0.1C305.8,193.1,305.9,193.1,305.9,193.2z"
   id="path973" />
	<path
   d="M310.1,192.5c0,0.1-0.1,0.2-0.4,0.4c-0.4,0.4-0.9,0.5-1.4,0.5c-0.5,0-0.9-0.1-1.1-0.4c-0.1-0.1-0.2-0.6-0.2-1.3v-4.1   c0-0.1-0.1-0.1-0.1-0.1h-0.5c-0.2,0-0.3,0-0.3-0.1s0-0.1,0.1-0.1c0.7-0.1,1.3-0.4,1.7-1.1c0-0.1,0.1-0.1,0.2-0.1   c0.1,0,0.1,0,0.1,0.1v0.1c0,0.1,0,0.1,0,0.2c0,0.4,0,0.6,0.1,0.8c0.1,0,0.2,0,0.4,0c0.5,0,0.9,0,1-0.1c0,0,0.1,0,0.1,0   c0.1,0,0.1,0,0.1,0.1c0,0.1-0.4,0.2-1.1,0.2c-0.1,0-0.3,0-0.6,0v2.6c0,1.3,0,2.1,0.1,2.4c0.1,0.3,0.3,0.5,0.6,0.5   c0.3,0,0.6-0.2,1-0.5C310,192.4,310,192.4,310.1,192.5C310.1,192.4,310.1,192.4,310.1,192.5z"
   id="path975" />
	<path
   d="M313.2,193.2c0,0.1-0.1,0.1-0.2,0.1c0,0-0.1,0-0.3,0c-0.3,0-0.5,0-0.7,0h-1.5c0,0-0.1,0.1-0.2,0.1c-0.1,0-0.1,0-0.1-0.1   c0-0.1,0.1-0.1,0.3-0.1c0.4,0,0.5,0,0.6-0.1c0,0,0-0.2,0-0.6v-4.2c0-0.2,0-0.4,0-0.4c0,0-0.1-0.1-0.2-0.1h-0.4c0,0-0.1,0-0.1,0   c-0.1,0-0.1,0-0.1-0.1c0-0.1,0.1-0.1,0.2-0.1c0.6,0,1.1-0.2,1.6-0.4l0.1-0.1c0.1,0.1,0.1,0.4,0.1,0.8c0,0,0,0,0,0.1s0,0.3,0,0.5   v3.8c0,0.4,0,0.6,0,0.6c0,0.1,0.1,0.1,0.1,0.1c0.1,0,0.3,0.1,0.6,0.1C313.2,193.1,313.2,193.1,313.2,193.2z M312.2,184.5   c0,0.4-0.2,0.6-0.6,0.6c-0.2,0-0.3-0.1-0.5-0.2c-0.1-0.1-0.2-0.3-0.2-0.4c0-0.4,0.2-0.6,0.6-0.6C312,183.9,312.2,184.1,312.2,184.5   z"
   id="path977" />
	<path
   d="M320.1,193.2c0,0.1-0.1,0.1-0.2,0.1h-0.2c-0.2,0-0.4,0-0.7,0c-0.9,0-1.5,0-1.6,0h-0.1c-0.1,0-0.2,0-0.2-0.1   c0-0.1,0-0.1,0.1-0.1s0.2,0,0.5,0c0.2,0,0.3,0,0.3-0.1c0,0,0-0.2,0-0.4v-2.7c0-1,0-1.6-0.1-1.8c-0.2-0.4-0.5-0.6-1-0.6   c-0.5,0-0.9,0.2-1.2,0.6c-0.1,0.1-0.1,0.3-0.1,0.5v4.3c0,0.1,0.1,0.2,0.3,0.2l0.4,0c0.1,0,0.1,0,0.1,0.1c0,0.1-0.1,0.1-0.2,0.1   h-0.2c-0.2,0-0.5,0-1,0c-0.1,0-0.3,0-0.7,0s-0.5,0-0.6,0h-0.1c-0.1,0-0.2,0-0.2-0.1c0-0.1,0.1-0.1,0.2-0.1c0.1,0,0.2,0,0.4,0   c0.1,0,0.2,0,0.2-0.1l0-0.2v-3c0-1.1,0-1.6,0-1.8s-0.1-0.2-0.4-0.2c-0.1,0-0.2,0-0.3,0h-0.1c-0.2,0-0.3,0-0.3-0.1   c0-0.1,0.1-0.1,0.3-0.1c0.3,0,0.6-0.1,0.9-0.1s0.5-0.2,0.7-0.3c0.1-0.1,0.1-0.1,0.2-0.1c0.1,0,0.1,0.1,0.1,0.3v0.7   c0.5-0.6,1.1-0.9,1.9-0.9c0.7,0,1.1,0.2,1.5,0.7c0.2,0.3,0.2,0.8,0.2,1.6v3.2c0,0.3,0,0.5,0,0.5c0.1,0.1,0.2,0.1,0.4,0.1   c0,0,0.1,0,0.1,0h0.1C320,193.1,320.1,193.1,320.1,193.2z"
   id="path979" />
	<path
   d="M326.1,192.7c0,0.2-0.2,0.3-0.5,0.5s-0.6,0.3-1,0.3c-0.6,0-1-0.3-1-1c-0.4,0.7-0.9,1-1.6,1c-0.4,0-0.7-0.1-1-0.4   c-0.3-0.2-0.4-0.5-0.4-0.9c0-0.8,0.5-1.4,1.4-1.8c0.3-0.1,0.9-0.3,1.6-0.4v-0.4c0-0.8,0-1.4-0.1-1.6c-0.1-0.5-0.5-0.7-1-0.7   c-0.3,0-0.6,0.1-0.8,0.3c-0.2,0.2-0.3,0.4-0.3,0.7c0,0.1,0.1,0.1,0.2,0.1c0.1,0,0.2,0.1,0.3,0.2c0.1,0.1,0.1,0.2,0.1,0.4   c0,0.4-0.2,0.6-0.6,0.6c-0.2,0-0.4-0.1-0.5-0.2c-0.1-0.1-0.2-0.3-0.2-0.6c0-0.4,0.2-0.8,0.5-1.1c0.4-0.3,0.9-0.5,1.6-0.5   c1,0,1.6,0.3,1.9,0.8c0.1,0.2,0.1,0.6,0.1,1.3v2.6c0,0.4,0,0.7,0,0.8c0,0.3,0.2,0.5,0.4,0.5c0.3,0,0.5-0.1,0.6-0.3   C325.9,192.6,326,192.6,326.1,192.7C326.1,192.6,326.1,192.6,326.1,192.7z M323.7,191.2v-1c-0.7,0.2-1.2,0.4-1.5,0.6   c-0.3,0.3-0.5,0.6-0.5,1c0,0.3,0.1,0.5,0.2,0.7s0.4,0.3,0.6,0.3c0.4,0,0.7-0.2,1-0.7C323.6,192.1,323.7,191.7,323.7,191.2z"
   id="path981" />
	<path
   d="M334.9,193c0,0.1-0.1,0.1-0.2,0.1h-0.1c-0.1,0-0.1,0-0.2,0h-0.1c-0.5,0-0.8,0.1-1.2,0.3c-0.1,0.1-0.2,0.1-0.2,0.1   c-0.1,0-0.1-0.1-0.1-0.2l0-0.4c-0.4,0.4-0.9,0.6-1.4,0.6c-0.8,0-1.4-0.3-1.9-0.9c-0.5-0.6-0.8-1.4-0.8-2.3c0-1,0.2-1.7,0.8-2.3   c0.5-0.6,1.2-0.9,2-0.9c0.6,0,1.1,0.2,1.4,0.7v-2.2c0-0.7,0-1.1-0.1-1.3c0-0.1-0.1-0.2-0.2-0.2c-0.3,0-0.4,0-0.5,0   c-0.1,0-0.2,0-0.2-0.1s0-0.1,0.1-0.1l0.5,0c0.3,0,0.7-0.1,1.3-0.4c0,0,0.1,0,0.1,0c0.1,0,0.1,0.1,0.1,0.3c0,0.1,0,0.1,0,0.3   c0,0.1,0,0.3,0,0.4v4.8c0,2.2,0,3.4,0.1,3.5c0,0.1,0.2,0.1,0.6,0.1C334.8,192.9,334.9,192.9,334.9,193z M332.9,189.5   c0-0.9-0.1-1.5-0.3-1.7c-0.2-0.3-0.6-0.5-1-0.5c-0.5,0-0.9,0.3-1.2,0.8c-0.3,0.5-0.4,1.2-0.4,2.1c0,0.8,0.1,1.6,0.4,2.1   c0.1,0.2,0.3,0.5,0.5,0.6c0.2,0.2,0.4,0.2,0.7,0.2c0.3,0,0.5-0.1,0.8-0.3s0.4-0.4,0.5-0.6C332.8,192.1,332.9,191.1,332.9,189.5z"
   id="path983" />
	<path
   d="M340.5,191.8c0,0.1-0.1,0.3-0.2,0.5c-0.1,0.2-0.3,0.4-0.4,0.6c-0.4,0.4-0.9,0.6-1.6,0.6c-0.8,0-1.5-0.3-2.1-0.9   c-0.6-0.6-0.8-1.4-0.8-2.2c0-0.9,0.3-1.7,0.8-2.3c0.5-0.6,1.2-0.9,2-0.9c0.7,0,1.2,0.2,1.7,0.6c0.5,0.4,0.7,0.9,0.7,1.5   c-0.3,0.1-0.7,0.1-1.2,0.1h-1c-0.1,0-0.6,0-1.7,0c0,0.3-0.1,0.6-0.1,0.9c0,0.9,0.2,1.6,0.5,2.2c0.4,0.5,0.9,0.8,1.5,0.8   c0.4,0,0.7-0.1,0.9-0.2s0.5-0.5,0.7-1c0-0.1,0.1-0.1,0.1-0.1S340.5,191.7,340.5,191.8z M339.3,188.9c0-1.1-0.4-1.7-1.2-1.7   c-0.8,0-1.2,0.6-1.4,1.7H339.3z"
   id="path985" />
	<path
   d="M351.3,191.1c0,0,0,0.3,0,0.7s0,0.8,0,1.2v0.5c-0.9-0.1-2.7-0.1-5.4-0.1c-0.3,0-0.6,0-1,0c-0.3,0-0.5,0-0.6,0h-0.1   c-0.2,0-0.3,0-0.3-0.1c0-0.1,0-0.1,0.1-0.1c0,0,0.2,0,0.5,0c0.2,0,0.4-0.1,0.4-0.1c0-0.1,0.1-0.3,0.1-0.7v-7.8c0-0.3,0-0.4-0.1-0.5   s-0.3-0.1-0.8-0.1c-0.1,0-0.2,0-0.2-0.1s0.1-0.1,0.3-0.1h2.4c0.1,0,0.6,0,1.6,0c1,0,1.6,0,2,0c0.3,0,0.5,0,0.8-0.1   c0,0.4,0.1,0.9,0.1,1.7l0.1,0.6c0,0.1,0,0.1,0,0.2c0,0.1,0,0.1-0.1,0.1c-0.1,0-0.2-0.1-0.2-0.4c-0.2-0.8-0.5-1.4-0.9-1.6   c-0.3-0.2-1.1-0.2-2.3-0.2h-1.1v4.1h0.3c1,0,1.7-0.1,1.9-0.2c0.2-0.2,0.4-0.6,0.5-1.4c0-0.2,0.1-0.3,0.1-0.3c0.1,0,0.1,0.1,0.1,0.2   s0,0.4,0,0.7s0,0.6,0,0.7c0,1,0,1.7,0,2c0,0.1,0,0.2,0,0.2c0,0.1,0,0.2-0.1,0.2c-0.1,0-0.1,0-0.1-0.1c0-0.1-0.1-0.3-0.1-0.8   c-0.1-0.6-0.3-0.9-0.7-1c-0.2-0.1-0.6-0.1-1.3-0.1h-0.6v4.7c2,0,3.2,0,3.6-0.1c0.6-0.1,1-0.7,1-1.8c0-0.2,0.1-0.3,0.2-0.3   C351.2,190.8,351.3,190.9,351.3,191.1z"
   id="path987" />
	<path
   d="M358.3,193.2c0,0.1-0.1,0.1-0.2,0.1h-0.2c-0.2,0-0.4,0-0.7,0c-0.9,0-1.5,0-1.6,0h-0.1c-0.1,0-0.2,0-0.2-0.1   c0-0.1,0-0.1,0.1-0.1s0.2,0,0.5,0c0.2,0,0.3,0,0.3-0.1c0,0,0-0.2,0-0.4v-2.7c0-1,0-1.6-0.1-1.8c-0.2-0.4-0.5-0.6-1-0.6   c-0.5,0-0.9,0.2-1.2,0.6c-0.1,0.1-0.1,0.3-0.1,0.5v4.3c0,0.1,0.1,0.2,0.3,0.2l0.4,0c0.1,0,0.1,0,0.1,0.1c0,0.1-0.1,0.1-0.2,0.1   h-0.2c-0.2,0-0.5,0-1,0c-0.1,0-0.3,0-0.7,0s-0.5,0-0.6,0h-0.1c-0.1,0-0.2,0-0.2-0.1c0-0.1,0.1-0.1,0.2-0.1c0.1,0,0.2,0,0.4,0   c0.1,0,0.2,0,0.2-0.1l0-0.2v-3c0-1.1,0-1.6,0-1.8s-0.1-0.2-0.4-0.2c-0.1,0-0.2,0-0.3,0H352c-0.2,0-0.3,0-0.3-0.1   c0-0.1,0.1-0.1,0.3-0.1c0.3,0,0.6-0.1,0.9-0.1s0.5-0.2,0.7-0.3c0.1-0.1,0.1-0.1,0.2-0.1c0.1,0,0.1,0.1,0.1,0.3v0.7   c0.5-0.6,1.1-0.9,1.9-0.9c0.7,0,1.1,0.2,1.5,0.7c0.2,0.3,0.2,0.8,0.2,1.6v3.2c0,0.3,0,0.5,0,0.5c0.1,0.1,0.2,0.1,0.4,0.1   c0,0,0.1,0,0.1,0h0.1C358.2,193.1,358.3,193.1,358.3,193.2z"
   id="path989" />
	<path
   d="M365,193c0,0.1-0.1,0.1-0.2,0.1h-0.1c-0.1,0-0.1,0-0.2,0h-0.1c-0.5,0-0.8,0.1-1.2,0.3c-0.1,0.1-0.2,0.1-0.2,0.1   c-0.1,0-0.1-0.1-0.1-0.2l0-0.4c-0.4,0.4-0.9,0.6-1.4,0.6c-0.8,0-1.4-0.3-1.9-0.9c-0.5-0.6-0.8-1.4-0.8-2.3c0-1,0.2-1.7,0.8-2.3   c0.5-0.6,1.2-0.9,2-0.9c0.6,0,1.1,0.2,1.4,0.7v-2.2c0-0.7,0-1.1-0.1-1.3c0-0.1-0.1-0.2-0.2-0.2c-0.3,0-0.4,0-0.5,0   c-0.1,0-0.2,0-0.2-0.1s0-0.1,0.1-0.1l0.5,0c0.3,0,0.7-0.1,1.3-0.4c0,0,0.1,0,0.1,0c0.1,0,0.1,0.1,0.1,0.3c0,0.1,0,0.1,0,0.3   c0,0.1,0,0.3,0,0.4v4.8c0,2.2,0,3.4,0.1,3.5c0,0.1,0.2,0.1,0.6,0.1C364.9,192.9,365,192.9,365,193z M362.9,189.5   c0-0.9-0.1-1.5-0.3-1.7c-0.2-0.3-0.6-0.5-1-0.5c-0.5,0-0.9,0.3-1.2,0.8c-0.3,0.5-0.4,1.2-0.4,2.1c0,0.8,0.1,1.6,0.4,2.1   c0.1,0.2,0.3,0.5,0.5,0.6c0.2,0.2,0.4,0.2,0.7,0.2c0.3,0,0.5-0.1,0.8-0.3s0.4-0.4,0.5-0.6C362.9,192.1,362.9,191.1,362.9,189.5z"
   id="path991" />
	<path
   d="M371.2,190.3c0,0.9-0.3,1.6-0.8,2.3c-0.5,0.6-1.2,0.9-2,0.9c-0.8,0-1.5-0.3-2.1-0.9c-0.6-0.6-0.9-1.4-0.9-2.3   c0-0.9,0.3-1.7,0.8-2.3s1.2-0.9,2.1-0.9c0.8,0,1.5,0.3,2.1,0.9C370.9,188.6,371.2,189.4,371.2,190.3z M370,190.3   c0-1-0.2-1.8-0.5-2.4c-0.2-0.4-0.6-0.6-1.2-0.6c-0.5,0-0.9,0.3-1.2,0.8s-0.4,1.3-0.4,2.2c0,0.9,0.2,1.7,0.5,2.2s0.7,0.8,1.3,0.8   c0.4,0,0.7-0.2,1-0.5C369.8,192.2,370,191.3,370,190.3z"
   id="path993" />
	<path
   d="M378.3,193c0,0.1-0.1,0.1-0.2,0.1H378c-0.1,0-0.1,0-0.2,0h-0.1c-0.5,0-0.8,0.1-1.2,0.3c-0.1,0.1-0.2,0.1-0.2,0.1   c-0.1,0-0.1-0.1-0.1-0.2l0-0.4c-0.4,0.4-0.9,0.6-1.4,0.6c-0.8,0-1.4-0.3-1.9-0.9c-0.5-0.6-0.8-1.4-0.8-2.3c0-1,0.2-1.7,0.8-2.3   c0.5-0.6,1.2-0.9,2-0.9c0.6,0,1.1,0.2,1.4,0.7v-2.2c0-0.7,0-1.1-0.1-1.3c0-0.1-0.1-0.2-0.2-0.2c-0.3,0-0.4,0-0.5,0   c-0.1,0-0.2,0-0.2-0.1s0-0.1,0.1-0.1l0.5,0c0.3,0,0.7-0.1,1.3-0.4c0,0,0.1,0,0.1,0c0.1,0,0.1,0.1,0.1,0.3c0,0.1,0,0.1,0,0.3   c0,0.1,0,0.3,0,0.4v4.8c0,2.2,0,3.4,0.1,3.5c0,0.1,0.2,0.1,0.6,0.1C378.2,192.9,378.3,192.9,378.3,193z M376.2,189.5   c0-0.9-0.1-1.5-0.3-1.7c-0.2-0.3-0.6-0.5-1-0.5c-0.5,0-0.9,0.3-1.2,0.8c-0.3,0.5-0.4,1.2-0.4,2.1c0,0.8,0.1,1.6,0.4,2.1   c0.1,0.2,0.3,0.5,0.5,0.6c0.2,0.2,0.4,0.2,0.7,0.2c0.3,0,0.5-0.1,0.8-0.3s0.4-0.4,0.5-0.6C376.2,192.1,376.2,191.1,376.2,189.5z"
   id="path995" />
	<path
   d="M384.5,190.3c0,0.9-0.3,1.6-0.8,2.3c-0.5,0.6-1.2,0.9-2,0.9c-0.8,0-1.5-0.3-2.1-0.9c-0.6-0.6-0.9-1.4-0.9-2.3   c0-0.9,0.3-1.7,0.8-2.3s1.2-0.9,2.1-0.9c0.8,0,1.5,0.3,2.1,0.9C384.2,188.6,384.5,189.4,384.5,190.3z M383.3,190.3   c0-1-0.2-1.8-0.5-2.4c-0.2-0.4-0.6-0.6-1.2-0.6c-0.5,0-0.9,0.3-1.2,0.8s-0.4,1.3-0.4,2.2c0,0.9,0.2,1.7,0.5,2.2s0.7,0.8,1.3,0.8   c0.4,0,0.7-0.2,1-0.5C383.1,192.2,383.3,191.3,383.3,190.3z"
   id="path997" />
	<path
   d="M391.7,193.2c0,0.1-0.1,0.1-0.2,0.1h-0.2c-0.2,0-0.4,0-0.7,0c-0.9,0-1.5,0-1.6,0h-0.1c-0.1,0-0.2,0-0.2-0.1   c0-0.1,0-0.1,0.1-0.1s0.2,0,0.5,0c0.2,0,0.3,0,0.3-0.1c0,0,0-0.2,0-0.4v-2.7c0-1,0-1.6-0.1-1.8c-0.2-0.4-0.5-0.6-1-0.6   c-0.5,0-0.9,0.2-1.2,0.6c-0.1,0.1-0.1,0.3-0.1,0.5v4.3c0,0.1,0.1,0.2,0.3,0.2l0.4,0c0.1,0,0.1,0,0.1,0.1c0,0.1-0.1,0.1-0.2,0.1   h-0.2c-0.2,0-0.5,0-1,0c-0.1,0-0.3,0-0.7,0s-0.5,0-0.6,0h-0.1c-0.1,0-0.2,0-0.2-0.1c0-0.1,0.1-0.1,0.2-0.1c0.1,0,0.2,0,0.4,0   c0.1,0,0.2,0,0.2-0.1l0-0.2v-3c0-1.1,0-1.6,0-1.8s-0.1-0.2-0.4-0.2c-0.1,0-0.2,0-0.3,0h-0.1c-0.2,0-0.3,0-0.3-0.1   c0-0.1,0.1-0.1,0.3-0.1c0.3,0,0.6-0.1,0.9-0.1s0.5-0.2,0.7-0.3c0.1-0.1,0.1-0.1,0.2-0.1c0.1,0,0.1,0.1,0.1,0.3v0.7   c0.5-0.6,1.1-0.9,1.9-0.9c0.7,0,1.1,0.2,1.5,0.7c0.2,0.3,0.2,0.8,0.2,1.6v3.2c0,0.3,0,0.5,0,0.5c0.1,0.1,0.2,0.1,0.4,0.1   c0,0,0.1,0,0.1,0h0.1C391.6,193.1,391.7,193.1,391.7,193.2z"
   id="path999" />
	<path
   d="M397.2,188.5c0,0.4-0.2,0.6-0.6,0.6c-0.4,0-0.6-0.2-0.6-0.6c0-0.1,0-0.2,0.1-0.5c0-0.1,0-0.1,0-0.2c0-0.2-0.1-0.3-0.3-0.5   c-0.2-0.1-0.4-0.2-0.7-0.2c-0.6,0-1,0.2-1.3,0.7c-0.3,0.5-0.5,1.2-0.5,2c0,1,0.2,1.7,0.5,2.3s0.8,0.8,1.3,0.8c0.4,0,0.7-0.1,1-0.4   c0.1-0.1,0.3-0.3,0.5-0.6c0-0.1,0.1-0.1,0.1-0.1c0.1,0,0.1,0,0.1,0.1c0,0.1-0.2,0.4-0.5,0.7c-0.4,0.4-1,0.6-1.6,0.6   c-0.8,0-1.5-0.3-2-0.9c-0.5-0.6-0.8-1.3-0.8-2.2c0-1,0.3-1.8,0.9-2.4s1.3-0.9,2.1-0.9c0.5,0,1,0.1,1.5,0.4   C397,187.8,397.2,188.1,397.2,188.5z"
   id="path1001" />
	<path
   d="M400.8,193.2c0,0.1-0.1,0.1-0.2,0.1c0,0-0.1,0-0.3,0c-0.3,0-0.5,0-0.7,0h-1.5c0,0-0.1,0.1-0.2,0.1c-0.1,0-0.1,0-0.1-0.1   c0-0.1,0.1-0.1,0.3-0.1c0.4,0,0.5,0,0.6-0.1c0,0,0-0.2,0-0.6v-4.2c0-0.2,0-0.4,0-0.4c0,0-0.1-0.1-0.2-0.1h-0.4c0,0-0.1,0-0.1,0   c-0.1,0-0.1,0-0.1-0.1c0-0.1,0.1-0.1,0.2-0.1c0.6,0,1.1-0.2,1.6-0.4l0.1-0.1c0.1,0.1,0.1,0.4,0.1,0.8c0,0,0,0,0,0.1s0,0.3,0,0.5   v3.8c0,0.4,0,0.6,0,0.6c0,0.1,0.1,0.1,0.1,0.1c0.1,0,0.3,0.1,0.6,0.1C400.7,193.1,400.8,193.1,400.8,193.2z M399.8,184.5   c0,0.4-0.2,0.6-0.6,0.6c-0.2,0-0.3-0.1-0.5-0.2c-0.1-0.1-0.2-0.3-0.2-0.4c0-0.4,0.2-0.6,0.6-0.6   C399.5,183.9,399.8,184.1,399.8,184.5z"
   id="path1003" />
	<path
   d="M406.9,192.7c0,0.2-0.2,0.3-0.5,0.5s-0.6,0.3-1,0.3c-0.6,0-1-0.3-1-1c-0.4,0.7-0.9,1-1.6,1c-0.4,0-0.7-0.1-1-0.4   c-0.3-0.2-0.4-0.5-0.4-0.9c0-0.8,0.5-1.4,1.4-1.8c0.3-0.1,0.9-0.3,1.6-0.4v-0.4c0-0.8,0-1.4-0.1-1.6c-0.1-0.5-0.5-0.7-1-0.7   c-0.3,0-0.6,0.1-0.8,0.3c-0.2,0.2-0.3,0.4-0.3,0.7c0,0.1,0.1,0.1,0.2,0.1c0.1,0,0.2,0.1,0.3,0.2c0.1,0.1,0.1,0.2,0.1,0.4   c0,0.4-0.2,0.6-0.6,0.6c-0.2,0-0.4-0.1-0.5-0.2c-0.1-0.1-0.2-0.3-0.2-0.6c0-0.4,0.2-0.8,0.5-1.1c0.4-0.3,0.9-0.5,1.6-0.5   c1,0,1.6,0.3,1.9,0.8c0.1,0.2,0.1,0.6,0.1,1.3v2.6c0,0.4,0,0.7,0,0.8c0,0.3,0.2,0.5,0.4,0.5c0.3,0,0.5-0.1,0.6-0.3   C406.7,192.6,406.8,192.6,406.9,192.7C406.9,192.6,406.9,192.6,406.9,192.7z M404.4,191.2v-1c-0.7,0.2-1.2,0.4-1.5,0.6   c-0.3,0.3-0.5,0.6-0.5,1c0,0.3,0.1,0.5,0.2,0.7s0.4,0.3,0.6,0.3c0.4,0,0.7-0.2,1-0.7C404.4,192.1,404.4,191.7,404.4,191.2z"
   id="path1005" />
</g>
<linearGradient
   id="SVGID_1_"
   gradientUnits="userSpaceOnUse"
   x1="91.92"
   y1="126.41"
   x2="91.92"
   y2="126.41"
   gradientTransform="matrix(1 0 0 -1 0 250)">
	<stop
   offset="0"
   style="stop-color:#BA225B"
   id="stop1009" />
	<stop
   offset="0.995"
   style="stop-color:#321E41"
   id="stop1011" />
</linearGradient>
<path
   class="st1"
   d="M91.9,123.6L91.9,123.6L91.9,123.6z"
   id="path1014" />
<g
   id="g1189">
	
		<linearGradient
   id="SVGID_2_"
   gradientUnits="userSpaceOnUse"
   x1="126.8039"
   y1="115.3799"
   x2="126.8039"
   y2="176.3727"
   gradientTransform="matrix(0.5904 -5.920000e-02 -8.270000e-02 -0.8255 27.3197 295.0237)">
		<stop
   offset="0"
   style="stop-color:#BA225B"
   id="stop1016" />
		<stop
   offset="0.5"
   style="stop-color:#862461"
   id="stop1018" />
		<stop
   offset="1"
   style="stop-color:#862461"
   id="stop1020" />
	</linearGradient>
	<path
   class="st2"
   d="M95.6,141.1c0,0-14.7,22.2,3.1,50c0.2,0.3,0,0.7-0.3,0.5c-3.1-2.6-7.8-7.6-11.6-12.2   C75.2,165.2,87.8,148.5,95.6,141.1z"
   id="path1023" />
	
		<linearGradient
   id="SVGID_3_"
   gradientUnits="userSpaceOnUse"
   x1="127.1117"
   y1="115.3799"
   x2="127.1117"
   y2="176.3727"
   gradientTransform="matrix(0.5904 -5.920000e-02 -8.270000e-02 -0.8255 27.3197 295.0237)">
		<stop
   offset="0"
   style="stop-color:#4674B7"
   id="stop1025" />
		<stop
   offset="0.5"
   style="stop-color:#61ABEB"
   id="stop1027" />
		<stop
   offset="1"
   style="stop-color:#86D3DD"
   id="stop1029" />
	</linearGradient>
	<path
   class="st3"
   d="M95.6,141.1c0,0-14.7,22.2,3.1,50c0.2,0.3,0,0.7-0.3,0.5c-3.1-2.6-10.2-9.2-12.8-14.5   C76.7,159.6,87.8,148.5,95.6,141.1z"
   id="path1032" />
	
		<linearGradient
   id="SVGID_4_"
   gradientUnits="userSpaceOnUse"
   x1="102.2553"
   y1="183.2252"
   x2="209.8195"
   y2="183.2252"
   gradientTransform="matrix(0.5904 -5.920000e-02 -8.270000e-02 -0.8255 27.3197 295.0237)">
		<stop
   offset="0"
   style="stop-color:#4674B7"
   id="stop1034" />
		<stop
   offset="0.5"
   style="stop-color:#61ABEB"
   id="stop1036" />
		<stop
   offset="1"
   style="stop-color:#86D3DD"
   id="stop1038" />
	</linearGradient>
	<path
   class="st4"
   d="M133.4,107.9c0.9-12.5-11-18.3-11-18.3c6.6,8-16.9,6.7-36.8,26.2c-14.1,13.8-11.9,33.8-11.9,33.8l0,0   c1.4,18,13,29.8,13,29.8C71.9,132.5,131.6,130.8,133.4,107.9z"
   id="path1041" />
	
		<linearGradient
   id="SVGID_5_"
   gradientUnits="userSpaceOnUse"
   x1="102.2553"
   y1="183.2252"
   x2="204.3218"
   y2="183.2252"
   gradientTransform="matrix(0.5904 -5.920000e-02 -8.270000e-02 -0.8255 27.3197 295.0237)">
		<stop
   offset="0"
   style="stop-color:#DBE6BC"
   id="stop1043" />
		<stop
   offset="1"
   style="stop-color:#86D3DD"
   id="stop1045" />
	</linearGradient>
	<path
   class="st5"
   d="M124.1,107.7c7.7-4.4,5-11.3,4.7-12c-3-4.3-6.4-6.1-6.4-6.1c6.6,8-16.9,6.7-36.8,26.2   c-14.1,13.8-11.9,33.8-11.9,33.8l0,0c1.4,18,13,29.8,13,29.8C53.5,136.5,115.8,112.5,124.1,107.7z"
   id="path1048" />
	
		<linearGradient
   id="SVGID_6_"
   gradientUnits="userSpaceOnUse"
   x1="116.8218"
   y1="133.2327"
   x2="53.6955"
   y2="148.5215"
   gradientTransform="matrix(1 0 0 -1 0 250)">
		<stop
   offset="0"
   style="stop-color:#CC2E78"
   id="stop1050" />
		<stop
   offset="0.5"
   style="stop-color:#BA225B"
   id="stop1052" />
		<stop
   offset="1"
   style="stop-color:#862461"
   id="stop1054" />
	</linearGradient>
	<path
   class="st6"
   d="M89.8,84.9c-1.8-1-3.6-2.1-5.3-3.4c-5-3.7-9.4-8.5-12.3-15c-0.1,0-0.1,0.1-0.2,0.1c0,0,0,0-0.1,0   c-1.7,0.6-3.4,1.4-5.1,2.5c-23.5,15.3,3.8,75.8,3.8,75.8c0.5-15.9,8.3-27.3,17.8-35.4c0.1-0.1,0.3-0.2,0.4-0.4   c14.6-12.3,32.8-16.5,32.8-16.5S104.6,93,89.8,84.9z"
   id="path1057" />
	
		<linearGradient
   id="SVGID_7_"
   gradientUnits="userSpaceOnUse"
   x1="57.2812"
   y1="176.15"
   x2="121.6244"
   y2="176.15"
   gradientTransform="matrix(1 0 0 -1 0 250)">
		<stop
   offset="0"
   style="stop-color:#BA225B"
   id="stop1059" />
		<stop
   offset="0.995"
   style="stop-color:#321E41"
   id="stop1061" />
	</linearGradient>
	<path
   class="st7"
   d="M84.5,81.6c4.2-1,10.5-1.5,18.8,0.4L75.6,65.7c-1.2,0.2-2.3,0.5-3.4,0.9C75.1,73,79.5,77.9,84.5,81.6z"
   id="path1064" />
	
		<linearGradient
   id="SVGID_8_"
   gradientUnits="userSpaceOnUse"
   x1="134.2184"
   y1="164.4263"
   x2="77.8976"
   y2="178.067"
   gradientTransform="matrix(1 0 0 -1 0 250)">
		<stop
   offset="0"
   style="stop-color:#BA225B"
   id="stop1066" />
		<stop
   offset="0.1602"
   style="stop-color:#B6225A"
   id="stop1068" />
		<stop
   offset="0.3329"
   style="stop-color:#A92158"
   id="stop1070" />
		<stop
   offset="0.5114"
   style="stop-color:#932154"
   id="stop1072" />
		<stop
   offset="0.6939"
   style="stop-color:#75204E"
   id="stop1074" />
		<stop
   offset="0.8777"
   style="stop-color:#4F1F46"
   id="stop1076" />
		<stop
   offset="0.995"
   style="stop-color:#321E41"
   id="stop1078" />
	</linearGradient>
	<path
   class="st8"
   d="M75.6,65.7c-1.2,0.2-2.3,0.5-3.4,0.9c2.9,6.4,7.3,11.3,12.3,15c4.2-1,10.5-1.5,18.8,0.4   c4.7,1.1,10,2.9,15.9,5.8C112.5,78.9,93.1,62.5,75.6,65.7z"
   id="path1081" />
	
		<linearGradient
   id="SVGID_9_"
   gradientUnits="userSpaceOnUse"
   x1="57.2812"
   y1="166.755"
   x2="121.588"
   y2="166.755"
   gradientTransform="matrix(1 0 0 -1 0 250)">
		<stop
   offset="0"
   style="stop-color:#BA225B"
   id="stop1083" />
		<stop
   offset="0.995"
   style="stop-color:#321E41"
   id="stop1085" />
	</linearGradient>
	<path
   class="st9"
   d="M78.3,83.8l11.5,1.1c-1.8-1-3.6-2.1-5.3-3.4C80.4,82.5,78.3,83.8,78.3,83.8z"
   id="path1088" />
	
		<linearGradient
   id="SVGID_10_"
   gradientUnits="userSpaceOnUse"
   x1="57.2795"
   y1="144.19"
   x2="285.8405"
   y2="144.19"
   gradientTransform="matrix(1 0 0 -1 0 250)">
		<stop
   offset="0"
   style="stop-color:#CC2E78"
   id="stop1090" />
		<stop
   offset="0.5"
   style="stop-color:#BA225B"
   id="stop1092" />
		<stop
   offset="1"
   style="stop-color:#862461"
   id="stop1094" />
	</linearGradient>
	<path
   class="st10"
   d="M71.9,66.7c-1.7,0.6-3.4,1.4-5.1,2.5c-23.5,15.3,3.8,75.7,3.8,75.7c0.5-15.9,8.3-27.3,17.8-35.4l-0.6-0.3   C57.5,91.9,71.2,68,71.9,66.7z"
   id="path1097" />
	
		<linearGradient
   id="SVGID_11_"
   gradientUnits="userSpaceOnUse"
   x1="98.0521"
   y1="177.0022"
   x2="70.8992"
   y2="183.5785"
   gradientTransform="matrix(1 0 0 -1 0 250)">
		<stop
   offset="0.7006"
   style="stop-color:#BA225B"
   id="stop1099" />
		<stop
   offset="0.995"
   style="stop-color:#321E41"
   id="stop1101" />
	</linearGradient>
	<path
   class="st11"
   d="M71.9,66.6C71.9,66.6,71.9,66.7,71.9,66.6C71.9,66.7,71.9,66.7,71.9,66.6L71.9,66.6z"
   id="path1104" />
	
		<linearGradient
   id="SVGID_12_"
   gradientUnits="userSpaceOnUse"
   x1="57.2813"
   y1="161.885"
   x2="285.8412"
   y2="161.885"
   gradientTransform="matrix(1 0 0 -1 0 250)">
		<stop
   offset="0"
   style="stop-color:#BA225B"
   id="stop1106" />
		<stop
   offset="0.995"
   style="stop-color:#321E41"
   id="stop1108" />
	</linearGradient>
	<path
   class="st12"
   d="M71.9,66.7C71.9,66.7,71.9,66.7,71.9,66.7c-0.8,1.3-14.5,25.3,15.9,42.6l0.6,0.3c0.1-0.1,0.3-0.2,0.4-0.4   L71.9,66.7z"
   id="path1111" />
	
		<linearGradient
   id="SVGID_13_"
   gradientUnits="userSpaceOnUse"
   x1="121.2278"
   y1="152.0013"
   x2="66.4641"
   y2="165.2648"
   gradientTransform="matrix(1 0 0 -1 0 250)">
		<stop
   offset="0"
   style="stop-color:#CC2E78;stop-opacity:0"
   id="stop1113" />
		<stop
   offset="0.109"
   style="stop-color:#C12C74;stop-opacity:0.109"
   id="stop1115" />
		<stop
   offset="0.4787"
   style="stop-color:#A1286A;stop-opacity:0.4787"
   id="stop1117" />
		<stop
   offset="0.789"
   style="stop-color:#8D2563;stop-opacity:0.789"
   id="stop1119" />
		<stop
   offset="1"
   style="stop-color:#862461"
   id="stop1121" />
	</linearGradient>
	<path
   class="st13"
   d="M89.8,84.9c-1.8-1-3.6-2.1-5.3-3.4c-5-3.7-9.4-8.5-12.3-15c-0.1,0-0.1,0.1-0.2,0.1c0,0,0,0-0.1,0   c-0.8,1.3-14.4,25.2,15.9,42.6l0.6,0.3c0.1-0.1,0.3-0.2,0.4-0.4c14.6-12.3,32.8-16.5,32.8-16.5S104.6,93,89.8,84.9z"
   id="path1124" />
	
		<linearGradient
   id="SVGID_14_"
   gradientUnits="userSpaceOnUse"
   x1="83.74"
   y1="125.27"
   x2="83.74"
   y2="125.27"
   gradientTransform="matrix(1 0 0 -1 0 250)">
		<stop
   offset="0"
   style="stop-color:#BA225B"
   id="stop1126" />
		<stop
   offset="0.995"
   style="stop-color:#321E41"
   id="stop1128" />
	</linearGradient>
	<path
   class="st14"
   d="M83.7,124.7L83.7,124.7L83.7,124.7z"
   id="path1131" />
	
		<linearGradient
   id="SVGID_15_"
   gradientUnits="userSpaceOnUse"
   x1="12.4312"
   y1="210.4402"
   x2="78.8856"
   y2="210.4402"
   gradientTransform="matrix(1 0 0 -1 0 250)">
		<stop
   offset="0"
   style="stop-color:#292760"
   id="stop1133" />
		<stop
   offset="0.5"
   style="stop-color:#5B318C"
   id="stop1135" />
		<stop
   offset="0.6777"
   style="stop-color:#593089"
   id="stop1137" />
		<stop
   offset="0.8074"
   style="stop-color:#522E80"
   id="stop1139" />
		<stop
   offset="0.9215"
   style="stop-color:#462B70"
   id="stop1141" />
		<stop
   offset="1"
   style="stop-color:#3A2760"
   id="stop1143" />
	</linearGradient>
	<path
   class="st15"
   d="M62.8,26c4.3,3.2,10.2,9,13.5,20.7c2-6.5,5.1-18.5-1.3-27.4c0,0-16.4-5.7-32.5-6.6c-1.4-0.1-2.8-0.1-4.1-0.1   c-11.9,0-22.9,3.1-25.8,13.7c-1.6,7.3,3.8,15.9,14,22.3c-5.1-7.6-5.9-16.5-2.5-22.3c0,0-4.1,13,18.5,27.1c1.7,1,3.5,2.1,5.4,3.1   c6.2,3.3,14,6.7,23.8,9.8C71.9,66.5,31.7,47.2,62.8,26z"
   id="path1146" />
	
		<linearGradient
   id="SVGID_16_"
   gradientUnits="userSpaceOnUse"
   x1="54.3215"
   y1="236.0506"
   x2="52.5404"
   y2="194.322"
   gradientTransform="matrix(1 0 0 -1 0 250)">
		<stop
   offset="0"
   style="stop-color:#7E2B8A;stop-opacity:0"
   id="stop1148" />
		<stop
   offset="0.1047"
   style="stop-color:#82308B;stop-opacity:0.1047"
   id="stop1150" />
		<stop
   offset="0.4182"
   style="stop-color:#89388C;stop-opacity:0.4182"
   id="stop1152" />
		<stop
   offset="1"
   style="stop-color:#8B3A8C"
   id="stop1154" />
	</linearGradient>
	<path
   class="st16"
   d="M62.8,26c3.3-2.2,7.3-4.5,12.2-6.7c0,0-16.4-5.7-32.5-6.6c-1.4-0.1-2.8-0.1-4.1-0.1   c-12,18.2-2.7,33.3,4.2,40.9c1.7,1,3.5,2.1,5.4,3.1c6.2,3.3,14,6.7,23.8,9.8C71.9,66.5,31.7,47.2,62.8,26z"
   id="path1157" />
	
		<linearGradient
   id="SVGID_17_"
   gradientUnits="userSpaceOnUse"
   x1="79.9017"
   y1="205.6448"
   x2="71.2504"
   y2="222.9474"
   gradientTransform="matrix(1 0 0 -1 0 250)">
		<stop
   offset="0"
   style="stop-color:#7E2B8A;stop-opacity:0"
   id="stop1159" />
		<stop
   offset="0.2148"
   style="stop-color:#7A2B88;stop-opacity:0.2148"
   id="stop1161" />
		<stop
   offset="0.4186"
   style="stop-color:#6F2A80;stop-opacity:0.4186"
   id="stop1163" />
		<stop
   offset="0.6181"
   style="stop-color:#5C2A74;stop-opacity:0.6181"
   id="stop1165" />
		<stop
   offset="0.8136"
   style="stop-color:#412862;stop-opacity:0.8136"
   id="stop1167" />
		<stop
   offset="1"
   style="stop-color:#20274D"
   id="stop1169" />
	</linearGradient>
	<path
   class="st17"
   d="M75.1,19.4c-4.9,2.2-9,4.5-12.2,6.7c4.3,3.2,10.2,9,13.5,20.7C78.3,40.3,81.4,28.3,75.1,19.4"
   id="path1172" />
	
		<linearGradient
   id="SVGID_18_"
   gradientUnits="userSpaceOnUse"
   x1="38.3162"
   y1="217.4637"
   x2="-23.4658"
   y2="232.4269"
   gradientTransform="matrix(1 0 0 -1 0 250)">
		<stop
   offset="0"
   style="stop-color:#20274D"
   id="stop1174" />
		<stop
   offset="0.1864"
   style="stop-color:#412862;stop-opacity:0.8136"
   id="stop1176" />
		<stop
   offset="0.3819"
   style="stop-color:#5C2A74;stop-opacity:0.6181"
   id="stop1178" />
		<stop
   offset="0.5814"
   style="stop-color:#6F2A80;stop-opacity:0.4186"
   id="stop1180" />
		<stop
   offset="0.7852"
   style="stop-color:#7A2B88;stop-opacity:0.2148"
   id="stop1182" />
		<stop
   offset="1"
   style="stop-color:#7E2B8A;stop-opacity:0"
   id="stop1184" />
	</linearGradient>
	<path
   class="st18"
   d="M38.4,12.6c-11.9,0-22.9,3.1-25.8,13.7c-1.6,7.3,3.8,15.9,14,22.3c-5.1-7.6-5.9-16.5-2.5-22.3   c0,0-4.1,13,18.5,27.1C35.7,45.9,26.5,30.8,38.4,12.6z"
   id="path1187" />
</g>
<g
   id="g1261">
	<g
   id="g1259">
		<path
   d="M158.6,233.4v-7.1h0.8v6.4h3.5v0.7H158.6z"
   id="path1191" />
		<path
   d="M168.6,230.7c0,0.4-0.1,0.9-0.2,1.2c-0.1,0.4-0.3,0.6-0.5,0.9s-0.5,0.4-0.7,0.5s-0.6,0.2-0.9,0.2s-0.6-0.1-0.9-0.2    s-0.5-0.3-0.7-0.5c-0.2-0.2-0.4-0.5-0.5-0.9c-0.1-0.3-0.2-0.7-0.2-1.2c0-0.4,0.1-0.9,0.2-1.2c0.1-0.3,0.3-0.6,0.5-0.9    c0.2-0.2,0.5-0.4,0.7-0.5c0.3-0.1,0.6-0.2,0.9-0.2s0.6,0.1,0.9,0.2c0.3,0.1,0.5,0.3,0.7,0.5c0.2,0.2,0.4,0.5,0.5,0.9    C168.5,229.9,168.6,230.3,168.6,230.7z M167.8,230.8c0-0.7-0.1-1.2-0.4-1.6c-0.3-0.4-0.7-0.5-1.1-0.5s-0.8,0.2-1.1,0.5    s-0.4,0.9-0.4,1.6c0,0.7,0.1,1.2,0.4,1.6s0.7,0.5,1.1,0.5s0.8-0.2,1.1-0.5C167.7,232,167.8,231.5,167.8,230.8z"
   id="path1193" />
		<path
   d="M176.9,230.7c0,0.5-0.1,0.9-0.2,1.2c-0.1,0.4-0.2,0.6-0.4,0.9s-0.4,0.4-0.6,0.5c-0.2,0.1-0.5,0.2-0.8,0.2    c-0.3,0-0.6-0.1-0.9-0.2s-0.4-0.3-0.6-0.5v2.1l-0.8,0.4v-7.3h0.8l0,0.6c0.2-0.2,0.4-0.4,0.7-0.5s0.6-0.2,0.9-0.2    c0.3,0,0.5,0.1,0.8,0.2c0.2,0.1,0.4,0.3,0.6,0.5c0.2,0.2,0.3,0.5,0.4,0.8C176.8,229.8,176.9,230.2,176.9,230.7z M176.1,230.7    c0-0.7-0.1-1.2-0.4-1.5c-0.2-0.3-0.6-0.5-1-0.5c-0.3,0-0.5,0.1-0.8,0.2c-0.2,0.1-0.4,0.3-0.6,0.6v2.7c0.1,0.2,0.3,0.4,0.6,0.6    s0.5,0.2,0.8,0.2c0.4,0,0.8-0.2,1-0.6C176,232,176.1,231.4,176.1,230.7z"
   id="path1195" />
		<path
   d="M182.4,230.6c0,0.1,0,0.2,0,0.2s0,0.1,0,0.2h-3.6c0,0.6,0.2,1,0.4,1.4c0.3,0.3,0.6,0.5,1.1,0.5c0.3,0,0.6,0,0.8-0.1    c0.2-0.1,0.4-0.2,0.7-0.4l0.4,0.6c-0.2,0.1-0.3,0.2-0.5,0.3c-0.1,0.1-0.3,0.1-0.4,0.2c-0.1,0.1-0.3,0.1-0.5,0.1    c-0.2,0-0.4,0-0.6,0c-0.2,0-0.5-0.1-0.8-0.1s-0.5-0.2-0.7-0.5c-0.2-0.2-0.4-0.5-0.5-0.9s-0.2-0.8-0.2-1.3c0-0.4,0.1-0.8,0.2-1.1    s0.3-0.6,0.5-0.9c0.2-0.2,0.4-0.4,0.7-0.6s0.6-0.2,0.9-0.2c0.3,0,0.6,0.1,0.9,0.2s0.5,0.3,0.7,0.5s0.3,0.5,0.4,0.8    C182.3,229.9,182.4,230.2,182.4,230.6z M181.6,230.4c0-0.5-0.2-0.9-0.4-1.3s-0.6-0.5-1-0.5c-0.4,0-0.7,0.1-1,0.4    c-0.2,0.3-0.4,0.7-0.4,1.3L181.6,230.4L181.6,230.4z"
   id="path1197" />
		<path
   d="M187.1,233.4v-3.1c0-0.6-0.1-1-0.3-1.3c-0.2-0.3-0.5-0.4-0.9-0.4c-0.4,0-0.7,0.1-0.9,0.4c-0.2,0.3-0.4,0.7-0.4,1.3v3.1    h-0.8v-5.3h0.8l0,0.6c0.2-0.2,0.4-0.4,0.6-0.6s0.5-0.2,0.9-0.2c0.3,0,0.5,0,0.8,0.1c0.2,0.1,0.4,0.2,0.6,0.4s0.3,0.4,0.4,0.7    c0.1,0.3,0.1,0.6,0.1,1v3.2L187.1,233.4L187.1,233.4z"
   id="path1199" />
		<path
   d="M192.8,232.1c0,0.3-0.1,0.5-0.2,0.7c-0.1,0.2-0.2,0.4-0.4,0.5s-0.4,0.2-0.6,0.3s-0.4,0.1-0.7,0.1c-0.4,0-0.7-0.1-1-0.2    c-0.3-0.1-0.6-0.3-0.9-0.5l0.4-0.6c0.2,0.2,0.4,0.3,0.7,0.4c0.2,0.1,0.5,0.1,0.8,0.1c0.4,0,0.6-0.1,0.8-0.2    c0.2-0.1,0.3-0.4,0.3-0.6c0-0.1,0-0.2-0.1-0.3c0-0.1-0.1-0.2-0.2-0.3c-0.1-0.1-0.2-0.2-0.4-0.2s-0.4-0.2-0.6-0.3    c-0.3-0.1-0.5-0.2-0.7-0.3c-0.2-0.1-0.4-0.2-0.5-0.3s-0.2-0.3-0.3-0.4c-0.1-0.1-0.1-0.3-0.1-0.6c0-0.2,0-0.4,0.1-0.6    c0.1-0.2,0.2-0.3,0.4-0.4c0.1-0.1,0.3-0.2,0.5-0.3c0.2-0.1,0.4-0.1,0.7-0.1c0.4,0,0.7,0.1,1,0.2s0.5,0.2,0.7,0.4l-0.4,0.6    c-0.2-0.2-0.4-0.3-0.6-0.4s-0.4-0.1-0.7-0.1s-0.5,0.1-0.7,0.2c-0.1,0.1-0.2,0.3-0.2,0.5c0,0.1,0,0.2,0.1,0.3    c0,0.1,0.1,0.2,0.2,0.2s0.2,0.2,0.4,0.2c0.1,0.1,0.3,0.2,0.6,0.3c0.2,0.1,0.5,0.2,0.7,0.3c0.2,0.1,0.4,0.2,0.5,0.3    c0.1,0.1,0.2,0.3,0.3,0.4C192.8,231.6,192.8,231.8,192.8,232.1z"
   id="path1201" />
		<path
   d="M197.3,233.4v-0.6c-0.2,0.2-0.4,0.4-0.7,0.5s-0.6,0.2-1,0.2c-0.2,0-0.4,0-0.6-0.1s-0.4-0.1-0.6-0.3s-0.3-0.3-0.4-0.5    c-0.1-0.2-0.1-0.5-0.1-0.8c0-0.3,0.1-0.6,0.2-0.8s0.3-0.4,0.4-0.5c0.2-0.1,0.4-0.2,0.6-0.3s0.5-0.1,0.8-0.1s0.5,0,0.8,0.1    s0.4,0.1,0.6,0.2v-0.6c0-0.8-0.4-1.2-1.1-1.2c-0.3,0-0.5,0-0.8,0.1c-0.2,0.1-0.5,0.2-0.7,0.3l-0.3-0.6c0.2-0.1,0.5-0.2,0.8-0.3    s0.6-0.1,1-0.1c0.6,0,1,0.1,1.4,0.4c0.3,0.3,0.5,0.7,0.5,1.3v3.7L197.3,233.4L197.3,233.4z M197.3,231.1c-0.2-0.1-0.4-0.2-0.6-0.2    c-0.2-0.1-0.5-0.1-0.8-0.1c-0.4,0-0.7,0.1-0.9,0.3c-0.2,0.2-0.3,0.4-0.3,0.8c0,0.4,0.1,0.7,0.3,0.9s0.5,0.3,0.8,0.3    c0.3,0,0.6-0.1,0.9-0.2c0.3-0.2,0.5-0.4,0.6-0.6V231.1z"
   id="path1203" />
		<path
   d="M205.9,233.4v-3.1c0-0.6-0.1-1-0.3-1.3s-0.5-0.4-0.9-0.4c-0.4,0-0.6,0.1-0.9,0.4s-0.3,0.7-0.3,1.3v3.1h-0.8v-3.1    c0-0.6-0.1-1-0.3-1.3c-0.2-0.2-0.5-0.4-0.9-0.4c-0.4,0-0.6,0.1-0.9,0.4s-0.3,0.7-0.3,1.3v3.1h-0.8v-5.3h0.8l0,0.6    c0.1-0.2,0.3-0.4,0.5-0.6c0.2-0.1,0.5-0.2,0.8-0.2c0.4,0,0.7,0.1,0.9,0.3c0.2,0.2,0.4,0.4,0.5,0.6c0.1-0.1,0.2-0.2,0.3-0.4    s0.2-0.2,0.3-0.3c0.1-0.1,0.3-0.1,0.4-0.2c0.2-0.1,0.4-0.1,0.6-0.1c0.5,0,1,0.2,1.3,0.5c0.3,0.3,0.5,0.9,0.5,1.7v3.2L205.9,233.4    L205.9,233.4z"
   id="path1205" />
		<path
   d="M212.7,230.7c0,0.4-0.1,0.9-0.2,1.2c-0.1,0.4-0.3,0.6-0.5,0.9s-0.5,0.4-0.7,0.5s-0.6,0.2-0.9,0.2s-0.6-0.1-0.9-0.2    s-0.5-0.3-0.7-0.5c-0.2-0.2-0.4-0.5-0.5-0.9c-0.1-0.3-0.2-0.7-0.2-1.2c0-0.4,0.1-0.9,0.2-1.2c0.1-0.3,0.3-0.6,0.5-0.9    c0.2-0.2,0.5-0.4,0.7-0.5c0.3-0.1,0.6-0.2,0.9-0.2s0.6,0.1,0.9,0.2c0.3,0.1,0.5,0.3,0.7,0.5c0.2,0.2,0.4,0.5,0.5,0.9    C212.6,229.9,212.7,230.3,212.7,230.7z M211.9,230.8c0-0.7-0.1-1.2-0.4-1.6c-0.3-0.4-0.7-0.5-1.1-0.5s-0.8,0.2-1.1,0.5    s-0.4,0.9-0.4,1.6c0,0.7,0.1,1.2,0.4,1.6s0.7,0.5,1.1,0.5c0.5,0,0.8-0.2,1.1-0.5C211.8,232,211.9,231.5,211.9,230.8z"
   id="path1207" />
		<path
   d="M217.3,232.1c0,0.3-0.1,0.5-0.2,0.7c-0.1,0.2-0.2,0.4-0.4,0.5s-0.4,0.2-0.6,0.3s-0.4,0.1-0.7,0.1c-0.4,0-0.7-0.1-1-0.2    c-0.3-0.1-0.6-0.3-0.9-0.5l0.4-0.6c0.2,0.2,0.4,0.3,0.7,0.4c0.2,0.1,0.5,0.1,0.8,0.1c0.4,0,0.6-0.1,0.8-0.2    c0.2-0.1,0.3-0.4,0.3-0.6c0-0.1,0-0.2-0.1-0.3c0-0.1-0.1-0.2-0.2-0.3c-0.1-0.1-0.2-0.2-0.4-0.2s-0.4-0.2-0.6-0.3    c-0.3-0.1-0.5-0.2-0.7-0.3c-0.2-0.1-0.4-0.2-0.5-0.3s-0.2-0.3-0.3-0.4c-0.1-0.1-0.1-0.3-0.1-0.6c0-0.2,0-0.4,0.1-0.6    c0.1-0.2,0.2-0.3,0.4-0.4c0.1-0.1,0.3-0.2,0.5-0.3c0.2-0.1,0.4-0.1,0.7-0.1c0.4,0,0.7,0.1,1,0.2s0.5,0.2,0.7,0.4l-0.4,0.6    c-0.2-0.2-0.4-0.3-0.6-0.4s-0.4-0.1-0.7-0.1s-0.5,0.1-0.7,0.2c-0.1,0.1-0.2,0.3-0.2,0.5c0,0.1,0,0.2,0.1,0.3    c0,0.1,0.1,0.2,0.2,0.2s0.2,0.2,0.4,0.2c0.1,0.1,0.3,0.2,0.6,0.3c0.2,0.1,0.5,0.2,0.7,0.3c0.2,0.1,0.4,0.2,0.5,0.3    c0.1,0.1,0.2,0.3,0.3,0.4C217.2,231.6,217.3,231.8,217.3,232.1z"
   id="path1209" />
		<path
   d="M225.9,230.8c0,0.9-0.2,1.7-0.5,2.1s-0.8,0.7-1.4,0.7c-0.3,0-0.5-0.1-0.7-0.1c-0.2-0.1-0.4-0.2-0.5-0.3v1.6l-1.8,0.7v-7.3    h1.8l0,0.4c0.2-0.1,0.4-0.3,0.6-0.4c0.2-0.1,0.4-0.1,0.7-0.1c0.2,0,0.5,0.1,0.7,0.1c0.2,0.1,0.4,0.3,0.6,0.5    c0.2,0.2,0.3,0.5,0.4,0.9S225.9,230.3,225.9,230.8z M224.1,230.8c0-0.3,0-0.5,0-0.7c0-0.2-0.1-0.3-0.1-0.4s-0.1-0.2-0.2-0.2    c-0.1,0-0.2-0.1-0.3-0.1c-0.1,0-0.3,0-0.4,0.1s-0.2,0.1-0.3,0.2v2.1c0.1,0.1,0.2,0.1,0.3,0.2c0.1,0.1,0.2,0.1,0.4,0.1    c0.1,0,0.2,0,0.2-0.1s0.1-0.1,0.2-0.2c0.1-0.1,0.1-0.2,0.1-0.4C224.1,231.3,224.1,231.1,224.1,230.8z"
   id="path1211" />
		<path
   d="M229.6,233.4v-0.4c-0.2,0.1-0.4,0.2-0.6,0.3c-0.2,0.1-0.5,0.1-0.7,0.1c-0.5,0-0.9-0.2-1.2-0.5c-0.3-0.3-0.5-0.8-0.5-1.4    c0-0.3,0.1-0.5,0.1-0.8c0.1-0.2,0.2-0.4,0.4-0.5c0.2-0.1,0.4-0.2,0.6-0.3c0.2-0.1,0.5-0.1,0.8-0.1c0.2,0,0.4,0,0.6,0.1    s0.3,0.1,0.5,0.2v-0.3c0-0.2-0.1-0.4-0.2-0.5c-0.1-0.1-0.3-0.1-0.6-0.1c-0.3,0-0.5,0-0.8,0.1s-0.5,0.2-0.7,0.3l-0.5-1.2    c0.3-0.2,0.7-0.3,1-0.4s0.8-0.1,1.2-0.1c0.7,0,1.3,0.2,1.6,0.5c0.3,0.4,0.5,0.8,0.5,1.4v3.5L229.6,233.4L229.6,233.4z     M229.6,231.3c-0.1-0.1-0.2-0.1-0.3-0.1s-0.3,0-0.4,0c-0.4,0-0.6,0.2-0.6,0.6c0,0.2,0.1,0.3,0.1,0.4s0.2,0.2,0.4,0.2    c0.2,0,0.3,0,0.4-0.1s0.2-0.1,0.3-0.2L229.6,231.3L229.6,231.3z"
   id="path1213" />
		<path
   d="M235.9,230.1c-0.1-0.1-0.2-0.2-0.4-0.3c-0.1-0.1-0.3-0.1-0.5-0.1c-0.2,0-0.4,0.1-0.5,0.2s-0.2,0.4-0.2,0.7v2.9h-1.8v-5.3    h1.8v0.4c0.2-0.2,0.3-0.3,0.5-0.4s0.4-0.1,0.6-0.1c0.2,0,0.4,0,0.5,0.1s0.3,0.1,0.4,0.2L235.9,230.1z"
   id="path1215" />
		<path
   d="M239.6,233.4v-0.4c-0.2,0.1-0.4,0.2-0.6,0.3c-0.2,0.1-0.5,0.1-0.7,0.1c-0.5,0-0.9-0.2-1.2-0.5c-0.3-0.3-0.5-0.8-0.5-1.4    c0-0.3,0.1-0.5,0.1-0.8c0.1-0.2,0.2-0.4,0.4-0.5c0.2-0.1,0.4-0.2,0.6-0.3c0.2-0.1,0.5-0.1,0.8-0.1c0.2,0,0.4,0,0.6,0.1    s0.3,0.1,0.5,0.2v-0.3c0-0.2-0.1-0.4-0.2-0.5c-0.1-0.1-0.3-0.1-0.6-0.1c-0.3,0-0.5,0-0.8,0.1s-0.5,0.2-0.7,0.3l-0.5-1.2    c0.3-0.2,0.7-0.3,1-0.4s0.8-0.1,1.2-0.1c0.7,0,1.3,0.2,1.6,0.5c0.3,0.4,0.5,0.8,0.5,1.4v3.5L239.6,233.4L239.6,233.4z     M239.6,231.3c-0.1-0.1-0.2-0.1-0.3-0.1s-0.3,0-0.4,0c-0.4,0-0.6,0.2-0.6,0.6c0,0.2,0.1,0.3,0.1,0.4s0.2,0.2,0.4,0.2    c0.2,0,0.3,0,0.4-0.1s0.2-0.1,0.3-0.2L239.6,231.3L239.6,231.3z"
   id="path1217" />
		<path
   d="M249,233.4h-1.8l-1.9-5.3h1.9l0.5,2c0.1,0.2,0.1,0.5,0.2,0.8c0.1,0.3,0.1,0.6,0.1,0.8c0-0.3,0.1-0.5,0.1-0.8    c0.1-0.3,0.1-0.6,0.2-0.8l0.5-2h1.9L249,233.4z"
   id="path1219" />
		<path
   d="M256.3,230.8c0,0.5-0.1,0.9-0.2,1.2c-0.1,0.4-0.3,0.6-0.5,0.9c-0.2,0.2-0.5,0.4-0.8,0.5s-0.6,0.2-1,0.2    c-0.4,0-0.7-0.1-1-0.2s-0.6-0.3-0.8-0.5c-0.2-0.2-0.4-0.5-0.5-0.9c-0.1-0.3-0.2-0.8-0.2-1.2c0-0.5,0.1-0.9,0.2-1.2    s0.3-0.6,0.5-0.9s0.5-0.4,0.8-0.5c0.3-0.1,0.6-0.2,1-0.2c0.4,0,0.7,0.1,1,0.2c0.3,0.1,0.6,0.3,0.8,0.5c0.2,0.2,0.4,0.5,0.5,0.9    S256.3,230.3,256.3,230.8z M254.4,230.8c0-0.4-0.1-0.8-0.2-1s-0.3-0.3-0.5-0.3c-0.2,0-0.4,0.1-0.5,0.3c-0.1,0.2-0.2,0.5-0.2,1    c0,0.9,0.2,1.3,0.7,1.3C254.2,232.1,254.4,231.6,254.4,230.8z"
   id="path1221" />
		<path
   d="M261.4,231.8c0,0.6-0.2,1.1-0.6,1.4c-0.4,0.3-0.9,0.4-1.6,0.4c-0.4,0-0.8,0-1.1-0.1s-0.7-0.2-1.1-0.3l0.4-1.4    c0.3,0.1,0.6,0.3,1,0.3c0.3,0.1,0.6,0.1,0.9,0.1c0.2,0,0.3,0,0.4-0.1c0.1,0,0.1-0.1,0.1-0.2c0-0.1,0-0.1-0.1-0.2    c0,0-0.2-0.1-0.3-0.1c-0.4-0.1-0.8-0.2-1-0.3s-0.5-0.2-0.7-0.4c-0.2-0.1-0.3-0.3-0.4-0.5c-0.1-0.2-0.1-0.4-0.1-0.7    c0-0.6,0.2-1,0.5-1.3c0.4-0.3,0.9-0.5,1.6-0.5c0.2,0,0.4,0,0.6,0c0.2,0,0.3,0,0.5,0.1c0.2,0,0.3,0.1,0.5,0.1    c0.2,0.1,0.3,0.1,0.5,0.2l-0.4,1.4c-0.4-0.2-0.7-0.3-0.9-0.3c-0.3-0.1-0.5-0.1-0.8-0.1c-0.2,0-0.3,0-0.4,0.1    c-0.1,0-0.1,0.1-0.1,0.2c0,0,0,0.1,0,0.1s0,0.1,0.1,0.1s0.1,0.1,0.2,0.1s0.2,0.1,0.3,0.1c0.4,0.1,0.7,0.2,1,0.3s0.5,0.2,0.7,0.4    c0.2,0.1,0.3,0.3,0.4,0.5C261.3,231.3,261.4,231.5,261.4,231.8z"
   id="path1223" />
		<path
   d="M263.5,234.7h-1.2l0.1-3.4h2.1L263.5,234.7z"
   id="path1225" />
		<path
   d="M268.4,233.4v-7l0.8-0.4v7.4L268.4,233.4L268.4,233.4z"
   id="path1227" />
		<path
   d="M275.2,230.7c0,0.4-0.1,0.9-0.2,1.2c-0.1,0.4-0.3,0.6-0.5,0.9s-0.5,0.4-0.7,0.5s-0.6,0.2-0.9,0.2c-0.3,0-0.6-0.1-0.9-0.2    s-0.5-0.3-0.7-0.5c-0.2-0.2-0.4-0.5-0.5-0.9c-0.1-0.3-0.2-0.7-0.2-1.2c0-0.4,0.1-0.9,0.2-1.2c0.1-0.3,0.3-0.6,0.5-0.9    c0.2-0.2,0.5-0.4,0.7-0.5c0.3-0.1,0.6-0.2,0.9-0.2c0.3,0,0.6,0.1,0.9,0.2c0.3,0.1,0.5,0.3,0.7,0.5c0.2,0.2,0.4,0.5,0.5,0.9    C275.2,229.9,275.2,230.3,275.2,230.7z M274.5,230.8c0-0.7-0.1-1.2-0.4-1.6c-0.3-0.4-0.7-0.5-1.1-0.5s-0.8,0.2-1.1,0.5    s-0.4,0.9-0.4,1.6c0,0.7,0.1,1.2,0.4,1.6s0.7,0.5,1.1,0.5c0.5,0,0.8-0.2,1.1-0.5C274.3,232,274.5,231.5,274.5,230.8z"
   id="path1229" />
		<path
   d="M281.4,233.4h-0.7l-1.9-5.3h0.8l1.4,4.2l0.1,0.2l0.1-0.2l1.4-4.2h0.8L281.4,233.4z"
   id="path1231" />
		<path
   d="M285.5,226.6c0,0.1,0,0.3-0.2,0.4c-0.1,0.1-0.2,0.2-0.4,0.2c-0.2,0-0.3-0.1-0.4-0.2c-0.1-0.1-0.2-0.2-0.2-0.4    c0-0.2,0-0.3,0.2-0.4c0.1-0.1,0.2-0.2,0.4-0.2c0.1,0,0.3,0.1,0.4,0.2C285.5,226.3,285.5,226.5,285.5,226.6z M284.6,233.4v-5.3h0.8    v5.3H284.6z"
   id="path1233" />
		<path
   d="M289.3,233.4h-0.7l-1.9-5.3h0.8l1.4,4.2l0.1,0.2l0.1-0.2l1.4-4.2h0.8L289.3,233.4z"
   id="path1235" />
		<path
   d="M293.4,226.6c0,0.1,0,0.3-0.2,0.4c-0.1,0.1-0.2,0.2-0.4,0.2c-0.2,0-0.3-0.1-0.4-0.2c-0.1-0.1-0.2-0.2-0.2-0.4    c0-0.2,0-0.3,0.2-0.4c0.1-0.1,0.2-0.2,0.4-0.2c0.1,0,0.3,0.1,0.4,0.2C293.4,226.3,293.4,226.5,293.4,226.6z M292.5,233.4v-5.3h0.8    v5.3H292.5z"
   id="path1237" />
		<path
   d="M301.2,233.4v-3.1c0-0.6-0.1-1-0.3-1.3s-0.5-0.4-0.9-0.4c-0.4,0-0.6,0.1-0.9,0.4c-0.2,0.3-0.3,0.7-0.3,1.3v3.1h-0.8v-3.1    c0-0.6-0.1-1-0.3-1.3c-0.2-0.2-0.5-0.4-0.9-0.4c-0.4,0-0.6,0.1-0.9,0.4s-0.3,0.7-0.3,1.3v3.1H295v-5.3h0.8l0,0.6    c0.1-0.2,0.3-0.4,0.5-0.6c0.2-0.1,0.5-0.2,0.8-0.2c0.4,0,0.7,0.1,0.9,0.3c0.2,0.2,0.4,0.4,0.5,0.6c0.1-0.1,0.2-0.2,0.3-0.4    s0.2-0.2,0.3-0.3c0.1-0.1,0.3-0.1,0.4-0.2c0.2-0.1,0.4-0.1,0.6-0.1c0.5,0,1,0.2,1.3,0.5s0.5,0.9,0.5,1.7v3.2L301.2,233.4    L301.2,233.4z"
   id="path1239" />
		<path
   d="M307.9,230.7c0,0.4-0.1,0.9-0.2,1.2c-0.1,0.4-0.3,0.6-0.5,0.9s-0.5,0.4-0.7,0.5s-0.6,0.2-0.9,0.2c-0.3,0-0.6-0.1-0.9-0.2    s-0.5-0.3-0.7-0.5c-0.2-0.2-0.4-0.5-0.5-0.9c-0.1-0.3-0.2-0.7-0.2-1.2c0-0.4,0.1-0.9,0.2-1.2c0.1-0.3,0.3-0.6,0.5-0.9    c0.2-0.2,0.5-0.4,0.7-0.5c0.3-0.1,0.6-0.2,0.9-0.2c0.3,0,0.6,0.1,0.9,0.2c0.3,0.1,0.5,0.3,0.7,0.5c0.2,0.2,0.4,0.5,0.5,0.9    C307.9,229.9,307.9,230.3,307.9,230.7z M307.2,230.8c0-0.7-0.1-1.2-0.4-1.6c-0.3-0.4-0.7-0.5-1.1-0.5s-0.8,0.2-1.1,0.5    s-0.4,0.9-0.4,1.6c0,0.7,0.1,1.2,0.4,1.6s0.7,0.5,1.1,0.5s0.8-0.2,1.1-0.5C307,232,307.2,231.5,307.2,230.8z"
   id="path1241" />
		<path
   d="M312.5,232.1c0,0.3,0,0.5-0.2,0.7c-0.1,0.2-0.2,0.4-0.4,0.5s-0.4,0.2-0.6,0.3s-0.5,0.1-0.7,0.1c-0.4,0-0.7-0.1-1-0.2    c-0.3-0.1-0.6-0.3-0.9-0.5l0.5-0.6c0.2,0.2,0.5,0.3,0.7,0.4c0.2,0.1,0.5,0.1,0.8,0.1c0.4,0,0.6-0.1,0.8-0.2    c0.2-0.1,0.3-0.4,0.3-0.6c0-0.1,0-0.2-0.1-0.3c0-0.1-0.1-0.2-0.2-0.3c-0.1-0.1-0.2-0.2-0.4-0.2s-0.4-0.2-0.6-0.3    c-0.3-0.1-0.5-0.2-0.7-0.3c-0.2-0.1-0.4-0.2-0.5-0.3s-0.2-0.3-0.3-0.4c-0.1-0.1-0.1-0.3-0.1-0.6c0-0.2,0-0.4,0.1-0.6    s0.2-0.3,0.4-0.4s0.3-0.2,0.5-0.3c0.2-0.1,0.4-0.1,0.7-0.1c0.4,0,0.7,0.1,1,0.2s0.5,0.2,0.7,0.4l-0.4,0.6    c-0.2-0.2-0.4-0.3-0.6-0.4c-0.2-0.1-0.4-0.1-0.7-0.1s-0.5,0.1-0.7,0.2c-0.1,0.1-0.2,0.3-0.2,0.5c0,0.1,0,0.2,0.1,0.3    c0,0.1,0.1,0.2,0.2,0.2s0.2,0.2,0.4,0.2c0.1,0.1,0.3,0.2,0.6,0.3c0.2,0.1,0.5,0.2,0.7,0.3c0.2,0.1,0.4,0.2,0.5,0.3    c0.1,0.1,0.2,0.3,0.3,0.4C312.5,231.6,312.5,231.8,312.5,232.1z"
   id="path1243" />
		<path
   d="M320.3,232.9c-0.1,0.2-0.3,0.3-0.5,0.4c-0.2,0.1-0.4,0.2-0.5,0.2c-0.2,0.1-0.4,0.1-0.6,0.1c-0.8,0-1.4-0.2-1.8-0.7    s-0.7-1.2-0.7-2.1c0-0.4,0-0.8,0.2-1.1c0.1-0.3,0.3-0.6,0.5-0.9c0.2-0.2,0.5-0.4,0.8-0.6c0.3-0.1,0.7-0.2,1.1-0.2    c0.2,0,0.5,0,0.7,0.1c0.2,0.1,0.4,0.1,0.5,0.2c0.2,0.1,0.3,0.2,0.5,0.4c0.1,0.1,0.3,0.3,0.4,0.5l-1.3,1c-0.1-0.2-0.2-0.4-0.4-0.5    s-0.3-0.2-0.5-0.2c-0.2,0-0.4,0.1-0.5,0.3s-0.2,0.5-0.2,1c0,0.9,0.2,1.3,0.8,1.3c0.2,0,0.3-0.1,0.5-0.2c0.1-0.1,0.3-0.3,0.5-0.5    l1.2,0.9C320.6,232.5,320.5,232.7,320.3,232.9z"
   id="path1245" />
		<path
   d="M326.4,230.8c0,0.5-0.1,0.9-0.2,1.2c-0.1,0.4-0.3,0.6-0.5,0.9c-0.2,0.2-0.5,0.4-0.8,0.5s-0.6,0.2-1,0.2s-0.7-0.1-1-0.2    s-0.6-0.3-0.8-0.5c-0.2-0.2-0.4-0.5-0.5-0.9c-0.1-0.3-0.2-0.8-0.2-1.2c0-0.5,0.1-0.9,0.2-1.2s0.3-0.6,0.5-0.9s0.5-0.4,0.8-0.5    c0.3-0.1,0.6-0.2,1-0.2c0.4,0,0.7,0.1,1,0.2c0.3,0.1,0.6,0.3,0.8,0.5c0.2,0.2,0.4,0.5,0.5,0.9S326.4,230.3,326.4,230.8z     M324.5,230.8c0-0.4-0.1-0.8-0.2-1s-0.3-0.3-0.5-0.3c-0.2,0-0.4,0.1-0.5,0.3c-0.1,0.2-0.2,0.5-0.2,1c0,0.9,0.2,1.3,0.7,1.3    C324.3,232.1,324.5,231.6,324.5,230.8z"
   id="path1247" />
		<path
   d="M330.3,233.4v-3c0-0.4,0-0.6-0.2-0.7c-0.1-0.1-0.3-0.2-0.5-0.2c-0.2,0-0.4,0.1-0.5,0.2c-0.1,0.1-0.2,0.3-0.2,0.7v3.1h-1.8    v-5.3h1.8l0,0.4c0.2-0.1,0.4-0.2,0.6-0.3s0.5-0.1,0.8-0.1c0.6,0,1,0.2,1.3,0.6c0.3,0.4,0.4,0.9,0.4,1.6v3.3L330.3,233.4    L330.3,233.4z"
   id="path1249" />
		<path
   d="M339.9,233.4h-1.8l-1.9-5.3h1.9l0.5,2c0,0.2,0.1,0.5,0.2,0.8c0.1,0.3,0.1,0.6,0.1,0.8c0-0.3,0.1-0.5,0.1-0.8    c0.1-0.3,0.1-0.6,0.2-0.8l0.5-2h1.9L339.9,233.4z"
   id="path1251" />
		<path
   d="M347.1,230.8c0,0.5-0.1,0.9-0.2,1.2c-0.1,0.4-0.3,0.6-0.5,0.9c-0.2,0.2-0.5,0.4-0.8,0.5s-0.6,0.2-1,0.2s-0.7-0.1-1-0.2    s-0.6-0.3-0.8-0.5c-0.2-0.2-0.4-0.5-0.5-0.9c-0.1-0.3-0.2-0.8-0.2-1.2c0-0.5,0.1-0.9,0.2-1.2s0.3-0.6,0.5-0.9s0.5-0.4,0.8-0.5    c0.3-0.1,0.6-0.2,1-0.2c0.4,0,0.7,0.1,1,0.2c0.3,0.1,0.6,0.3,0.8,0.5c0.2,0.2,0.4,0.5,0.5,0.9S347.1,230.3,347.1,230.8z     M345.3,230.8c0-0.4-0.1-0.8-0.2-1s-0.3-0.3-0.5-0.3c-0.2,0-0.4,0.1-0.5,0.3c-0.1,0.2-0.2,0.5-0.2,1c0,0.9,0.2,1.3,0.7,1.3    C345,232.1,345.3,231.6,345.3,230.8z"
   id="path1253" />
		<path
   d="M352.2,231.8c0,0.6-0.2,1.1-0.6,1.4c-0.4,0.3-0.9,0.4-1.6,0.4c-0.4,0-0.8,0-1.1-0.1s-0.7-0.2-1.1-0.3l0.4-1.4    c0.3,0.1,0.6,0.3,1,0.3c0.3,0.1,0.6,0.1,0.9,0.1c0.2,0,0.3,0,0.4-0.1c0.1,0,0.1-0.1,0.1-0.2c0-0.1,0-0.1-0.1-0.2    c0,0-0.2-0.1-0.3-0.1c-0.4-0.1-0.8-0.2-1-0.3s-0.5-0.2-0.7-0.4c-0.2-0.1-0.3-0.3-0.4-0.5c-0.1-0.2-0.1-0.4-0.1-0.7    c0-0.6,0.2-1,0.5-1.3c0.4-0.3,0.9-0.5,1.6-0.5c0.2,0,0.4,0,0.6,0c0.2,0,0.3,0,0.5,0.1c0.2,0,0.3,0.1,0.5,0.1    c0.2,0.1,0.3,0.1,0.5,0.2l-0.4,1.4c-0.4-0.2-0.7-0.3-0.9-0.3c-0.3-0.1-0.5-0.1-0.8-0.1c-0.2,0-0.3,0-0.4,0.1    c-0.1,0-0.1,0.1-0.1,0.2c0,0,0,0.1,0,0.1s0,0.1,0.1,0.1s0.1,0.1,0.2,0.1s0.2,0.1,0.3,0.1c0.4,0.1,0.7,0.2,1,0.3s0.5,0.2,0.7,0.4    c0.2,0.1,0.3,0.3,0.4,0.5C352.2,231.3,352.2,231.5,352.2,231.8z"
   id="path1255" />
		<path
   d="M355.3,232.4c0,0.3-0.1,0.6-0.3,0.8s-0.5,0.3-0.8,0.3s-0.6-0.1-0.8-0.3s-0.3-0.5-0.3-0.8s0.1-0.6,0.3-0.8    c0.2-0.2,0.5-0.3,0.8-0.3s0.6,0.1,0.8,0.3C355.2,231.8,355.3,232.1,355.3,232.4z"
   id="path1257" />
	</g>
</g>
<line
   class="st19"
   x1="186"
   y1="202.7"
   x2="327.4"
   y2="202.7"
   id="line1263" />
<line
   class="st19"
   x1="186"
   y1="220.7"
   x2="327.4"
   y2="220.7"
   id="line1265" />
</svg>