<?xml version="1.0" encoding="utf-8"?>
<!-- Generator: Adobe Illustrator 23.1.1, SVG Export Plug-In . SVG Version: 6.00 Build 0)  -->
<svg version="1.1" id="Capa_1" xmlns="http://www.w3.org/2000/svg" xmlns:xlink="http://www.w3.org/1999/xlink" x="0px" y="0px"
	 viewBox="0 0 418 77" style="enable-background:new 0 0 418 77;" xml:space="preserve">
<style type="text/css">
	.st0{fill:#6AA1ED;}
	.st1{fill:#5799D9;}
	.st2{fill:#FFFFFF;}
	.st3{fill:#0089A9;}
	.st4{fill:#C34613;}
</style>
<g>
	<g>
		<path class="st0" d="M106.5,40.81v8.45h-1.4l-1.91-1.57c-0.83,0.75-1.82,1.31-2.95,1.69c-1.14,0.38-2.4,0.57-3.8,0.57
			c-1.93,0-3.71-0.37-5.32-1.12c-1.61-0.75-3.1-1.89-4.49-3.43c-1.37-1.5-2.39-3.09-3.07-4.8c-0.68-1.7-1.02-3.52-1.02-5.45
			c0-1.91,0.34-3.7,1.03-5.39c0.68-1.69,1.72-3.28,3.1-4.8c1.38-1.51,2.89-2.64,4.53-3.39c1.64-0.75,3.42-1.12,5.36-1.12
			c1.19,0,2.31,0.17,3.37,0.51c1.06,0.34,2.08,0.85,3.05,1.52l1.53-1.46h1.42l0.17,7.79h-1.5c-0.93-2.5-2.03-4.3-3.3-5.4
			c-1.27-1.1-2.87-1.65-4.81-1.65c-2.17,0-3.65,0.71-4.43,2.14c-0.78,1.43-1.16,5-1.16,10.73c0,3.02,0.04,5.28,0.11,6.78
			c0.07,1.5,0.19,2.58,0.36,3.24c0.35,1.41,0.93,2.43,1.74,3.05c0.8,0.62,1.93,0.93,3.39,0.93c1.99,0,3.77-0.73,5.35-2.19
			c1.57-1.46,2.59-3.34,3.06-5.64H106.5z"/>
		<path class="st0" d="M107.84,35.19c0-1.89,0.37-3.7,1.1-5.44c0.73-1.74,1.8-3.33,3.19-4.79c1.49-1.51,3.08-2.63,4.76-3.37
			c1.68-0.73,3.51-1.1,5.5-1.1c2,0,3.84,0.37,5.52,1.1c1.68,0.73,3.27,1.86,4.76,3.37c1.41,1.46,2.49,3.05,3.23,4.8
			c0.74,1.74,1.11,3.55,1.11,5.43c0,1.92-0.37,3.75-1.11,5.51c-0.74,1.75-1.82,3.35-3.23,4.79c-1.45,1.5-3.02,2.61-4.72,3.33
			c-1.69,0.73-3.55,1.09-5.56,1.09c-2,0-3.84-0.37-5.52-1.09c-1.68-0.73-3.26-1.84-4.74-3.33c-1.4-1.44-2.46-3.04-3.19-4.8
			C108.21,38.93,107.84,37.1,107.84,35.19z M116.27,35.19c0,3.61,0.06,6.1,0.18,7.46c0.12,1.36,0.33,2.38,0.64,3.04
			c0.45,1.03,1.09,1.77,1.92,2.22c0.83,0.45,1.96,0.68,3.38,0.68c1.44,0,2.57-0.22,3.4-0.68c0.83-0.45,1.47-1.19,1.92-2.22
			c0.32-0.72,0.55-1.8,0.68-3.24c0.13-1.44,0.19-3.86,0.19-7.26c0-3.39-0.06-5.8-0.19-7.24c-0.13-1.44-0.35-2.52-0.68-3.24
			c-0.45-1.03-1.09-1.77-1.92-2.22c-0.83-0.45-1.96-0.68-3.4-0.68c-1.42,0-2.55,0.23-3.38,0.68c-0.83,0.45-1.47,1.19-1.92,2.22
			c-0.31,0.66-0.52,1.68-0.64,3.04C116.33,29.11,116.27,31.6,116.27,35.19z"/>
		<path class="st0" d="M138.02,49.59v-8.28h1.65c0.72,2.4,1.79,4.21,3.21,5.44c1.42,1.23,3.16,1.84,5.22,1.84
			c1.85,0,3.38-0.49,4.6-1.48c1.21-0.99,1.82-2.24,1.82-3.77c0-0.82-0.14-1.49-0.43-2.02c-0.29-0.53-0.78-1.02-1.47-1.47
			c-0.79-0.52-2.35-1.05-4.68-1.59c-0.86-0.2-1.52-0.35-1.97-0.47c-2.72-0.69-4.7-1.71-5.94-3.05c-1.23-1.34-1.85-3.14-1.85-5.4
			c0-2.64,0.82-4.77,2.47-6.4c1.65-1.63,3.79-2.45,6.45-2.45c1.09,0,2.1,0.15,3.04,0.46c0.94,0.3,1.82,0.76,2.66,1.37l1.55-1.25
			h1.36l0.17,7.45h-1.42c-0.55-2.19-1.47-3.85-2.75-5c-1.28-1.14-2.89-1.72-4.81-1.72c-1.59,0-2.9,0.39-3.93,1.16
			c-1.02,0.78-1.53,1.76-1.53,2.94c0,1.78,1.88,3.08,5.65,3.92c0.51,0.11,0.9,0.2,1.16,0.25c3.52,0.82,5.98,1.98,7.4,3.48
			c1.42,1.5,2.13,3.64,2.13,6.4c0,2.85-0.91,5.22-2.72,7.1c-1.82,1.88-4.1,2.83-6.85,2.83c-1.4,0-2.63-0.16-3.68-0.48
			c-1.06-0.32-2.05-0.82-2.97-1.51l-1.95,1.67H138.02z"/>
		<path class="st0" d="M156.45,49.25v-1.4h1.74c0.47,0,0.85-0.15,1.17-0.47c0.31-0.31,0.63-0.87,0.95-1.69l9.68-25.19h1.69
			l10.59,27.35h2.5v1.4H171.1v-1.4h3.43l-2.48-6.58h-8.58l-1.86,4.81c-0.04,0.08-0.07,0.22-0.1,0.39c-0.02,0.18-0.03,0.39-0.03,0.62
			c0,0.24,0.11,0.43,0.33,0.56c0.22,0.13,0.53,0.2,0.92,0.2h2.52v1.4H156.45z M163.95,39.89h7.64l-3.73-9.89L163.95,39.89z"/>
		<path class="st0" d="M183.03,49.25v-1.4h3.43V22.36h-2.94v-1.29h23.5l0.08,7.41h-1.42c-0.96-2.4-1.93-4.02-2.92-4.86
			c-0.99-0.84-2.43-1.26-4.32-1.26h-4.87v11.58c0.11,0.01,0.24,0.02,0.39,0.03c0.15,0.01,0.35,0.01,0.6,0.01
			c1.54,0,2.7-0.41,3.49-1.22c0.79-0.81,1.3-2.13,1.55-3.95h1.42v12.02h-1.42c-0.16-1.95-0.64-3.35-1.44-4.19
			c-0.8-0.85-2.06-1.27-3.77-1.27h-0.83v12.47h4.72c2.33,0,4.15-0.61,5.46-1.84c1.31-1.23,2.34-3.28,3.09-6.16h1.33l-0.3,9.4H183.03
			z"/>
		<path class="st0" d="M218.51,49.25v-3.9l7.79-6.08c2.13-1.65,3.68-3.31,4.66-4.98c0.97-1.67,1.46-3.49,1.46-5.48
			c0-2.12-0.51-3.77-1.53-4.94c-1.02-1.18-2.44-1.77-4.28-1.77c-1.23,0-2.35,0.35-3.38,1.05c-1.02,0.7-1.54,1.35-1.54,1.94
			c0,0.18,0.07,0.32,0.2,0.4c0.13,0.09,0.34,0.13,0.62,0.13h0.28c1.13,0,2.02,0.27,2.67,0.82c0.65,0.54,0.97,1.3,0.97,2.26
			c0,0.93-0.28,1.68-0.85,2.24c-0.56,0.57-1.31,0.85-2.24,0.85c-1.16,0-2.09-0.4-2.8-1.19c-0.71-0.79-1.06-1.83-1.06-3.11
			c0-2.05,0.95-3.74,2.85-5.09c1.9-1.35,4.33-2.02,7.3-2.02c3.12,0,5.58,0.67,7.37,2c1.79,1.33,2.69,3.15,2.69,5.45
			c0,1.83-0.67,3.59-2.01,5.27c-1.34,1.68-3.51,3.47-6.52,5.36l-7.85,4.89v0.32h12.45c0.79,0,1.34-0.11,1.65-0.33
			c0.31-0.22,0.49-0.62,0.55-1.2l0.28-2.48h1.38l-0.42,9.59H218.51z"/>
		<path class="st0" d="M241.53,35.07c0-2.06,0.27-3.98,0.8-5.75c0.54-1.77,1.31-3.31,2.31-4.61c1.13-1.44,2.38-2.52,3.76-3.25
			c1.38-0.73,2.87-1.09,4.48-1.09c1.59,0,3.08,0.37,4.47,1.12c1.38,0.75,2.63,1.85,3.75,3.3c1.04,1.36,1.84,2.92,2.38,4.7
			c0.54,1.78,0.82,3.69,0.82,5.74c0,2.01-0.28,3.84-0.84,5.52c-0.56,1.67-1.41,3.24-2.55,4.69c-1.11,1.41-2.36,2.49-3.73,3.25
			c-1.37,0.75-2.8,1.13-4.3,1.13c-1.45,0-2.87-0.36-4.26-1.09c-1.38-0.73-2.6-1.75-3.66-3.08c-1.09-1.37-1.93-2.98-2.53-4.83
			C241.83,38.98,241.53,37.06,241.53,35.07z M252.88,21.67c-0.9,0-1.63,0.18-2.18,0.54c-0.55,0.36-0.93,0.91-1.14,1.64
			c-0.24,0.78-0.41,1.99-0.51,3.63c-0.1,1.64-0.15,4.61-0.15,8.9v1.04c0,5.07,0.28,8.18,0.83,9.35c0.55,1.16,1.6,1.75,3.16,1.75
			c1.58,0,2.65-0.6,3.21-1.8c0.56-1.2,0.84-4.49,0.84-9.87V36.3c0-3.06-0.02-5.5-0.06-7.32c-0.04-1.81-0.11-3-0.19-3.57
			c-0.23-1.34-0.63-2.3-1.22-2.88C254.87,21.96,254.01,21.67,252.88,21.67z"/>
		<path class="st0" d="M264.39,49.25v-3.9l7.79-6.08c2.13-1.65,3.68-3.31,4.66-4.98c0.97-1.67,1.46-3.49,1.46-5.48
			c0-2.12-0.51-3.77-1.53-4.94c-1.02-1.18-2.44-1.77-4.28-1.77c-1.23,0-2.35,0.35-3.38,1.05c-1.02,0.7-1.54,1.35-1.54,1.94
			c0,0.18,0.07,0.32,0.2,0.4c0.13,0.09,0.34,0.13,0.62,0.13h0.28c1.13,0,2.02,0.27,2.67,0.82c0.65,0.54,0.97,1.3,0.97,2.26
			c0,0.93-0.28,1.68-0.85,2.24c-0.56,0.57-1.31,0.85-2.24,0.85c-1.16,0-2.09-0.4-2.8-1.19c-0.71-0.79-1.06-1.83-1.06-3.11
			c0-2.05,0.95-3.74,2.85-5.09c1.9-1.35,4.33-2.02,7.3-2.02c3.12,0,5.58,0.67,7.37,2c1.79,1.33,2.69,3.15,2.69,5.45
			c0,1.83-0.67,3.59-2.01,5.27c-1.34,1.68-3.51,3.47-6.52,5.36l-7.85,4.89v0.32h12.45c0.79,0,1.34-0.11,1.65-0.33
			c0.31-0.22,0.49-0.62,0.55-1.2l0.28-2.48h1.38l-0.42,9.59H264.39z"/>
		<path class="st0" d="M287.41,35.07c0-2.06,0.27-3.98,0.8-5.75c0.54-1.77,1.31-3.31,2.31-4.61c1.13-1.44,2.38-2.52,3.76-3.25
			c1.38-0.73,2.87-1.09,4.48-1.09c1.59,0,3.08,0.37,4.47,1.12c1.38,0.75,2.63,1.85,3.75,3.3c1.04,1.36,1.84,2.92,2.38,4.7
			c0.54,1.78,0.82,3.69,0.82,5.74c0,2.01-0.28,3.84-0.84,5.52c-0.56,1.67-1.41,3.24-2.55,4.69c-1.11,1.41-2.36,2.49-3.73,3.25
			c-1.37,0.75-2.8,1.13-4.3,1.13c-1.45,0-2.87-0.36-4.26-1.09c-1.38-0.73-2.6-1.75-3.66-3.08c-1.09-1.37-1.93-2.98-2.53-4.83
			C287.71,38.98,287.41,37.06,287.41,35.07z M298.76,21.67c-0.9,0-1.63,0.18-2.18,0.54c-0.55,0.36-0.93,0.91-1.14,1.64
			c-0.24,0.78-0.41,1.99-0.51,3.63c-0.1,1.64-0.15,4.61-0.15,8.9v1.04c0,5.07,0.28,8.18,0.83,9.35c0.55,1.16,1.6,1.75,3.16,1.75
			c1.58,0,2.65-0.6,3.21-1.8c0.56-1.2,0.84-4.49,0.84-9.87V36.3c0-3.06-0.02-5.5-0.06-7.32c-0.04-1.81-0.11-3-0.19-3.57
			c-0.23-1.34-0.63-2.3-1.22-2.88C300.75,21.96,299.89,21.67,298.76,21.67z"/>
	</g>
</g>
<g>
	<polygon class="st1" points="347.79,36.01 358.24,36.01 351.78,29.55 345.31,23.08 338.85,29.55 332.38,36.01 342.84,36.01 
		345.31,33.54 	"/>
	<polygon class="st1" points="342.84,36.97 332.38,36.97 338.85,43.43 345.31,49.9 351.78,43.43 358.24,36.97 347.79,36.97 
		345.31,39.44 	"/>
</g>
<g>
	<path class="st2" d="M364.51,27.26h0.55l2.38,5.26h-0.63l-0.61-1.38h-2.84l-0.62,1.38h-0.6L364.51,27.26z M365.96,30.61l-1.19-2.66
		l-1.2,2.66H365.96z"/>
	<path class="st2" d="M368.06,32.03l0.29-0.41c0.42,0.31,0.88,0.49,1.34,0.49c0.46,0,0.8-0.24,0.8-0.61v-0.01
		c0-0.39-0.45-0.54-0.96-0.68c-0.6-0.17-1.28-0.38-1.28-1.09V29.7c0-0.66,0.55-1.11,1.31-1.11c0.47,0,0.99,0.16,1.39,0.43
		l-0.26,0.43c-0.36-0.23-0.77-0.37-1.14-0.37c-0.45,0-0.75,0.24-0.75,0.56v0.01c0,0.37,0.48,0.51,0.99,0.66
		c0.6,0.18,1.24,0.41,1.24,1.1v0.02c0,0.73-0.6,1.16-1.37,1.16C369.1,32.6,368.49,32.38,368.06,32.03z"/>
	<path class="st2" d="M371.86,30.61V30.6c0-1.09,0.85-2.01,2.02-2.01c1.16,0,2.01,0.91,2.01,2v0.01c0,1.09-0.86,2.02-2.02,2.02
		C372.7,32.61,371.86,31.7,371.86,30.61z M375.29,30.61V30.6c0-0.83-0.62-1.51-1.43-1.51c-0.84,0-1.41,0.68-1.41,1.49v0.01
		c0,0.83,0.61,1.5,1.43,1.5C374.71,32.1,375.29,31.43,375.29,30.61z"/>
	<path class="st2" d="M376.68,30.61V30.6c0-1.09,0.85-2.01,1.98-2.01c0.73,0,1.19,0.31,1.55,0.69l-0.38,0.4
		c-0.31-0.32-0.65-0.58-1.17-0.58c-0.78,0-1.38,0.66-1.38,1.49v0.01c0,0.84,0.61,1.5,1.42,1.5c0.49,0,0.87-0.25,1.18-0.57l0.37,0.34
		c-0.39,0.43-0.85,0.75-1.57,0.75C377.53,32.61,376.68,31.7,376.68,30.61z"/>
	<path class="st2" d="M381.2,27.19h0.66v0.63h-0.66V27.19z M381.23,28.67h0.57v3.86h-0.57V28.67z"/>
	<path class="st2" d="M382.85,31.4v-0.01c0-0.81,0.67-1.25,1.65-1.25c0.49,0,0.84,0.07,1.19,0.16v-0.13c0-0.7-0.42-1.05-1.15-1.05
		c-0.45,0-0.81,0.12-1.17,0.28l-0.17-0.47c0.42-0.19,0.84-0.32,1.4-0.32c0.55,0,0.96,0.14,1.25,0.43c0.26,0.26,0.4,0.63,0.4,1.13
		v2.36h-0.55v-0.58c-0.27,0.35-0.72,0.66-1.39,0.66C383.58,32.61,382.85,32.2,382.85,31.4z M385.7,31.11v-0.37
		c-0.28-0.08-0.66-0.16-1.13-0.16c-0.72,0-1.13,0.31-1.13,0.8v0.01c0,0.48,0.45,0.77,0.97,0.77
		C385.11,32.15,385.7,31.72,385.7,31.11z"/>
	<path class="st2" d="M387.23,30.61V30.6c0-1.09,0.85-2.01,1.98-2.01c0.73,0,1.19,0.31,1.54,0.69l-0.38,0.4
		c-0.31-0.32-0.65-0.58-1.17-0.58c-0.78,0-1.38,0.66-1.38,1.49v0.01c0,0.84,0.61,1.5,1.42,1.5c0.49,0,0.87-0.25,1.18-0.57l0.37,0.34
		c-0.39,0.43-0.85,0.75-1.58,0.75C388.08,32.61,387.23,31.7,387.23,30.61z"/>
	<path class="st2" d="M391.74,27.19h0.66v0.63h-0.66V27.19z M391.78,28.67h0.57v3.86h-0.57V28.67z"/>
	<path class="st2" d="M393.45,30.61V30.6c0-1.09,0.85-2.01,2.02-2.01c1.16,0,2.01,0.91,2.01,2v0.01c0,1.09-0.86,2.02-2.02,2.02
		C394.3,32.61,393.45,31.7,393.45,30.61z M396.89,30.61V30.6c0-0.83-0.62-1.51-1.43-1.51c-0.84,0-1.41,0.68-1.41,1.49v0.01
		c0,0.83,0.61,1.5,1.42,1.5C396.31,32.1,396.89,31.43,396.89,30.61z M395.93,27l0.6,0.28l-0.85,0.81h-0.45L395.93,27z"/>
	<path class="st2" d="M398.52,28.67h0.58v0.67c0.25-0.42,0.66-0.75,1.32-0.75c0.93,0,1.48,0.63,1.48,1.54v2.4h-0.57v-2.25
		c0-0.72-0.39-1.17-1.07-1.17c-0.66,0-1.16,0.49-1.16,1.21v2.21h-0.58V28.67z"/>
	<path class="st2" d="M362.34,36.5v-0.01c0-1.44,1.08-2.7,2.67-2.7c1.59,0,2.66,1.25,2.66,2.69v0.02c0,1.44-1.08,2.7-2.67,2.7
		C363.41,39.18,362.34,37.94,362.34,36.5z M367.06,36.5v-0.01c0-1.19-0.87-2.16-2.06-2.16c-1.2,0-2.05,0.96-2.05,2.14v0.02
		c0,1.19,0.87,2.16,2.06,2.16C366.21,38.64,367.06,37.68,367.06,36.5z"/>
	<path class="st2" d="M368.6,37.18v-0.01c0-1.26,0.92-2.01,1.84-2.01c0.72,0,1.18,0.39,1.48,0.82v-2.33h0.57v5.45h-0.57v-0.78
		c-0.31,0.46-0.77,0.86-1.48,0.86C369.52,39.18,368.6,38.44,368.6,37.18z M371.94,37.17v-0.01c0-0.89-0.68-1.49-1.39-1.49
		c-0.75,0-1.36,0.55-1.36,1.49v0.01c0,0.91,0.63,1.49,1.36,1.49C371.26,38.66,371.94,38.06,371.94,37.17z"/>
	<path class="st2" d="M373.54,37.18v-0.01c0-1.09,0.85-2.02,2.02-2.02c1.16,0,2.01,0.91,2.01,2v0.01c0,1.09-0.86,2.02-2.02,2.02
		C374.39,39.18,373.54,38.27,373.54,37.18z M376.98,37.18v-0.01c0-0.83-0.62-1.51-1.43-1.51c-0.84,0-1.41,0.68-1.41,1.49v0.01
		c0,0.83,0.61,1.5,1.43,1.5C376.39,38.67,376.98,38,376.98,37.18z"/>
	<path class="st2" d="M378.6,35.24h0.58v0.67c0.25-0.42,0.66-0.75,1.32-0.75c0.93,0,1.48,0.63,1.48,1.54v2.4h-0.58v-2.25
		c0-0.72-0.39-1.16-1.07-1.16c-0.66,0-1.16,0.48-1.16,1.21v2.21h-0.58V35.24z"/>
	<path class="st2" d="M383.41,38.07v-2.33h-0.54v-0.51h0.54v-1.16h0.57v1.16h1.22v0.51h-1.22V38c0,0.47,0.26,0.64,0.65,0.64
		c0.19,0,0.36-0.04,0.56-0.13V39c-0.2,0.11-0.42,0.16-0.69,0.16C383.88,39.16,383.41,38.86,383.41,38.07z"/>
	<path class="st2" d="M385.87,37.18v-0.01c0-1.09,0.85-2.02,2.02-2.02c1.16,0,2.01,0.91,2.01,2v0.01c0,1.09-0.86,2.02-2.02,2.02
		C386.71,39.18,385.87,38.27,385.87,37.18z M389.3,37.18v-0.01c0-0.83-0.62-1.51-1.43-1.51c-0.84,0-1.41,0.68-1.41,1.49v0.01
		c0,0.83,0.61,1.5,1.43,1.5C388.72,38.67,389.3,38,389.3,37.18z"/>
	<path class="st2" d="M390.98,33.65h0.57v5.45h-0.57V33.65z"/>
	<path class="st2" d="M392.66,37.18v-0.01c0-1.09,0.85-2.02,2.02-2.02c1.16,0,2.01,0.91,2.01,2v0.01c0,1.09-0.86,2.02-2.02,2.02
		C393.5,39.18,392.66,38.27,392.66,37.18z M396.09,37.18v-0.01c0-0.83-0.62-1.51-1.43-1.51c-0.83,0-1.41,0.68-1.41,1.49v0.01
		c0,0.83,0.61,1.5,1.43,1.5C395.51,38.67,396.09,38,396.09,37.18z M395.13,33.57l0.6,0.28l-0.85,0.81h-0.45L395.13,33.57z"/>
	<path class="st2" d="M397.67,39.77l0.26-0.45c0.44,0.32,0.93,0.49,1.49,0.49c0.85,0,1.4-0.47,1.4-1.37v-0.45
		c-0.34,0.45-0.81,0.81-1.52,0.81c-0.93,0-1.81-0.7-1.81-1.81v-0.01c0-1.13,0.9-1.82,1.81-1.82c0.72,0,1.2,0.36,1.51,0.78v-0.69
		h0.57v3.19c0,0.6-0.18,1.05-0.49,1.37c-0.34,0.34-0.86,0.52-1.47,0.52C398.78,40.3,398.19,40.12,397.67,39.77z M400.84,36.98v-0.01
		c0-0.79-0.69-1.31-1.42-1.31c-0.73,0-1.34,0.51-1.34,1.3v0.02c0,0.78,0.62,1.31,1.34,1.31C400.15,38.29,400.84,37.76,400.84,36.98z
		"/>
	<path class="st2" d="M402.69,33.76h0.66v0.63h-0.66V33.76z M402.73,35.24h0.58v3.86h-0.58V35.24z"/>
	<path class="st2" d="M404.4,37.18v-0.01c0-1.09,0.85-2.02,1.98-2.02c0.73,0,1.19,0.31,1.55,0.69l-0.38,0.4
		c-0.31-0.32-0.65-0.58-1.17-0.58c-0.78,0-1.38,0.67-1.38,1.49v0.01c0,0.84,0.61,1.5,1.42,1.5c0.49,0,0.87-0.25,1.18-0.57l0.37,0.34
		c-0.39,0.43-0.85,0.75-1.58,0.75C405.25,39.18,404.4,38.27,404.4,37.18z"/>
	<path class="st2" d="M408.61,37.98v-0.02c0-0.81,0.67-1.25,1.65-1.25c0.49,0,0.84,0.07,1.19,0.16v-0.13c0-0.69-0.43-1.05-1.15-1.05
		c-0.46,0-0.81,0.12-1.17,0.28l-0.17-0.47c0.42-0.19,0.84-0.32,1.4-0.32c0.55,0,0.96,0.14,1.25,0.42c0.26,0.26,0.4,0.64,0.4,1.13
		v2.36h-0.55v-0.58c-0.27,0.35-0.72,0.66-1.39,0.66C409.33,39.18,408.61,38.77,408.61,37.98z M411.45,37.68V37.3
		c-0.28-0.08-0.66-0.16-1.13-0.16c-0.72,0-1.13,0.31-1.13,0.8v0.02c0,0.48,0.45,0.77,0.97,0.77
		C410.87,38.72,411.45,38.29,411.45,37.68z"/>
	<path class="st2" d="M364.51,40.4h0.55l2.38,5.26h-0.63l-0.61-1.38h-2.84l-0.62,1.38h-0.6L364.51,40.4z M365.96,43.75l-1.19-2.66
		l-1.2,2.66H365.96z"/>
	<path class="st2" d="M368.38,41.81h0.58v1.01c0.28-0.64,0.84-1.1,1.57-1.08v0.62h-0.05c-0.84,0-1.53,0.6-1.53,1.77v1.54h-0.58
		V41.81z"/>
	<path class="st2" d="M371.2,46.34l0.26-0.45c0.44,0.32,0.93,0.49,1.48,0.49c0.85,0,1.4-0.47,1.4-1.37v-0.46
		c-0.34,0.45-0.81,0.81-1.52,0.81c-0.93,0-1.81-0.69-1.81-1.81v-0.01c0-1.13,0.9-1.82,1.81-1.82c0.72,0,1.2,0.36,1.51,0.78v-0.69
		h0.58v3.19c0,0.6-0.18,1.05-0.49,1.37c-0.34,0.34-0.86,0.52-1.47,0.52C372.31,46.87,371.71,46.69,371.2,46.34z M374.36,43.55v-0.01
		c0-0.79-0.69-1.31-1.42-1.31c-0.73,0-1.34,0.51-1.34,1.3v0.02c0,0.78,0.62,1.31,1.34,1.31C373.68,44.86,374.36,44.33,374.36,43.55z
		"/>
	<path class="st2" d="M375.96,43.75v-0.02c0-1.11,0.78-2.01,1.85-2.01c1.14,0,1.8,0.91,1.8,2.04c0,0.08,0,0.12-0.01,0.19h-3.06
		c0.08,0.84,0.67,1.31,1.36,1.31c0.53,0,0.9-0.22,1.22-0.54l0.36,0.32c-0.39,0.43-0.86,0.72-1.59,0.72
		C376.83,45.75,375.96,44.94,375.96,43.75z M379.03,43.52c-0.06-0.7-0.46-1.31-1.23-1.31c-0.67,0-1.18,0.56-1.25,1.31H379.03z"/>
	<path class="st2" d="M380.62,41.81h0.57v0.67c0.25-0.42,0.66-0.76,1.32-0.76c0.93,0,1.48,0.63,1.48,1.54v2.4h-0.57v-2.25
		c0-0.72-0.39-1.16-1.07-1.16c-0.66,0-1.16,0.48-1.16,1.21v2.21h-0.57V41.81z"/>
	<path class="st2" d="M385.42,44.64v-2.33h-0.54v-0.51h0.54v-1.16H386v1.16h1.22v0.51H386v2.25c0,0.47,0.26,0.64,0.65,0.64
		c0.19,0,0.36-0.04,0.56-0.13v0.49c-0.2,0.1-0.42,0.16-0.69,0.16C385.89,45.73,385.42,45.43,385.42,44.64z"/>
	<path class="st2" d="M388.25,40.33h0.66v0.63h-0.66V40.33z M388.29,41.81h0.57v3.86h-0.57V41.81z"/>
	<path class="st2" d="M390.2,41.81h0.58v0.67c0.25-0.42,0.66-0.76,1.32-0.76c0.93,0,1.48,0.63,1.48,1.54v2.4H393v-2.25
		c0-0.72-0.39-1.16-1.07-1.16c-0.66,0-1.16,0.48-1.16,1.21v2.21h-0.58V41.81z"/>
	<path class="st2" d="M394.51,44.55v-0.02c0-0.81,0.67-1.25,1.65-1.25c0.49,0,0.84,0.07,1.19,0.16v-0.14c0-0.7-0.43-1.05-1.15-1.05
		c-0.45,0-0.81,0.12-1.17,0.29l-0.17-0.47c0.43-0.19,0.84-0.32,1.4-0.32c0.55,0,0.96,0.14,1.25,0.42c0.26,0.26,0.4,0.63,0.4,1.13
		v2.36h-0.55v-0.58c-0.27,0.35-0.72,0.66-1.4,0.66C395.23,45.75,394.51,45.34,394.51,44.55z M397.35,44.25v-0.37
		c-0.28-0.08-0.66-0.16-1.13-0.16c-0.72,0-1.13,0.31-1.13,0.8v0.01c0,0.49,0.45,0.77,0.97,0.77
		C396.77,45.29,397.35,44.86,397.35,44.25z"/>
</g>
<g>
	<path class="st3" d="M10.99,37.02c-0.31-4.73,0.38-9.25,1.93-12.73c0.69-1.54,1.51-2.8,2.44-3.75C14.51,20.19,13.65,20,12.82,20
		c-0.57,0-1.12,0.09-1.64,0.25c-2.47,0.79-4.2,3.31-4.87,7.11c-0.66,3.71-0.23,8.22,1.2,12.7c2.64,8.27,8.04,14.27,12.83,14.27
		c0.17,0,0.34-0.01,0.51-0.02C15.85,53.68,11.59,46.31,10.99,37.02z"/>
	<path class="st4" d="M15.7,47.79c-1.15-3.65-1.32-8.24-0.46-12.93c1.48-8.15,5.68-14.53,10.19-15.89c-0.5-0.18-1.02-0.29-1.55-0.32
		c-0.1-0.01-0.2-0.01-0.3-0.01c-5.18,0-9.67,7.55-10.23,17.19c-0.27,4.7,0.44,9.17,2,12.6c0.9,1.98,2.03,3.48,3.31,4.45
		C17.41,51.72,16.39,50,15.7,47.79z"/>
	<g>
		<path class="st3" d="M35.85,40.13l-2.35-0.68c-1.76-0.51-2.73-1.56-2.73-3.12c0-1.85,1.23-3.6,4.3-3.6c2.04,0,4.68,0.49,4.68,2.36
			c0,0.86-0.66,1.41-1.53,1.41c-1.18,0-1.2-1.36-2.95-1.36c-0.6,0-1.15,0.23-1.15,0.74c0,0.49,0.43,0.71,1.18,0.91l1.83,0.49
			c1.86,0.51,3.13,1.37,3.13,3.3c0,2.64-2.26,3.78-4.59,3.78c-3.71,0-4.85-1.67-4.85-2.67c0-0.86,0.63-1.45,1.49-1.45
			c1.26,0,1.41,1.62,3.15,1.62c0.72,0,1.37-0.25,1.37-0.93C36.81,40.5,36.49,40.32,35.85,40.13z"/>
		<path class="st3" d="M44.44,42.62l-0.25,0.82c-0.18,0.63-0.87,0.88-1.43,0.88c-0.8,0-1.61-0.6-1.61-1.44
			c0-0.51,0.29-1.33,0.55-2.07l2.35-6.58c0.34-0.93,0.8-1.44,1.69-1.44h1.1c0.89,0,1.35,0.51,1.69,1.44l2.35,6.58
			c0.26,0.74,0.55,1.56,0.55,2.07c0,0.83-0.81,1.44-1.61,1.44c-0.55,0-1.24-0.25-1.43-0.88l-0.25-0.82H44.44z M46.31,36.33h-0.03
			l-1.2,4.06h2.42L46.31,36.33z"/>
		<path class="st3" d="M52.8,35.11c0-1.48,0.64-2.12,2.01-2.12h5.62c1.06,0,1.53,0.53,1.53,1.3c0,0.77-0.48,1.3-1.53,1.3h-4.1v1.56
			h3.28c1.06,0,1.53,0.52,1.53,1.3c0,0.77-0.48,1.3-1.53,1.3h-3.28v1.78h4.27c1.06,0,1.53,0.53,1.53,1.3c0,0.77-0.48,1.3-1.53,1.3
			h-5.78c-1.37,0-2.01-0.63-2.01-2.12V35.11z"/>
	</g>
	<path class="st3" d="M30.17,50.14c-0.02,0-0.05,0-0.07,0.01l0,0c-1.75,0.79-3.45,0.93-4.9,0.28c-4.29-1.94-4.79-10.11-1.11-18.25
		c2.52-5.59,6.35-9.71,9.89-11.12c-0.51-0.39-1.07-0.68-1.68-0.87c-0.51-0.16-1.05-0.24-1.6-0.24c-4.81,0-10.18,6.04-12.77,14.36
		c-1.4,4.49-1.79,9.01-1.1,12.71c0.7,3.79,2.45,6.3,4.92,7.07c0.51,0.16,1.05,0.24,1.6,0.24c2.33,0,4.78-1.41,7-3.82l0-0.01
		c0.03-0.04,0.05-0.09,0.05-0.14C30.4,50.24,30.3,50.14,30.17,50.14z"/>
</g>
<rect x="72.71" y="15.27" class="st2" width="1.15" height="45.32"/>
<rect x="317.29" y="15.27" class="st2" width="1.15" height="45.32"/>
</svg>
